<?xml version="1.0" standalone="no"?>
<!DOCTYPE svg PUBLIC "-//W3C//DTD SVG 1.1//EN" "http://www.w3.org/Graphics/SVG/1.1/DTD/svg11.dtd" >
<svg>
<metadata>
Created by FontForge 20090914 at Sun Jun 21 08:07:38 2015
 By www-data
COPYRIGHT ESSELTE LETRASET LTD., 1990 
</metadata>
<defs>
<font id="RageItalicLetPlain" horiz-adv-x="819" >
  <font-face 
    font-family="Rage Italic LET"
    font-weight="5"
    font-style="italic"
    font-stretch="normal"
    units-per-em="2048"
    panose-1="0 0 0 0 0 0 0 0 0 0"
    ascent="1638"
    descent="-410"
    x-height="613"
    cap-height="1427"
    bbox="-392 -841 2157 1550"
    underline-thickness="137"
    underline-position="-204"
    unicode-range="U+0020-U+F002"
  />
<missing-glyph horiz-adv-x="1024" 
d="M82 1365h860v-1365h-860v1365zM123 1324v-1283h778v1283h-778z" />
    <glyph glyph-name=".notdef" horiz-adv-x="1024" 
d="M82 1365h860v-1365h-860v1365zM123 1324v-1283h778v1283h-778z" />
    <glyph glyph-name="space" unicode=" " horiz-adv-x="548" 
 />
    <glyph glyph-name="exclam" unicode="!" horiz-adv-x="626" 
d="M443 955l14 9l2 23l14 32l19 24l11 36l20 22l13 41l6 9l6 4l22 10l-5 14v2l4 9l36 65l21 60l13 22l17 12l17 4l17 -4l28 -29l20 -34l25 -67l-3 -18l-11 -21l-64 -81l-38 -63l-14 -44l-1 -2l-26 -24l-20 -45l-45 -69l-10 -30l-11 -15l-30 -97l-11 -10l-4 -24l-12 -9
l-2 -30l-23 -51l-25 -152l-20 -23l-12 -13l-10 -3l-5 1l-5 2l-30 25l-21 11l-27 38l-12 46l5 43l44 108l36 103l72 141zM179 199l-2 8l1 6l2 5l27 47l15 29l12 11l10 13l28 5l12 3l12 2l11 -2l38 -28l5 -5l18 -38l14 -26v-5v-5l-1 -2l-16 -22l-9 -21l-20 -67l-13 -9l-32 -8
l-16 2l-13 6l-13 9l-26 8l-29 56z" />
    <glyph glyph-name="quotedbl" unicode="&#x22;" horiz-adv-x="570" 
d="M483 1164l2 47l18 43l17 26l13 17l26 14l28 9l18 -4l16 -11l18 -20l22 -43l5 -33l-4 -27l-11 -30l-22 -46l-30 -40l-24 -41l-8 -10l-30 -35l-16 -17l-14 -5l-5 1l-21 11l-1 16l1 34l1 43v72zM249 1164l2 47l18 43l17 26l13 17l26 14l28 9l18 -4l16 -11l18 -20l22 -43
l5 -33l-4 -27l-11 -30l-22 -46l-30 -40l-24 -41l-8 -10l-30 -35l-16 -17l-14 -5l-5 1l-21 11l-1 16l1 34l1 43v72z" />
    <glyph glyph-name="numbersign" unicode="#" horiz-adv-x="1383" 
d="M766 242l22 27h12l7 21l26 12l5 14h12l2 18l13 9l10 18l10 2l11 22l20 27l10 8l1 19l16 31l3 14l-2 24l-31 -7l-120 -58l-32 -8l-28 -24l-33 -15l-7 -12l-62 -31l-15 -17l-22 -7l-8 -8l-14 2l-7 -18l-31 -9l-17 -23l-18 -4l-13 -23l-27 -10l-22 -23l-40 -22l-3 -15
l-31 -16l5 -17l-20 -10l-14 -10l-22 -31l-13 -11l-8 -23l-11 -36l3 -4l8 -2l30 2l29 1l55 15l50 7l43 26l45 23l52 37l33 13l24 20l37 24l30 29zM354 278l15 14l15 5l12 14l33 8l44 33l22 -4l15 23l90 39l18 21l38 7l55 41l77 27l35 32l32 3l26 25l-16 13l-28 10l-84 34
l-96 17l-192 51l-31 -2h-3l-3 2l-24 17l-28 -1l-2 9l-29 4l-15 9l-35 11l-28 19l-4 17l-16 15l-8 18l-14 6l-6 18l-12 16l-1 23l-2 26l2 11l10 18l1 18l18 21l10 22l32 28l7 23l12 10l18 5h3l19 -5l6 8l-9 22l3 9l15 10l11 18l23 9l32 28l46 26l20 22l28 11l36 20l16 2
l79 48l20 -2l32 16l22 -1l32 24l18 4l21 12h15l4 -10l8 2l20 23l8 2l4 -1l4 -2l9 -9l17 19l11 6l10 2l48 -5l21 13l17 7l10 2h4l37 -4l55 14l26 -11l45 11l15 -8l13 1l21 -10l29 14l12 -16l21 -4l16 -9l20 9l23 -9l35 -8l7 -3l4 -3l5 -12l21 -12l30 -18l3 -4l9 -18l13 -20
l7 -29l14 -20l3 -13v-4l-4 -19l11 -33l-4 -20l1 -35l-3 -11l-2 -3l-14 -15l-15 -21l-22 -19l-10 -3l-27 5l-21 4l-5 2l-11 11l-5 18l4 17l8 14l13 9l20 7v23l-12 34l-4 16l-9 12l-13 -7l-14 8h-18l-18 14l-20 27l-5 2h-4l-3 -2l-13 -15l-21 3l-67 13l-26 -5l-46 5l-21 -5
l-11 10l-25 -5l-15 1l-41 -4l-16 6l-23 -11l-28 -13l-68 -8l-27 -10l-62 -10l-57 -31l-67 -24l-16 -15l-26 -8l-15 5l-21 -5l-7 -23l-7 -8l-10 -7l-44 -20l-28 -29l-36 -19l-14 -21l-18 -6l-20 -22l-19 -19l-14 -19l-20 -26l-20 1l-5 -4l-2 -4l-1 -5v-5l7 -20l4 -19l19 -24
l20 -6l13 -8l55 -11l18 -8h30l48 -13l11 2h8l10 -2l6 -4l-16 -6l27 -3l18 15l20 -12l23 3l33 -8l19 3l41 -12l23 3l19 -10l76 -3l39 -15l61 -4l26 -17l24 1l31 -17l25 -11l9 -13l16 -1l1 -18l33 14l24 16l81 24l75 33l18 2l35 8l22 3l26 13l41 10l26 6l2 -10l9 1l-5 11l26 4
l50 9h1l32 -14l3 -26l-6 -6l-17 -5l-19 -11l-51 -1l-31 -20l-23 -2l-38 -16l-19 1l-21 -7l-22 -10l-75 -23l-54 -26l-33 -7l-44 -21l6 -24l4 -47l-32 -123l-23 -29l-15 -10l-15 -24l-3 -1l-11 6l-14 -10l-2 -33l-4 -9l-9 -10l-42 -36l-20 -23l-16 -12l-26 -6l-16 -27
l-15 -12l-2 -6h-13l-17 -22l-16 -3l-20 -25l-16 -1l-12 -19l-15 -6l-4 14l-9 -4l-6 -13l-8 -14l-7 -5l-26 -11l-16 -12h-12l-9 -5l-63 -32l-41 -7l-52 -25l-29 -3l-50 -18l-62 -11l-18 -4l-23 2l-19 -4l-74 12l-25 5l-12 7l-15 19l-33 9l-8 9l-7 31l13 48l63 93l65 59l10 10
l32 15l15 16z" />
    <glyph glyph-name="dollar" unicode="$" horiz-adv-x="1103" 
d="M574 998l-7 -23l17 5l37 4h6l37 -3l8 21l40 82l6 16l21 18l1 18l30 48l2 23l-21 -11l-44 -4l-63 -26l-12 -9l-9 -52zM457 358l-10 -22l18 6l43 17l17 5l24 24l20 2l66 27l62 46l38 32l34 34l13 23l35 29l10 14l4 11l5 20l20 33l12 38l2 35l1 24l-4 16l-21 19l-53 19
l-60 15h-1l-45 -3l-27 1l-11 -30l-76 -159l-21 -68l-41 -102l-7 -25l-2 -3l-13 -10l-14 -35zM452 962l23 1l14 22l20 25l11 38l34 38l7 16l-1 25l-27 -8l-26 -7l-70 -43l-42 -24l-43 -44l-9 -22l2 -5l4 -4l24 -8l33 -5l10 1zM284 315l-10 -25l30 -1l17 11l36 5l9 21l51 99
l42 95l25 66l9 39l37 58l47 118l17 30l-29 2l-28 -2h-29l-15 -30l-27 -25l-2 -3l-8 -47l-78 -155l-49 -139l-8 -19l4 -8l-17 -33l-15 -10l-1 -38zM-136 276l-1 7l16 -3l31 -14l14 6l10 2l15 -15l14 -7l13 5l23 -7l28 -4l8 1l38 4l44 -3l23 2l7 21l30 66l22 34l12 42l63 109
l7 32l19 36l21 30l22 54l4 23l13 17l19 25l8 23l11 23l5 16l9 27l-54 6l-35 11l-54 77l-22 61l-3 28l7 43l16 22l49 45l19 26l52 28l13 17l27 -2l19 20l14 8l143 52l22 11l29 6l10 18l33 40l11 46l34 26v28l8 19l5 4l7 2l7 -2l16 -15l5 -17l-2 -8l-9 -25l-3 -21l-13 -26
l-13 -19l-19 -10l-10 -5l-2 -2l-3 -10l10 -5l16 2l51 1l23 4l14 21l17 25l1 3l3 27l28 35l11 31l15 20l9 20l41 -7l5 -34l-3 -18l-26 -57l-19 -48l-10 -24l12 -4l27 -3l24 -5l6 -15l21 -27l7 -13l3 -20l-3 -21l-10 -36l-6 -34l-13 -18l-8 -6l-6 -1l-4 1l-19 22l-9 31l2 15
l4 7l20 19l-20 19l-37 6l-36 -3l-23 -5l-8 -20l-12 -29l-25 -20l2 -23l-2 -22l-18 -20l-12 -38l-16 -45l-6 -22l22 -9l86 -36l13 -10l21 -25l25 -45l9 -25l12 -27l3 -35l5 -24l5 -84v-16l-5 -20l1 -42l-17 -27l-13 -38l-14 -15l-19 -47l-19 -20l-14 -23l-48 -41l-16 -18
l-34 -20l-37 -30l-48 -23l-49 -29l-33 -11l-32 -18l-54 -18l-77 -21l-25 -1l-11 -20l-19 -44l-11 -18l-9 -19l-22 -8l-8 3l-5 4l-12 48l-2 21l-30 3l-43 -8l-24 -1l-19 -25l-17 -25l-10 -31l-1 -3l-13 -8l-13 -3l-10 2l-12 12l-27 40l4 25l-23 13h-27l-28 11l-55 25l-12 8
l-11 12l-27 42z" />
    <glyph glyph-name="percent" unicode="%" horiz-adv-x="886" 
d="M438 258l3 -31l24 12l54 36l31 37l18 28l15 14l18 41l-2 3l-9 -2l-14 18l-7 16l-2 9l2 9l18 27l13 16l-21 -11l-49 -73l-26 -6l-10 -18l-17 -33l-8 -30l-6 -23l-20 -7l-4 -6l-2 -17zM256 952l-15 -17l21 6l35 15l77 51l17 14l22 11l17 21l64 41l18 21l34 7l1 22l-36 -4
l-48 -14l-26 -24l-18 5l-14 -17l-16 -20l-19 -3l-14 -24l-73 -61zM357 272l-1 18l10 18l47 67l13 26l91 87l14 17l20 9l56 47l25 6l11 8l10 -1l2 -20l-8 -17l-11 -22l56 20l28 -50l7 -18l8 -33l4 -24l-14 -16l-7 -22l-29 -26l-20 -45l-36 -38l-15 -6l-21 -25l-18 -14
l-18 -18l-24 -6l-17 -14l-12 -10l-29 -12l-16 -10l-4 -1l-18 4l-24 6l-13 14l-23 36l-21 46zM264 484l4 16l18 12l17 24l12 30l23 26l12 22l31 29l59 79l15 16l15 6l-2 24l19 17l29 39l42 46l8 17l2 1l16 1l25 36l8 21l34 44l42 39l20 13l8 30l50 49l68 69l24 17l14 16
l13 20l-18 13l-6 2l-12 -24l-19 -2l-7 -15l-13 -9l-6 -13l-21 1l-19 -7l-24 -23l-11 -22l-22 -10l-10 -14l-93 -73l-68 -63l-26 -7l-60 -59l-24 -3l-30 -30l-26 -11l-16 11l-23 -5l1 -28l-25 -7l-81 -42l-9 -2l-35 10l-7 4l-26 24l-6 20v1l1 35l1 36l4 10l1 2l52 53l13 22
l37 35l52 31l9 16l9 12l20 13l31 14l59 36l21 5l39 23l42 4l42 11l8 -5l5 -10l2 -22l21 9l11 13l15 12l24 16l26 7l53 25l25 3l10 11l22 -2l19 15l24 2l9 16h20l45 15l44 12l35 17l64 35l9 1l17 -4l14 -15l8 -31l-5 -34l-17 -51l-18 -30l-20 -44l-24 -6l-22 -12l-33 -19
l-70 -72l-61 -57l-35 -43l-67 -52l-45 -57l-18 -15l-17 -30l-25 -12l-16 -14l-16 -22l-12 -28l-8 -19h-20l-5 -32l-17 -11l-6 -31l-19 -4l-10 -6l-4 -6l-19 -33l-26 -27l-22 -34l-22 -21l-11 -18l-22 -12v-22l-5 -23l-7 -14l-29 -34l-54 -86l-15 -24l-16 -29l-13 -45l-9 -27
l3 -28l-2 -25l22 -77v-26l-10 -48l-28 -23l-24 -7l-28 4l-41 10l-19 13l-6 8l-11 30l-13 26l-5 28l-1 25l1 9l7 29l2 21l28 62l9 25l32 57l31 64l52 65l17 33z" />
    <glyph glyph-name="ampersand" unicode="&#x26;" horiz-adv-x="1502" 
d="M626 293l17 16l23 6l16 19l20 13l14 19l36 17l8 20l39 50l27 58l23 33l21 46l9 22h27l3 3v4v2l-1 3l-11 7l7 30l17 22l14 14l9 21l21 24l22 46l20 13v8l-9 3l-14 -6l-45 -1l-24 -10l-28 -2l-44 -19l-58 -2l-31 -9l-26 -6l-49 -28l-15 -4l-19 -5l-10 -21l-21 -7l-8 -12
l-31 -15l-11 -11l-43 -18l-35 -38l-17 -10l-16 -26l-23 1l-18 -23l-57 -66l-18 -17l-5 -15l-3 -21l-19 -10l-7 -11l-12 -82l7 -51l3 -4l27 -17l13 -10l23 -7l18 -6l20 1l21 -4l37 12h27l18 5l53 29l36 13l11 10zM161 480l17 11l11 18l11 18l35 32l15 17l45 36l38 32l22 10
l15 16l80 44l24 17l63 25l33 22l37 9l24 18l-27 18l-37 34l-13 13l-3 52l-1 26l2 9l13 26l33 49l21 36l32 29l23 31l30 25l18 23l41 25l36 35l49 23l108 58l38 10l23 9h50l40 8l15 1l20 -4l22 -18l15 -14l10 -35l11 -35l1 -31l-3 -28l-12 -22l-19 -41l-13 -12l-26 -13
l-26 -10l-3 1l-23 14l-19 10l-1 21l5 25l7 7l51 41l4 4l4 20v24l-31 7l-23 -6l-25 2h-1l-25 -5l-15 -10l-20 -19l-73 -41l-30 -24l-47 -56l-18 -16l-16 -20l-8 -18l-34 -30l-11 -23l-18 -21l-2 -13l-10 -30l3 -8l19 -15l46 -10l7 1l65 13l53 -2l32 15l82 18l65 26l24 5
l30 41l22 17l34 60l32 37l18 19l8 2l11 -4l20 -21l14 -36l5 -27l-4 -18l-24 -33l-24 -22l-4 -11l2 -10l21 11l27 10h3l46 -9l28 13l26 7l19 6l40 -1l33 -1l18 -6l13 -11l11 -17l19 -23l7 -36l1 -21l-38 -17l-26 4l-65 -3l-33 7l-74 -12l-36 3l-32 -15l-35 3l-27 -14h-23
l-7 -24l-11 -6l-9 -24l-19 -6l-6 -20l-12 -20l-12 -23l-30 -13l-4 -21l-6 -13l-6 -8l-27 -24l-19 -47l-14 -21l-4 -21l-15 -4l-9 -23l-14 -13l-5 -24l-25 -14l-5 -12l-1 -2l2 -12v-7l-1 -7l-1 -2l-18 -24l-3 -18l-14 -20v-22l-6 -15l3 -36l27 -4l41 -6l15 2l11 6l16 12
l26 -1l58 37l75 40l27 24l26 3l13 19l13 6l17 19l21 16l8 10l22 16l14 17l19 7l26 -33l-7 -23l-1 -20l-2 -11l-13 -14l-21 -17l-18 -24l-42 -41l-16 -23l-24 -17l-10 -22l-20 1l-27 -29l-28 -9l-39 -20l-17 -4l-29 -24l-46 -6l-16 -6l-39 -5l-20 -6l-11 2l-6 5l-14 16
l-34 17l-11 19l-36 45l-9 34l-14 -18l-33 -39l-12 -17l-15 -4l-29 -35l-32 -18l-15 -14l-27 -9l-32 -22l-31 -6l-23 -17l-27 8l-40 -23l-20 3l-25 -3l-31 13l-42 -17h-4l-10 2l-74 38l-51 14l-24 13l-9 10l-18 27l-25 29l-12 42l-9 30v33l2 46l20 66l6 15z" />
    <glyph glyph-name="quotesingle" unicode="'" horiz-adv-x="336" 
d="M249 1164l2 47l18 43l17 26l13 17l26 14l28 9l18 -4l16 -11l18 -20l22 -43l5 -33l-4 -27l-11 -30l-22 -46l-30 -40l-24 -41l-8 -10l-30 -35l-16 -17l-14 -5l-5 1l-21 11l-1 16l1 34l1 43v72z" />
    <glyph glyph-name="parenleft" unicode="(" horiz-adv-x="775" 
d="M407 442l-8 22l8 41l1 26l15 53l-2 29l14 64l8 27l18 12l9 23l1 27l17 33v31l34 48l41 80l21 23l-1 21l16 21l35 37l22 50l23 8l16 16l13 10l10 21l43 36l95 101l100 72l42 32l16 4l22 17l10 4l33 18l16 -4l10 -10l3 -10l-2 -9l-6 -9l-13 -7l-22 -4l-3 -25l-5 -10l-4 -2
l-30 -8l-25 -25l-40 -22l-37 -55l-31 -21l-20 -35l-30 -19l-23 -54l-32 -40l-47 -79l-38 -45l-22 -41l-95 -232l-14 -20l-17 -26l8 -38l-17 -33l-3 -15l-2 -79l-8 -49l2 -96l-7 -30l6 -24l8 -53l14 -42l-3 -23l2 -9l98 -150l6 -10l1 -6l-3 -8l-4 -5l-12 -3l-24 3l-21 9
l-17 16l-24 40l-25 28l-10 23l-28 29l-30 60l-30 47l-8 20l14 12l-6 21l-12 31l-8 40l-5 23l2 61l1 13v2z" />
    <glyph glyph-name="parenright" unicode=")" horiz-adv-x="775" 
d="M296 193l7 27l37 32l3 23l53 65l24 68l32 60l11 52l58 123l5 47l25 55l1 40l19 13l-8 34l22 98l4 26l-1 9l-6 25l2 41l-6 47l-2 35l-24 62l-1 10v5l14 22l-10 7l-6 12l-15 14l-2 27l-15 21l-2 16l-12 18l-12 25l-43 44l-2 25l13 7h2l28 -10l52 -40l25 -36l48 -66l20 -44
l17 -43l12 -66l21 -54v-41l8 -59l-7 -57l10 -80l-16 -71l4 -57l-5 -19l-11 -42l-12 -17l-4 -22l-10 -21l-4 -29l-11 -55l-16 -28l-27 -63l-19 -34l-5 -17l-4 -17l-16 -22l-25 -49l-18 -13l-10 -31l-42 -22l-24 -31l-17 -19l-16 -3l-17 -37l-18 -8l-12 -12l-16 -7l-19 -22
l-60 -27l-38 -29l-28 -7l-15 -7l-12 -11l-12 -18l-35 -7l-6 3l-4 5l-2 9l3 13l8 10l32 26l17 18l25 21l39 48z" />
    <glyph glyph-name="asterisk" unicode="*" horiz-adv-x="686" 
d="M618 1251l10 -3l8 27l15 24l2 28l17 16v4l-1 11l-3 19l20 11h7l14 -3l15 -13l13 -27l4 -26l-6 -10l-19 -14l-7 -37v-8l25 11l20 13l11 15l6 5l14 4l21 -2l14 -18l4 -7l-11 -19l-14 -18l-3 -2l-29 -10l-20 -19l-29 -17l-19 -15l8 -20l59 -91l-3 -34l-5 -22l-8 -8l-14 -3
l-12 2l-9 7l-42 46l-26 15l-9 -22l-24 -64l-9 -15l-7 -5l-8 -2l-10 3l-13 14l-17 49l1 4l27 72l1 2l-1 4l-3 3l-9 2l-35 -9l-43 -17l-51 -34h-4l-8 2l-9 9l-4 17l4 20l10 16l5 4l47 18l37 26l33 9l14 9l3 6l2 8l-2 9l-16 27l-41 58l-3 20l2 12l7 6l9 3l8 -2l15 -9l30 -26
l34 -28z" />
    <glyph glyph-name="plus" unicode="+" horiz-adv-x="680" 
d="M170 231l16 16l23 6l21 16l19 12l14 17l53 26l41 44l22 13l26 23l33 35l18 10l12 13l24 25l8 19l-9 5l-20 -12l-19 -1l-28 2l-16 -11l-25 7l-17 -10l-68 -25l-42 -23l-40 -21l-9 -13l-26 -14l-12 -21l-28 -14l-14 -25l-18 -10l-22 -29l-37 -37l-12 -31l-3 -14l1 -6l6 -5
l21 -4l26 4zM6 342l22 24l5 18l31 46l36 34l21 28l55 43l12 14l36 21l20 13l24 5l18 19l25 -2l68 24l55 3l21 8l12 2l29 -6l22 -9l13 -17l24 -17l6 -18l9 1l2 1l7 11l13 16l17 10l16 3l24 -7l17 -16l7 -24l-1 -9l-30 -81l-12 -40l-13 -12l-17 -55l-18 -33l-2 -21l-6 -21
l10 -63l-4 -20l13 -17l17 -54l4 -8l20 -18l34 -26l7 -30l-7 -28l-15 -15l-33 -6l-48 10l-25 20l-16 25l-30 65v27l-16 27l3 38l-5 45l10 62l2 32l9 35l-9 3l-8 -2l-16 -14l-17 -18l-17 -14l-9 -14l-21 -9l-9 -12l-19 -14l-11 -11l-10 -19l-13 4l-20 -26h-15l-18 -15l-43 -42
l-17 -8l-125 -84l-21 -9l-21 -11l-15 1l-15 -6h-22l-33 10l-24 25l-13 51l16 95z" />
    <glyph glyph-name="comma" unicode="," horiz-adv-x="509" 
d="M101 -13l-19 12l12 32l43 53l6 20l-14 15l-18 38l-8 47l1 8l10 15l16 25l38 48l22 13l19 3l21 -5l46 -51l27 -40l1 -6l-2 -9l-19 -30l-22 -58l-67 -91l-40 -41l-9 -5l-15 -5l-7 1z" />
    <glyph glyph-name="hyphen" unicode="-" horiz-adv-x="718" 
d="M401 443l20 6l22 -6l21 6l23 -3l31 -4l32 -11l28 4h1l18 -4l8 -8l4 -27l-6 -27l-38 -34l-31 -21l-40 3l-45 -4l-49 18l-41 -5l-44 6l-38 -10l-52 10l-42 -8l-32 20h-23l-12 14l-5 9l-2 15l2 9l10 16l16 16l20 2l59 12l32 -4h1l34 5l63 4h20z" />
    <glyph glyph-name="period" unicode="." horiz-adv-x="488" 
d="M92 182l-10 16l14 42l12 33l3 3l27 19l17 17l8 3l4 1l29 -16l26 -15l30 -47l26 -26l4 -10l2 -8l-13 -33l-39 -52l-19 -16l-23 -7l-19 5l-23 16l-20 18z" />
    <glyph glyph-name="slash" unicode="/" horiz-adv-x="836" 
d="M291 506l4 19l17 14l18 27l12 35l23 30l12 25l31 34l60 91l15 19l15 6l-2 28l19 20l29 45l42 53l8 20l2 1l16 1l25 41l8 25l35 50l42 46l20 15l8 34l50 57l67 79l26 20l95 139l41 28l9 11l31 17l28 13l3 1l16 -5l15 -18l8 -41l-5 -43l-19 -59l-14 -24l-20 -54l-21 -4
l-35 -15l-23 -21l-71 -84l-62 -65l-49 -67l-45 -34l-47 -68l-24 -24l-17 -35l-25 -14l-16 -15l-17 -27l-11 -31l-8 -23h-21l-5 -36l-17 -14l-6 -34l-19 -5l-10 -7l-4 -7l-19 -39l-26 -31l-22 -38l-22 -26l-11 -19l-22 -15l-1 -25l-5 -27l-7 -16l-29 -39l-54 -100l-16 -27
l-15 -34l-13 -52l-10 -32l3 -31l-2 -29l22 -90l-1 -29l-10 -56l-27 -27l-25 -8l-27 5l-42 11l-19 15l-5 11l-11 34l-13 30l-5 32l-1 30l1 9l7 34l2 24l29 72l8 29l33 66l31 74l53 75l17 38z" />
    <glyph glyph-name="zero" unicode="0" horiz-adv-x="978" 
d="M643 1221l15 5l-9 7l-5 3l-4 1l-5 -1l-4 -4l-1 -3l1 -4l3 -3l6 -2zM114 264l19 -25l-12 -19l14 5l19 -8l23 -2l14 -4l21 4l15 1l53 23l29 11l52 30l26 10l20 17l18 2l8 20l33 17l6 17l14 16l13 17l30 17l16 24l118 121l34 44l13 29l21 7l17 48l29 34l-6 22l20 20l7 19
l15 30v16l8 14l9 18l3 22l12 54l17 36l-2 29l10 39v5l-4 19l-12 22l-19 56l-25 9l-20 5h-1l-51 -21l-76 -25l-68 -45l-20 -11l-6 7l-11 28l-19 -14l-21 -15l-44 -37l-28 -39l-68 -76l-9 -32l-26 -5l-9 -23l-12 -33l-46 -55l-10 -53l-31 -35l-7 -28l-22 -40l-25 -29l-15 -29
l-6 -28l-45 -167l-5 -52zM38 572l19 19l-6 8v13l9 19l22 48l5 3l8 3l23 -2l3 8l-22 -1l7 35l10 14l7 14l14 10l24 9v7l-10 -3l-7 8l6 23l11 27l7 8l13 11l41 53l33 15l15 18l-13 6l27 44l10 11l20 15l37 42l18 9l9 20l16 20l68 62l95 66l18 18l34 14l46 39l22 12l17 3l25 -4
l19 -8l-3 -16l-9 -8l-13 -12l-25 -10l-10 -11l-10 -22l26 5l33 7l28 -1l37 -1l22 -10l21 -6l33 -33l42 -40l30 -58l21 -62l17 -38v-2l-4 -21l1 -23l-7 -15l2 -33l-8 -30l-1 -35l-15 -41l-10 -20l4 -26l-4 -9l-17 -1l-5 -4l-3 -3l-1 -40l-3 -16l-7 -12l-12 -17l-8 -44
l-13 -18l-22 -45l-18 -21l-25 -21l-6 -21l-7 -15l-33 -14l-6 -28l-46 -53l-16 -26l-31 -33l-31 -37l-18 -15l-16 -10l-4 -2l-27 -3l-2 -1l-21 -22l-20 -21l-29 -16l-26 -10l-78 -33l-37 -7l-23 1l-14 -14l-12 -3l-7 1l-32 13l-19 3l-17 -8l-4 -1l-38 16l-46 30l-118 130
l-12 24l-6 87v15l2 34l11 47l16 28v20l3 12z" />
    <glyph glyph-name="one" unicode="1" horiz-adv-x="456" 
d="M360 1073l8 22l-22 -1l-25 6l-11 11l-6 28l6 26l7 10l24 12l55 41l39 20l22 29l27 7l37 15l17 4l11 -3l23 -17l39 -37l6 -9l3 -14l-2 -12l-33 -41l-33 -36l-37 -69l-31 -54l-30 -38l-43 -89l-41 -41l-18 -54l-18 -40l-19 -57l-21 -26l-22 -49l-4 -23l-16 -24l-5 -19
l-8 -50l-17 -36l-10 -20l-1 -26l-12 -28l-8 -29l-17 -7l1 -32l-13 -63l-11 -41v0l2 -59l-8 -22l-4 -25l-5 -4l-12 -2l-37 10l-33 37l-26 65l-14 91l1 15l10 38l2 35l12 22l59 156l34 67l12 38l47 93l29 66l33 45l26 71z" />
    <glyph glyph-name="two" unicode="2" horiz-adv-x="955" 
d="M897 1081l-2 23l-21 5l-14 2l-34 18l-50 -1l-51 6l-37 -7l-32 7l-65 -25l-49 -8l-49 -27l-26 -12l-15 -9l-10 -2h-7l-23 6l-28 -17l-2 -1l-9 3l-14 15l-15 56l-1 14l10 30l24 31l29 22l4 2l48 3l37 10l38 -2l41 16h32l66 8l85 -9l87 -9l21 -10l28 -20l17 -17l30 -47
l30 -43l12 -45l-4 -21l-21 -34l-17 -33l-33 -41l-33 -21l-11 -2l-38 -1l-3 -1l-34 -27l-47 -29l-40 -24l-18 -11l-26 -10l-33 -32l-30 -1l-10 -3l-10 -6l-84 -72l-41 -13l-30 -27l-31 -10l-16 -23l-21 -9l-31 -25l-58 -56l-24 -9l-13 -15l-22 -13l-27 -30l-20 -16l-16 -30
l-12 -18l-10 -7l-20 -6v-24l8 -22l6 -6l7 -2l27 3l40 5l18 7l19 5l32 -3l83 19l33 2l47 17h30l33 13h35l45 7l24 2l23 -2l31 -5l72 4l41 -10l20 -7l8 -21l30 -61l-3 -30l-4 -37l-25 -21l-12 -3l-14 3l-15 12l-14 21l-13 -5l-21 5l-28 -3l-25 15l-34 -6l-25 6l-55 -16l-63 -5
l-60 -14l-47 -1l-43 -17l-31 6l-42 -9h-29l-35 -6l-38 -9l-6 1l-27 19l-9 -22l-9 -9l-13 -2l-14 1l-30 5l-33 20l-20 3l-14 29l-22 49l-5 32l10 67l14 41l5 8l26 26l18 32l24 23l12 16l108 98l26 28l33 20l42 32l31 27l43 31l79 54l34 16l22 19l35 9l17 11l35 18l24 16l25 7
l82 45l52 18l34 26l51 22l20 17l58 37z" />
    <glyph glyph-name="three" unicode="3" horiz-adv-x="897" 
d="M500 477l23 4l14 15l32 7l9 16l9 9l13 -10l13 18l44 35l12 15l36 18l17 15l26 40l1 3v1l-4 25l6 27l-20 20l-17 20l-22 12l-20 11l-26 -9l-26 12l-40 -1l-24 1l-17 -6l-28 6l-18 -9l-78 -3l-103 -13h-2l-45 19l-21 11l-13 17l-31 59l-2 14l2 11l14 27l27 -1l51 20l48 9
l55 14l68 27l49 18l25 25l24 2l43 12l32 15l77 35l19 12l-17 6l-46 -8l-19 5l-24 -11l-15 10l-24 -15l-13 7l-18 -5l-24 7l-22 6l-17 -14l-9 -5l-2 -1l-2 1l-20 3h-15l-19 7l-7 1l-34 -8l-50 -11l-56 -1l-44 -13h-7l-11 1l-29 21l-15 10l-16 24l-18 22l-4 19l6 23l18 18l9 3
h2l43 -5l104 -1l20 -17l44 6l19 14l8 -10h77l96 3h4l63 -4l56 6l24 -2l24 1l13 -7l24 4l44 -10l35 -35l18 -35l11 -36v-1l-8 -26l-7 -19l-38 -22l-16 -12l-49 -23l-44 -27l-17 -4l-29 -10l-26 -2l-25 -18h-27l-6 -9l-15 -12l35 -13l62 -20l30 -29l38 -26l13 -22l23 -18l5 -9
l3 -8l6 -42l4 -23l-9 -32l8 -19l4 -19l-9 -27l-4 -32l-18 -20l-16 -32l-19 -17l-18 -32l-29 -20l-30 -41l-32 -6l-25 -33l-69 -14l-12 -21l-45 -20l-44 -34l-16 -3l-12 3l-19 12l-19 -11l-39 -34h-25l-36 -12l-23 -3l-34 -18l-22 12l-13 2l-17 -12l-55 -35l-8 -1h-102
l-20 -8l-32 11l-22 3l-12 21l-13 19l-6 20l-31 75l-3 10l4 15l10 10l10 2h3l23 -4l23 12h19l30 3l26 -9l3 -1l48 5l29 5l19 8l24 14l84 8l116 29l56 18l69 36z" />
    <glyph glyph-name="four" unicode="4" horiz-adv-x="1038" 
d="M159 850l23 4l3 26l7 23l6 6l31 23l57 55l24 2l10 21l14 14l10 3l20 -5l4 8l-4 23l23 25l23 25l19 12l29 31l32 18l42 51l25 10l23 12l6 8l5 50l31 -11l5 6h7l10 -22l1 -6l-5 -18l-5 -7l-20 -6l-9 -22l-13 -50l-43 -38l-11 -27l-12 -25l-18 1l-9 -15l-6 -22l-3 -20
l-32 -5l-1 -2l-5 -12l-5 -20l-21 -9l-14 -36l-17 -12l-21 -25l-29 -20l-53 -77l-16 -19l-6 -23l21 -6l75 -17l47 -20l94 -12l14 1l32 1l10 19l34 58l14 19l21 26l3 23l4 11l4 4l20 7l17 27l-3 18l16 19l22 47l14 23l10 37l15 18l11 17l34 24l6 41l11 10l4 22l5 9l9 7l17 7
l7 10l9 4l-6 32l14 42l11 40l21 26l21 -8l30 -27l21 -64v-44l-10 -19l-28 -43l-26 -64l-19 -12l-4 -21l-19 -53l-14 -26l-16 -17l-14 -43l-33 -9l-6 -28l-3 -22l-9 -12l-8 -19l-19 -10l-7 -7l-1 -3l-5 -34l-13 -29l2 -21l26 2l19 2l32 19l57 19l22 7l17 -13l29 -8l26 -20
l34 -18l5 -10l2 -10l-2 -12l-9 -12l-10 -7l-27 -11l-21 -14l-84 -25l-41 -23l-26 13l-22 -11l-15 -4h-25l-25 -6l-23 4l-21 -30l-28 -65l-18 -31l-4 -34l-11 -23l-7 -28l-8 -20l-15 5l-3 -42l-11 -6v-23l-16 -44l-2 -35l-8 -27l4 -69l-6 -37l-4 -12l-1 -2l-17 -7l-1 -12
l-3 -4l-3 -2h-3h-2l-20 12l-35 17l-32 41l-58 59l-7 17l-2 15l8 28l15 23l7 26l17 31l11 26l11 12l17 12l-8 21v2l7 29l17 35l47 63l12 48l19 54l-3 9l-5 5l-11 3l-20 -3l-29 -2l-14 1l-8 3l-37 25l-39 1l-21 8l-14 14l-77 -15l-10 15l-20 -6l-35 -5l-14 2l-26 14l-31 18
l-23 24l-13 40l4 18l6 8l23 12z" />
    <glyph glyph-name="five" unicode="5" horiz-adv-x="879" 
d="M-136 265l1 19l25 2l55 -29l17 -1l25 -6l20 9l34 -8l24 9l20 -4l22 14l18 -5l31 8l36 2l24 13l38 7l52 26l21 4l10 17l31 16l21 20l45 31l72 49l26 22l24 7l29 31l20 8l8 23l16 16l28 46l19 34l5 21l8 13l6 34l7 36l-3 19l-5 31l-9 11l-20 15l-71 15l-54 -5l-26 -10
l-24 -5l-20 -11l-34 1l-18 -11l-22 -7l-7 15l-17 -14l-30 -17l-28 -23l-27 -8l-62 -43l-23 -5l-12 2l-31 29l-41 52l-12 38l2 15l15 18h17l3 23l21 4l16 14l10 6l29 57l25 20l22 27l15 17l16 35l37 43l10 49l21 14l6 32l23 22l21 33l14 9l8 2l4 -1l9 -15l10 -23l-3 -9l22 -3
l33 16l21 4l8 18l46 1l53 14l56 22h3l23 -13l21 5l51 18l43 8l17 11l73 19l23 13l23 -7l17 12l16 5l15 -4l10 -7l4 -6l4 -63l4 -48v-3l-5 -19l-12 -12l-13 -4h-2l-35 10l-32 -13l-53 -17l-76 -21h-33l-37 -14l-38 -2l-102 -40l-37 -7l-27 -9h-23l-35 -11l-40 6l-27 -20
l-23 -7l-21 -26l-22 5l2 -21l-3 -17l-13 -19l-16 -16l-2 -12v-2v-15l23 3l14 1l16 14l23 -1l24 -3h4l18 19l20 -5l19 -4l102 2l19 -8l36 -8l23 -17l29 -8l30 -20l23 -32l23 -41l20 -84l18 -60l2 -25l-5 -38l-14 -26l-18 -19l-2 -23l-2 -19l-44 -59l-16 -37l-7 -7l-4 -2
l-30 3l-15 -33l-13 -29l-25 -9l-21 -34l-27 -6l-6 -3l-16 -20l-12 -17h-7l-11 12l-26 -13l-18 -20l-15 -11l-14 -4l-20 2l-39 -37l-14 -3l-24 4l-13 -20l-27 -10l-36 -30l-8 -4h-3h-2l-17 13l-33 -23h-22l-21 -13l-29 12l-27 -15l-39 7l-28 -4l-18 7h-15l-11 10l-24 -6l-3 2
l-30 31l-33 41l-34 55l-3 15z" />
    <glyph glyph-name="six" unicode="6" horiz-adv-x="915" 
d="M332 303l17 16l27 1l21 24l20 7l43 30l21 24l65 51l28 34l18 12l19 7l9 6l3 6l4 18l22 18l21 27l17 18l9 18l18 15l2 19l12 17l8 17l-2 8l-5 5l-9 4l-22 6l-21 -7l-21 8l-26 -6l-26 3l-26 -12l-18 -3l-19 -10l-21 7l-24 -15l-20 6l-16 -16l-12 -6l-7 -1l-41 1l-44 -38
l-33 -7l-25 -23l-13 -16l-19 9l-3 1l-8 -2l-4 -3l-37 -47l-25 -15l-13 -17l-12 -18l-14 6l-11 -23l-18 -36l-28 -69l-11 -20l-5 -25l-10 -22l-1 -7l6 -20l21 -20l12 -4h3l74 10l44 -3l31 9l26 16l33 14zM126 719l19 8l11 22l20 41l42 48l14 24l12 12l15 7l21 5l-1 32l6 16
l7 7l34 25l45 43l22 17l26 32l35 28l14 25l37 24l22 26l50 30l10 20l62 18l7 18l14 10l17 18l59 26l54 35l25 4l23 6l22 -11l18 -18l23 -30l4 -23l-5 -21l-15 -15l-8 -4l-60 -4l-13 -7l-11 -6l-32 -33l-9 -4l-4 -1l-30 1l-23 -32l-38 -23l-29 -38l-34 -14l-20 -22l-27 -9
l-18 -26l-27 -17l-12 -16l-20 -21l-16 -46l-28 -14l-21 -43l-31 -22l-21 -32l-10 -3l-5 1l-20 12v-35l-14 -13l-8 -19l-15 -21l33 1l19 21l43 22l98 22l41 18l45 4l52 7l23 3l8 -12l48 6l6 -13l11 5l31 -14l11 -13l60 -80l17 -54l5 -35l-1 -9l-11 -30l-3 -28l-6 -12l-6 -5
l-21 -4l-10 -20l-10 -20l-10 -10l-16 -21l-29 -15l-26 -46l-39 -43l-45 -40l-35 -31l-18 -6l-21 -7l4 -13l-1 -4l-15 -15l-10 -5l-27 1l-6 -15l-22 -9l-60 -31l-18 -12l-23 -3l-49 -14l-7 -1l-15 2l-24 9l-32 -9l-25 10l-38 6l-24 13l-17 5l-26 12l-13 18l-27 16l-20 22
l-24 29l-4 9l-8 36l-19 27l-5 38l-7 32v5l11 52l35 69l3 26l8 20l35 47l21 29l15 13l7 20l8 17z" />
    <glyph glyph-name="seven" unicode="7" horiz-adv-x="842" 
d="M251 607l13 23l20 10l16 11l3 5l15 27l26 27l92 103l87 80l47 43l44 29l15 28l59 37l50 44l50 27l32 39l45 39v2l-2 3l-3 2l-24 6l-21 9l-40 2l-17 -1l-30 -16l-48 17l-35 -16l-31 12l-35 -11l-47 -3l-23 -8l-37 -2l-36 -15l-59 2l-86 -20h-26l-24 -3l-49 4l-19 4l-3 9
l-10 8l-3 9l-22 63v5l5 34l7 20l18 18l26 7l13 -1l23 -6l29 -6l71 -29l34 5l35 -3l66 7l22 1l11 8l27 -3l34 -2l56 6l5 4l7 12l40 -5l105 -1l85 -11l21 4l21 -7l43 -26l29 -40l8 -27l1 -37l2 -29l-8 -26l-6 -19l-8 -11l-11 -9l-29 -18l-17 -25l-22 -9l-65 -67l-44 -21
l-40 -44l-26 -2l-22 -41l-30 -10l-37 -46l-23 -12l-28 -26l-32 -41l-72 -73l-20 -34l-21 -2l-17 -43l-25 -8l-25 -46l-57 -88l-45 -96l-22 -21l-8 -14l-2 -17v-9l9 -48v-10l-3 -19l-7 -6l-9 -3l-6 2l-5 3l-23 27l-31 27l-24 34l-9 44l1 5l5 36l3 35l29 50l3 30l24 36l36 49
l32 41z" />
    <glyph glyph-name="eight" unicode="8" horiz-adv-x="888" 
d="M292 268l27 20l21 3l31 20l38 15l15 15l46 33l22 30l51 32l31 30l21 9l-2 23l4 15l4 6l33 33l14 21l9 10l14 33l15 27l7 45l6 26l-1 31l-6 45l-10 17l-12 23l-18 18l-21 23h-4h-3l-7 -6l-21 -24l-19 -4l-24 -17l-23 -11l-24 -25l-30 -11l-34 -31l-27 -22l-46 -44l-24 -9
l-17 -19l-24 -17l-41 -50l-28 -22l-12 -31l-28 -6l-10 -21l-21 -30l-11 -33l-21 -15l-20 -45l-18 -19l-2 -26l-21 -53l-3 -21l5 -25l13 -13l13 -4l24 1h26l53 23zM-26 365l9 15l-3 21v3l6 38l18 39l24 36l14 28l52 58l11 23l16 17l3 16l22 9l27 40l23 6l22 35l166 133l41 28
l37 16l18 19l15 12l-10 17l-55 6l-36 8l-61 9l-36 12l-15 1l-20 8l-13 24l-22 15l-9 12l-11 48l4 32l7 11l34 30l59 40l51 23l23 18l23 4l45 20l30 6l52 25l75 -5l49 28l23 -4l41 9l53 1l29 3l16 -8l31 -3l21 -9l18 -5l33 -17l21 -26l6 -29l-5 -25l-12 -21l-17 -13l-21 -9
l-11 7l-6 24l-21 22l-16 22l-49 -6l-15 16l-19 -11l-24 5l-36 -13l-38 2l-57 -37l-40 12l-27 -15l-37 -17l-26 -22l-16 13l-15 -17l-10 -20l-4 -3h-4l-5 1l-12 13l-19 -11l-31 -16l-7 -9l-12 -22l24 -6l57 -15l30 -23l58 -19l58 -34l26 -5l28 6l20 14l19 19l59 24l50 33
l57 16l39 25l27 10l17 16l5 2l8 1l28 -5l33 -12l6 -5l24 -37l23 -30l3 -16l-4 -14l-12 -12l-16 -5h-4l-24 7l-14 -18l-44 -1l-43 -28l-23 -7l-22 -16l-19 -6l-20 -15l-28 1l-20 -14l-32 -22l-14 -16l12 -26l23 -27l-3 -25l17 -13l11 -12l1 -5l5 -31l18 -41l-3 -19l7 -54
l-13 -35l-3 -40l-7 -21v-30l-15 -14l-17 -48l-43 -58l-12 -32l-17 -10l-10 -27l-18 -3l-21 3l-9 -12l-6 -30l-7 -11l-22 2l-9 -21l-9 -18l-8 -10l-23 1l-6 -20l-5 -14l-3 -2l-33 -2l-15 -11l-16 -5l-22 -28l-36 -16l-51 -38l-36 2l-54 -13l-18 1l-25 1l-19 10l-21 1l-44 21
l-21 15l-31 22l-11 21l-14 13l-37 57l-9 17l-9 27l-1 21l-8 35v3z" />
    <glyph glyph-name="nine" unicode="9" horiz-adv-x="854" 
d="M173 946l26 16l9 24l8 14l34 27l12 19l13 9l12 13l19 5l65 65l35 18l25 23l20 12l24 33l74 47l69 49l53 23l21 19l103 36l42 12h2l24 -10l22 -14l3 -5l2 -10l-11 -56l-4 -7l-14 -15l-16 -4h-6l-4 2l-24 17l-36 -10l-28 -3l-30 -19l-26 -16l-33 -21l-32 -24l-32 -15
l-19 -24l-20 -8l-16 -10l-24 -20l-10 -20l-25 -3l-13 -32l-21 -20l-17 -16l-9 -5h-28l-3 -19l-4 -10l-12 -12l-28 -21l-11 -19l-15 -13l-14 -31l-21 -15l-29 -39l-36 -37l-21 -45l-5 -22l22 3l22 10l19 16l29 15l13 17l24 6l143 106l23 10l6 18l9 9l21 3l32 33l22 17l22 22
l15 8l16 19l34 23l7 19l20 5l14 18l14 17h22l10 5l8 9l7 20l19 7l6 7l13 6l13 13l35 29l34 41l40 31l35 36l35 21l29 21l12 2l34 -10l27 -28l14 -55l-4 -36l-6 -11l-39 -51l-18 -31l-57 -46l-11 -44l-23 -20l-30 -53l-17 -16l-24 -39l-44 -45l-22 -31l-17 -19l-3 -31l-8 -22
l-13 -16l-23 -13l-21 -6l1 -30l-21 -42l-32 -63l-52 -72l-10 -37l-6 -24l-22 -10l-8 -9l-8 -18l-8 -33l-33 -81l-13 -43l-19 -58v-2l7 -42l4 -36l10 -21l15 -21l-3 -8l-24 -8l-27 -13l-18 5l-57 17l-25 15l-28 40l-13 60l3 18l23 76l9 35l15 19l22 59l29 38l18 13l1 44
l17 22l8 24l28 39l6 25l25 26l14 23l9 12l17 18l2 31l19 7l16 25l-3 16l10 10l25 10l6 20l14 24l16 14l30 38l9 24l74 93l22 36l-17 -17l-30 -20l-38 -33l-20 -28l-12 2l-6 -2l-5 -5l-20 -25l-19 -15l-20 -33l-37 -25l-14 -17l-13 -11l-28 -12l-24 -7l-8 -18l-9 -11l-29 -9
l-21 -28l-36 -2l-11 -19l-12 -17l-13 -11l-20 -15l-31 1l-13 -5l-9 -8l-31 -46l-5 -4l-11 -3h-3l-21 7l-19 -22l-4 -1l-4 1l-31 15l-57 38l-18 14l-23 34l-10 16l6 50l1 18l6 16l73 94z" />
    <glyph glyph-name="colon" unicode=":" horiz-adv-x="488" 
d="M160 562l-13 20l17 40l11 31l2 2l26 20l21 19l12 3l6 -2l20 -13l29 -17l6 -5l17 -32l9 -16l23 -21l4 -5l1 -10l-11 -33l-59 -69l-24 -7l-28 9l-31 28zM92 182l-10 16l14 42l12 33l3 3l27 19l17 17l8 3l4 1l29 -16l26 -15l30 -47l26 -26l4 -10l2 -8l-13 -33l-39 -52
l-19 -16l-23 -7l-19 5l-23 16l-20 18z" />
    <glyph glyph-name="semicolon" unicode=";" horiz-adv-x="508" 
d="M225 675l17 17l17 6l54 -34l13 -19l17 -31l25 -25l4 -15l-14 -39l-57 -62l-22 -6l-26 8l-46 43l-28 47l-9 16l-1 4l6 18l10 18l8 27l7 11l5 4zM101 -13l-19 12l12 32l43 53l6 20l-14 15l-18 38l-8 47l1 8l10 15l16 25l38 48l22 13l19 3l21 -5l46 -51l27 -40l1 -6l-2 -9
l-19 -30l-22 -58l-67 -91l-40 -41l-9 -5l-15 -5l-7 1z" />
    <glyph glyph-name="less" unicode="&#x3c;" horiz-adv-x="900" 
d="M-159 -533l-6 -24l12 -2l10 22l23 9l7 21l14 7l6 14l30 16l11 24h20l11 32l13 13l15 28l20 13l5 28l18 19l8 18l14 17l-6 24l14 18l16 23l9 24l30 62l3 33l15 28v50l-12 28l-21 48l-10 9l-21 12l-6 2l-11 -4l-19 -15l-1 -36l-1 -4l-6 -7l-19 -12l1 -21l2 -26l-30 -62
l-9 -36l-8 -9l-6 -3h-18l1 -33l-8 -48l-3 -23l-21 -24l-7 -23l-11 -18l-5 -27l-11 -20l-15 -41l-5 -23l-27 -79zM756 1035h4l19 -7l24 -16l16 -20l6 -19v-6l-5 -27l-6 -37l-3 -3l-22 -17l-14 -7l-9 -1l-40 15l-21 20l-11 52l1 4l7 40l8 11l25 10zM150 279l3 -7l6 15l14 1
l25 19l23 30l45 27l27 27l23 19l24 27l32 28l33 40l24 18l21 27l10 14l22 13l20 20l35 24l32 16l10 1l29 -8l33 -28l21 -24l9 -33l-8 -46l-20 -56l-15 -47l-13 -13l-9 -20l-11 -13l4 -29l-12 -19l-1 -45l-11 -13l3 -7l16 5h29l13 16l22 10l14 12l48 22l154 118l16 -4l5 -6
l2 -10l-6 -27l-15 -30l-14 -32l-18 -19l-12 -17l-16 -10l-22 -20l-26 -18l-51 -46l-27 -15l-12 -16l-27 -7l-13 -13l-14 -11l-18 -6l-23 -2l-21 -19l-24 -1l-17 -4h-2l-24 10l-13 9l-21 18l-3 9l-2 42l-9 32l-4 29l3 20l13 48l6 32l8 9l14 45l15 22l5 25l18 35l-5 9l-9 2
l-22 -13l-23 -24l-24 -4l-2 -8l-23 -33l-24 -28l-30 -25l-21 -19l-5 -13l-16 -10l-18 -15l-15 2l-10 -4l-8 -27l-4 -3l-28 -10l-22 -8l-12 -25l-22 -12l-8 -15l-11 -3l-4 3l-6 -8l-5 -14l2 -30l4 -7l18 -7l17 -26l14 -12l43 -78l11 -33l3 -27l-5 -43l-8 -18l-13 -17l1 -45
l-14 1l-10 -7l-3 -34l-17 -15l-8 -33l-8 -13l-19 -16l-22 -14l1 -25l-5 -13l-5 -7l-13 -9l-28 -34l-12 -8l-9 -19l-40 -37l-14 -21l-9 -2l-14 -22l-44 -37l-38 -43l-15 5l-9 -20l-15 -12l-13 -15l-15 -9l-28 -27l-26 -11l-12 -14l-17 -16l-19 8l-19 24l-10 13l-1 29l-13 20
l-3 21v28l45 121l13 50l5 10l2 2l11 7l1 25l10 38l8 28l12 11l4 24l28 75l8 30l17 21l7 27l16 51l30 58l27 72l26 28l1 15l-18 11l-21 18l-1 5l1 3l1 2l40 21l22 12l4 20l31 43l6 39l10 15l12 32l20 25l1 23l-13 -5l-23 -30l-11 -1l-17 -15l-30 -39l-21 -7l-22 -26l-7 -4
l-9 -1l-12 3l-10 10l-2 8l4 34l7 43l23 24l23 23l71 57l14 16l23 23l16 24l18 12l10 18l62 58l12 17l34 74l21 30l29 105l25 56l6 26l24 60l16 48l13 23l11 29l14 17l6 29l11 15l20 63l28 41l18 35l25 21l18 4l19 -5l20 -22l14 -44l5 -56l2 -28v-3l-16 -91l-10 -37l-3 -3
l-21 -8l-4 -3l-2 -4l-1 -4l2 -5l16 -6l-9 -24l-12 -21l-13 -14l4 -11l-1 -11l-13 -22l-30 -43l-25 -52l-45 -54l-20 -48l-33 -34l-5 -27l-13 -22l-19 -51l-14 -18l-19 -54l-10 -26l-19 -7l-5 -6l2 -33l-17 -31l-11 -40l-27 -24l-8 -35z" />
    <glyph glyph-name="equal" unicode="=" horiz-adv-x="259" 
d="M-196 484l4 16l18 12l17 24l12 30l23 26l12 22l31 29l59 79l15 16l15 6l-2 24l19 17l29 39l42 46l8 17l2 1l16 1l25 36l8 21l34 44l42 39l20 13l8 30l50 49l68 69l24 17l14 16l13 20l74 92l35 17l64 35l9 1l17 -4l14 -15l8 -31l-5 -34l-17 -51l-18 -30l-20 -44l-24 -6
l-22 -12l-33 -19l-70 -72l-61 -57l-35 -43l-67 -52l-45 -57l-18 -15l-17 -30l-25 -12l-16 -14l-16 -22l-12 -28l-8 -19h-20l-5 -32l-17 -11l-6 -31l-19 -4l-10 -6l-4 -6l-19 -33l-26 -27l-22 -34l-22 -21l-11 -18l-22 -12v-22l-5 -23l-7 -14l-29 -34l-54 -86l-15 -24
l-16 -29l-13 -45l-9 -27l3 -28l-2 -25l22 -77v-26l-10 -48l-28 -23l-24 -7l-28 4l-41 10l-19 13l-6 8l-11 30l-13 26l-5 28l-1 25l1 9l7 29l2 21l28 62l9 25l32 57l31 64l52 65l17 33z" />
    <glyph glyph-name="greater" unicode="&#x3e;" horiz-adv-x="866" 
d="M617 643l-30 -68l16 5l13 18l24 19l8 20l17 16l16 17l7 6l3 1l15 -1l7 40l73 70l13 24l13 5l8 17l10 11l4 24l27 29l11 23l17 15l8 19l16 2l8 35l32 55l18 44l15 17l1 24l7 24l-6 24l-30 -16l-8 -32l-24 -9l-18 -41l-17 -15l-12 -24l-31 -25l-56 -85l-23 -26l-3 -1l-13 2
l6 -26l-17 -16l-5 -11l-17 -22l-8 -25l-14 -23l-20 -5l-3 -27zM-159 -533l-6 -24l12 -2l10 22l23 9l7 21l14 7l6 14l30 16l11 24h20l11 32l13 13l15 28l20 13l5 28l18 19l8 18l14 17l-6 24l14 18l16 23l9 24l30 62l3 33l15 28v50l-12 28l-21 48l-10 9l-21 12l-6 2l-11 -4
l-19 -15l-1 -36l-1 -4l-6 -7l-19 -12l1 -21l2 -26l-30 -62l-9 -36l-8 -9l-6 -3h-18l1 -33l-8 -48l-3 -23l-21 -24l-7 -23l-11 -18l-5 -27l-11 -20l-15 -41l-5 -23l-27 -79zM420 441l8 7l2 7l-3 18l-1 5l2 12l4 10l22 34l42 122l16 34l29 46l8 17l18 13l-4 19l14 30l21 32
l27 53l17 11l16 29l17 15l10 20l12 19l20 3l9 20l7 30l11 15l8 17l23 28l26 40l43 40l7 21l10 19l9 8l20 11l12 9l13 4l4 22l13 18l34 24l38 8l47 -13l41 -41l12 -39v-2l-1 -2l-17 -29l-17 -51l-14 -11l-3 -35l-18 -16l-4 -14l1 -24l-16 -22l-19 -40l-10 -18h-13l-2 -22
l-21 -32l-9 -24l-25 -36l-18 -29l-12 -13l-9 -26l-35 -27l-41 -56l-44 -42l-9 -45l-37 -17l-12 -19l-22 -25l-16 -20l-14 -9l-21 -18l-4 -7l-18 -21l-25 -25l-42 -38l-3 -27l-8 -16l2 -28l-13 -61l6 -23l1 -2l-1 -22l6 -32l12 -20l5 -4h22l6 -7l63 37l20 -8l10 12l-2 17
l5 10l20 7l14 11l19 2l7 10l3 24l29 12l20 39l24 5l22 34l13 17l7 4l16 6l10 6l7 9l5 24l15 10l15 10l3 1l14 -10l-2 -33l8 -29l-18 -28l-3 -38l-20 -11l-11 -17l-19 -10l-22 -29l-23 -7l-15 -31l-25 -15l-12 -19l-11 -18l-13 1l-15 -15l-15 -9l-14 -16l-25 -9l-9 -14
l-20 -6l-13 -11l-27 1l-11 -12l-21 -1l-15 -4l-5 8l-18 1l-22 9l-22 -8l-24 17l-13 11l-16 26l-11 16l-4 34l-22 39l2 52l17 2l-14 26l1 8l1 8l-8 -4l-50 -38l-28 -25l-19 1l-17 -22l-23 -9l-82 -65l-17 -3l-18 -27l2 -10l4 -7l18 -7l17 -26l14 -12l43 -78l11 -33l3 -27
l-5 -43l-8 -18l-13 -17l1 -45l-14 1l-10 -7l-3 -34l-17 -15l-8 -33l-8 -13l-19 -16l-22 -14l1 -25l-5 -13l-5 -7l-13 -9l-28 -34l-12 -8l-9 -19l-40 -37l-14 -21l-9 -2l-14 -22l-44 -37l-38 -43l-15 5l-9 -20l-15 -12l-13 -15l-15 -9l-28 -27l-26 -11l-12 -14l-17 -16l-19 8
l-19 24l-10 13l-1 29l-13 20l-3 21v28l45 121l13 50l5 10l2 2l11 7l1 25l10 38l8 28l12 11l4 24l28 75l8 30l17 21l7 27l16 51l30 58l27 72l26 28l1 15l-18 11l-21 18l-1 5l1 3l1 2l40 21l22 12l4 20l31 43l6 39l10 15l12 32l20 25l1 23l-13 -5l-23 -30l-11 -1l-17 -15
l-30 -39l-21 -7l-22 -26l-7 -4l-9 -1l-12 3l-10 10l-2 8l4 34l7 43l23 24l23 23l71 57l14 16l23 23l16 24l18 12l10 18l62 58l12 17l34 74l21 30l29 105l25 56l6 26l24 60l16 48l13 23l11 29l14 17l6 29l11 15l20 63l28 41l18 35l25 21l18 4l19 -5l20 -22l14 -44l5 -56
l2 -28v-3l-16 -91l-10 -37l-3 -3l-21 -8l-4 -3l-2 -4l-1 -4l2 -5l16 -6l-9 -24l-12 -21l-13 -14l4 -11l-1 -11l-13 -22l-30 -43l-25 -52l-45 -54l-20 -48l-33 -34l-5 -27l-13 -22l-19 -51l-14 -18l-19 -54l-10 -26l-19 -7l-5 -6l2 -33l-17 -31l-11 -40l-24 -24l-6 -35
l-4 -21h5l4 7h26l11 14l18 10l10 11l13 3l18 16l16 -8l11 5l-1 20l2 3l22 17l32 21l23 12l27 22l24 10z" />
    <glyph glyph-name="question" unicode="?" horiz-adv-x="1223" 
d="M441 114l-17 -15l-22 3l-40 7l-2 3l-18 29l-14 17l-4 20l-11 27l-1 5l2 10l5 8l15 17l10 21l21 22l33 34l10 7l14 3l16 -4l30 -21l24 -31l10 -24l15 -34l-14 -21l-20 -39zM313 626l28 57l21 18l21 14l39 33l19 5l22 17l59 35l30 19l126 56l75 38l55 21l25 19l25 1l41 28
l22 -3h2l51 19l40 17l23 15l33 11l31 10l33 20l45 9l37 20l48 31l10 33l-28 25l-11 13l-6 4h-27l-22 -1h-4l-34 11l-29 -9l-17 -2l-12 2l-45 13l-34 -13l-62 -1l-45 -19l-31 5l-31 -12l-101 -11l-49 -15l-40 11l-33 -19l-30 -8l-31 -27l-21 -5l-12 -36l-12 -16l-22 -14
l-17 -4l-23 4l-21 6l-14 10l-8 13l-3 14l11 53l8 32l9 16l31 19l88 25l29 -7l10 16l27 1l32 9l15 -4l27 5l22 -4l16 13l25 11l13 -10l22 9l36 7l40 12l44 2l30 1l13 1l21 -4l11 -10l35 8l39 -5l26 3l33 -5l23 3h29l10 -12l22 2l22 -10l28 6l15 -13l15 -3l17 -7l28 -3l18 -14
l38 -46l8 -27l2 -21l13 -1l1 -51l-9 -41l-7 -14l-3 -4l-18 -15l-21 -27l-11 -8l-6 -2l-32 -5l-65 -50l-10 -1l-16 3l-25 11l-13 -16l-18 -18l-11 -6l-28 -10l-34 -31l-33 -1l-35 -17l-41 -6l-29 -17l-35 -12l-31 5l-19 -22l-32 -21l-32 -25l-19 -8l-9 -2h-39l-27 -25
l-23 -13l-33 -25l-23 2l-50 -30l-21 -5l-23 -14l-25 -11l-22 -28l-15 -20l-3 -5l-3 -23l2 -54l-5 -46l-18 -20l-20 -14l-26 19l-21 71l-25 24l-19 29l-19 32l-1 6z" />
    <glyph glyph-name="at" unicode="@" horiz-adv-x="687" 
d="M20 415l4 20l23 28l10 23l54 61l18 19l85 69l19 17h32l23 14l17 5l107 13l4 -1l3 -1l29 -17l17 -5l18 -11l21 -34l4 -18l-5 -20l-17 -16l-27 -7l-24 5l-32 9l-9 -1l-16 -8l-21 -15l-60 -21l-16 -18l-35 -15l-22 -42l-10 -8l-9 -8l-5 -10l-20 -9l-11 -53l-13 -18l-10 -15
l-7 -27l-12 -19l-3 -26l-3 -25l-6 -9l6 -21l-1 -35l2 -8l7 -8l42 -9l63 12l13 6l42 33l29 13l13 20l12 18l14 -1l-3 19l21 18l13 13l2 29l17 11l-1 18l11 22l9 22l-18 36l-18 10l-7 10l-3 13l10 33l36 35l60 16l24 -5l16 -15l13 -20l12 -25l8 -57l13 -42l5 -16l15 -9l20 -8
l15 19l24 16l42 49l15 11l32 30l40 27l33 35l12 8l7 1l7 -2l5 -4l3 -5l1 -23l3 -24l-12 -23l-8 -17l-14 -16l-8 -21l-17 -6l-20 -15l-8 4l-10 -18h-12l-21 -39l-30 -20l-18 -10l-24 -28l-18 7l-20 -21l-12 -7l-3 -1l-4 1l-23 25l-20 16l-3 31l-20 -1l-11 -16l-7 -19l-9 -20
l-17 -6l-11 -22l-16 -17l-6 -13l-7 -10l-18 -13l-11 -8l-2 -3l-1 -8l-9 -7h-18l-24 -29l-12 -13l-16 9l-14 -27h-8l-1 -9l-9 -3l-10 8l-14 -20h-23l-22 -11l-48 -3l-21 -7l-23 5l-31 8l-21 19l-44 28l-28 29l-24 35l-16 55l-1 20l1 6l27 88l1 30z" />
    <glyph glyph-name="A" unicode="A" horiz-adv-x="1216" 
d="M154 325l13 10l-12 27l6 15l7 13l8 4l14 -13l5 1l-7 14l-16 11l-5 26l7 28l15 59l14 26l26 34l12 62l21 48l40 60l11 29l25 32l16 40l37 41l7 19l30 41l49 67l23 18l8 19l25 22l16 21l20 13l17 22l42 31l17 16l25 13l8 18l36 34l24 22l37 20l9 20l26 11l20 19l32 9l23 19
l23 14l61 27l69 12l40 -6l33 -12l10 -15l19 -31l4 -28l-2 -23l-13 -87l-2 -23l-12 -28l-10 -43l-13 -19l-15 -10l-16 -3l-22 6l-17 17l-8 32l3 21l4 6l40 37l19 27l13 58l-1 10l-2 3l-13 9l-21 -4l-20 4l-35 -18l-38 -14l-29 -27l-52 -32l-25 -21l-16 -16l-28 -5l-11 -23
l-29 -17l-13 -24l-14 -9l-26 -28l-20 -16l-11 -1l-9 -22l-14 -18l-37 -20l2 -23l-3 -9l-3 -4l-43 -39l-7 -28l-16 -21l-21 -34l-16 -17l-11 -32l-22 -16l-13 -30l-22 -13l-2 -11l4 -23v-2l-1 -4l-9 -10l-18 -12l-10 -26l-8 -13l-26 -26l3 -22l-19 -47l-23 -37l-20 -12l4 -32
l-14 -40l4 -20l-15 -12l1 -23l-18 -72l11 -35l-9 -19l4 -22l11 -47l6 -6l16 -2l21 2l20 5l21 17l59 45l15 19l13 6l17 11l11 20l47 54l43 61l16 12l16 36l18 16l23 24l14 24l32 35l20 27l15 24l20 15l12 23l25 11l-2 29l4 7l8 8l19 10l3 29l35 24l18 46l41 50l1 24l25 18v21
l19 21l4 11l16 15l5 20l31 46l26 28l12 5l10 1l30 -9l30 -14l15 -23l7 -21l-1 -4l-22 -58l-9 -49l-12 -32l-14 -32l5 -22l-16 -33l-10 -51l-5 -10l-4 -4l-20 -7l-7 -24l-2 -64l-15 -22l-24 -41l-13 -63l-15 -21l3 -19l-15 -40l4 -29l-9 -24l3 -47l-7 -23v-10l4 -5l20 9
l24 14l56 50l59 36l17 17l67 57l23 17l18 17l10 2l9 -2l4 -3l3 -5l-9 -54l-7 -44l-15 -19l-14 -14l-18 -8l-15 -22l-27 -9l-9 -13l-20 -10l-20 -32l-26 -6l-41 -34l-23 -15l-62 -11l-24 -3l-12 4l-8 15h-21l-10 15l-16 10l-13 23l-16 22l-12 57l-4 22l2 27l5 45l10 36l2 38
l28 108l2 40l-11 -21l-30 -40l-35 -32l-11 -18l9 -13l-14 -21l-25 -33l-13 -26l-27 -3l-6 -5l3 -25l-26 -25l-6 -14l-11 -8l2 -20l-16 -15l-12 -27l-5 -7l-4 -3l-22 -1l1 -34l-21 -15l-33 -48l-52 -53l-15 -18l-20 -14l-21 -24l-20 -6l-18 -12l-47 -8l-30 -12h-5l-30 9
l-39 20l-23 5l-14 20l-35 29l-10 16l-22 58l-11 62l1 14l8 24l-3 6l-7 10l-1 3l1 4z" />
    <glyph glyph-name="B" unicode="B" horiz-adv-x="1197" 
d="M189 1213l26 -2l23 16l48 16l23 4l42 10l44 1l41 12h10h7l23 -7l15 17l34 9l72 12l29 -1l46 7l82 -1l107 2l68 -10l46 -6l20 -7l21 -4l19 -13l68 -44l27 -30l12 -49l-8 -37l-35 -50l-84 -63l-96 -55l-71 -26l-34 -20l33 -11l38 -6l66 -21l104 -39l54 -32l28 -18l11 -23
l18 -2l7 -5l5 -8l11 -30l19 -23l8 -29l8 -26v-21l-7 -48l-3 -19l-12 -13l-17 -35l-55 -63l-9 -5l-20 -7l-20 -21l-40 -26l-19 -21l-20 2l-15 -16l-20 -18l-28 -9l-22 -4l-3 -11l-18 -13l-16 -1l-36 -26l-34 2l-5 -2l-18 -15l-13 -11l-37 4l-17 -17h-19l-43 -24l-18 -6
l-14 -8l-30 -6l-34 -14l-27 5l-21 -11l-18 -8l-116 -22l-54 -14l-18 -1l-21 4l-16 13l-15 -4l-20 -15l-17 3l-24 -4l-27 20l-22 -5h-2l-13 3l-9 6l-12 27l-13 -5l-6 2l-7 8l-10 36l2 12l19 28l35 32l126 89l54 32l74 36l72 39l33 2l1 1l8 20l31 7l126 66l93 34l42 20l26 6
l31 11l9 1l29 -8l30 -31l8 -24l-2 -12l-18 -34l-12 -16l-30 -7l-11 10l-30 -1l-21 -1l-10 1l-14 6l-25 -8l-26 -3l-26 -14l-107 -35l-89 -41l-41 -11l-50 -34l-127 -73l-18 -16l-7 -11l-1 -5l1 -4l4 -5l21 -5l89 -6h33l34 3l35 15l79 14l18 13h23l14 3l9 4l15 11l38 5l60 27
l49 14l35 26l22 3l53 34l41 14l25 29l29 10l26 21l26 16l10 13l51 43l15 16l12 -2l7 1l-1 21l17 10l-7 23l3 16l-21 32l-2 15l-21 6l-14 18l-7 6l-29 14l-37 13l-41 16l-46 5l-93 18l-50 -3l-80 13l-40 -5l-20 4l-20 2l-36 -3l-21 -2l-26 5l-10 9l-2 7l1 4l5 24l4 22l17 21
l31 33l17 7l51 24l80 25l91 43l32 12l64 42l60 38l17 15l18 9l4 6l3 20l-4 21l-9 10l-24 12l-41 15l-79 8l-49 8l-25 2l-20 -2l-49 -10h-3l-19 13l-8 -3l-19 -16l-43 5l-11 -9l1 -9l9 -16l11 -20l-5 -21v-28l-12 -19l-6 -23l-15 -36l-24 -54l-23 -57l-14 -20l-10 -35
l-36 -75l-15 -41l-16 -24l-42 -107l-20 -29l-18 -76l-33 -76l-9 -21l-20 2l-19 8l-11 11l-36 57l-13 17l-7 17l-2 9l27 69l19 44l25 53l22 39l3 17l20 25v18l23 24l5 24l15 14l4 24l13 6l3 21l6 16l15 10l19 14l-11 7l1 23l20 20l-6 26l14 29l21 43l21 20l-5 28l16 16l15 9
l10 19l-24 8l-18 -6l-45 -5l-28 -14l-18 4l-25 -10l-96 -11l-19 -7l-19 -2l-16 -7l-23 -7l-16 6l-22 -18l-20 -13l-33 -6l-31 -24l-10 -22l-37 -28l-20 -12l-18 8l-20 20l-6 21l10 36l38 47l39 23l49 12z" />
    <glyph glyph-name="C" unicode="C" horiz-adv-x="1048" 
d="M150 340l2 46l7 19l14 52l26 79l28 68l6 18l11 15l19 48l15 14l12 22l13 2l-8 34l27 31l7 24l11 14l13 19l32 10l12 -17l13 12l-19 9l-15 29l17 23l27 12l-11 9v9l19 20l10 23l21 13l5 -4l9 2l4 23l-2 23l33 35l13 25l35 25l10 16l23 20l30 18l6 -6l17 -6l-7 -7v-7l10 7
l4 5l1 6l-2 8l-14 14l16 23l31 25l33 27l33 19l16 16l25 -1l6 -8l6 1l-5 18l28 22l52 18l21 15l51 15l28 2l28 12l26 -14l18 7l21 -21l28 -22l12 -24l9 -29v-2l-5 -45l2 -36l-15 -31l-9 -43l-14 -29l-14 -43l-25 -50l-109 -163l-11 -15l-24 -13l4 -21l-7 -17l-19 -21
l-29 -20l-22 -5l-26 7l-11 8l-25 30l-5 16l11 31l16 24l64 49l16 13l16 1l8 14l2 22l25 21l7 12l10 13l14 5l11 19l31 51l5 24l19 11l2 34l15 14l3 20l4 24l15 37v25v16l-3 13l-9 9l-19 5l-10 -2l-58 -27l-25 -9l-14 9l-6 -4l-5 -17l-16 -5l-18 -17h-16l-17 -24l-21 -14
l-15 -23l-16 -2l-20 -33h-19l-7 -28l-27 -26l-14 -16l-20 -4l-2 -27l-21 -12l-2 -12l-14 -14l-12 -10l-20 -11l6 -12l-11 -18l-4 -8l-3 -3l-10 -3l-6 -32l-16 -25l-18 -25l-9 -22l-13 -23l-27 -9l3 -31l-16 -25l-12 -30l-23 -31l-2 -20l-14 -29l-20 -52l-24 -24l-4 -22
l-5 -23l-20 -28l-7 -36l-20 -17l10 -4v-31l-19 -34l-15 -40l9 -19l-7 -64l6 -21l-11 -3v-13l17 -16l18 -26l9 -18l24 -1l26 6l22 2l31 14l42 12l21 23l39 10l33 38l44 24l24 23l21 7l14 19l14 10l15 14l48 42l12 23l17 14l20 -4l2 17l18 12l20 13l10 21l28 19l24 27h21l9 23
l9 14l18 2l12 27l24 10l17 29l33 18l14 8l8 1l11 -3l15 -15l5 -19l-3 -12l-17 -16l-5 -22l-20 -16l-22 -21l-6 -21l-25 -15l-20 -28l-16 -17l-14 -4l-8 -23l-37 -31l-9 -25l-21 -4l-16 -19l-20 -22l-11 -18h-19l-14 -20l-23 -6l-19 -27l-12 -12l-9 -14l-4 -2h-4h-5l-3 3
l-4 13l-18 -14l8 -15l-23 -30l-12 -10l-12 -5l-21 -4l-11 -22l-21 -7l-31 -29l-26 -1l-17 -14h-26l-13 -14l-16 -5l-12 -9l-8 -2l-7 2l-4 3v21l-7 -23l-5 -14l-4 -4l-8 -1h-4l-21 8l-29 -12l-74 22l-18 1l-13 8l-19 10l-6 20l-22 11l-9 24l-17 17l-5 14l-10 19l-4 18l-10 17
l-9 37z" />
    <glyph glyph-name="D" unicode="D" horiz-adv-x="1290" 
d="M299 745l-4 -14l11 -1l23 26l18 3h9l22 -3l15 11l78 15l30 10l4 28l30 43l12 53l8 19l24 6l-10 35l17 10l-10 19l-10 44l6 25l13 14l15 4l35 -7l16 -8l44 -45l19 -56l-3 -18l-34 -92l-6 -24l22 -1l19 4l35 2l89 32l50 6l25 12l15 -10l11 18l45 24l18 20l26 14l31 21l23 5
l16 -2l20 -7l6 -24l1 -15l-8 -28l-36 -38l-25 -16l-23 -11l-79 -23l-48 -9l-6 1l-4 1l-5 7l-18 -4l-9 -14l-22 9l-12 -11l-63 -20l-108 -19l-22 -6l-16 -36l-15 -35l-36 -67l1 -15l-13 -17l-36 -58l-89 -192l-22 -36l-8 -25l-18 -39l1 -8l12 3l20 9l52 -1l15 8l44 1l29 9
l11 4l12 -2l14 15l15 -7l8 13l22 -1l31 5l76 33l45 14l44 27l33 12l17 16l21 4l37 32l27 10l36 27l26 10l23 33l38 25l11 20l20 16v20l18 7l7 32l16 6l-1 35l27 27l-2 53l8 12l19 13l-15 11l9 33l-9 29l9 24l3 20l-14 8l-1 26l2 21l-6 22l-9 29l-16 22l3 19l-19 21l-15 17
l-17 20l-21 14l-15 14l-18 6l-57 28l-29 8l-34 15l-24 -1l-14 5l-20 -3l-51 7l-35 2l-50 -3l-96 -15l-91 -30l-26 2l-16 -16l-55 -19l-15 -13l-20 -5l-13 -11l-28 -5l-19 -22l-49 -26l-19 -16l-21 -9l-7 -10l-30 -12l-8 -21l-23 -12l-9 -25l-38 -36l-25 -35l-13 -49l7 -23
l17 -21l10 -5l31 -5l35 -6l55 12l10 -4l2 -2zM14 796l11 45l14 15l5 20l26 26l6 19l27 26l6 15l13 13l19 10l3 14l19 20l20 -2l20 22l23 9l38 37l28 4l23 28l23 4l14 10l53 24l35 20l21 2l24 15l14 2l29 10l20 2l36 13l23 5l19 9l31 1l22 10l53 5l61 14l55 -2l26 6l78 -12
l75 -11l30 -15l20 -2l68 -42l15 -4l83 -72l77 -111l25 -79l11 -36l-1 -44l4 -13l-6 -47l2 -20l-14 -63l1 -21l-16 -18l2 -18l-14 -21l-27 -49l-9 -6v-12l-19 -17l-14 -19l-22 -26l-12 -6l-9 -21l-23 -23l-74 -60l-26 -13l-16 -21l-27 -20l-19 -15l-16 -1l-6 -10l-29 -19h-12
l-19 -17l-29 -12l-18 -11l-15 6l-14 -22l-12 -3l-19 -7l-21 1l-16 -14l-14 -9l-74 -15l-17 -13l-20 1l-47 -13l-34 7l3 -13l-3 -6l-5 -4l-5 -1h-1l-32 3l-16 -2l-15 16l-13 -19l-16 -11l-15 -4l-27 -2l-60 -13l-25 2l-27 6l-4 -10l-52 -5l-20 4l-20 2l-32 2l-10 8h-15h-2
l-27 7l-31 33l-8 29l4 18l22 20l20 7l4 -1l30 -6l23 -1v30l19 42l7 27l9 11l18 18l5 21l26 57l15 15l4 23l24 24l6 25l13 7l1 28l30 17l-8 14l10 22l10 26l21 16l-5 15l19 -1l4 18l-1 20l21 12l5 9l-29 5l-31 -14h-21l-21 3l-4 -14l-24 3l-13 6l-31 -23l-22 4l-17 -5l-34 -1
l-14 -4l-16 1l-15 -1l-28 15l-21 -1l-30 14l-23 3l-27 24l-17 10l-7 9l-1 5v1l1 23z" />
    <glyph glyph-name="E" unicode="E" horiz-adv-x="1156" 
d="M147 202l-10 10l9 32l-9 10v4l1 8l4 9l1 13l20 23l-11 11l9 22l10 33l20 16v31l2 10l2 3l27 25l63 86l36 23l10 18l23 18l35 37l13 11l15 6l25 4l12 23l17 11l17 12l37 16l28 19l38 20l17 16l21 3l31 11l5 15l-12 -9l-36 -5l-17 -12l-9 -1l-12 1l-22 1l-15 9l-45 23l-5 4
l-3 5l-3 24l1 12l5 42l2 20l19 27l28 53l32 35l13 26l18 12l19 28l26 14l2 12l28 21l18 13l20 27l19 2l16 13l13 18l69 46l21 23l11 3l18 -6l41 39l9 4l5 1l21 -7l1 12l21 11l19 11l27 3l19 10l27 8l19 -2l10 7l17 5l10 -2l23 -11l23 3l29 -18l21 -4l14 -16l19 -29l2 -12
l4 -52v-18v-2l-12 -29l-1 -22l-16 -29l-10 -27l-16 -18l-6 -19l-6 -10l-7 -4l-15 -3l-11 1l-19 4l-13 21l-11 36l2 13l17 20l28 19l21 3v18l15 10l5 22l3 17l-11 30l-9 18l-8 8l-5 2l-3 -1l-15 -4h-30l-24 -9l-23 -5l-36 -20l-33 -3l-9 -11l-9 -4l-27 -32l-71 -39l-42 -42
l-44 -35l-31 -41l-35 -35l-26 -47l-15 -18l-18 -10l-31 -71l-15 -17l-2 -13l23 7l21 13l76 27l100 54l26 7l83 29l47 9l39 -10l17 -16l5 -19l-1 -9l-3 -9l-14 -20l-17 -26l-39 -33l-11 -10l-10 -6l-6 -1l-15 1l-53 -12l-28 -6l-62 -38l-14 -2l-34 -30l-30 -10l-41 -30
l-21 -4l-17 -30l-19 -11l-11 9l-7 -15l-28 -36l-31 -10l-3 -20l-3 -9l-3 -3l-27 -3v-21l-29 -16l-9 -9h-3l-15 8l3 -21l-24 -40l-15 -7l-16 -31l-10 -2l-14 -23v-16l-4 -12l-7 -8l-12 -9l-11 -16l-5 -21l-8 -17l-9 -53l-11 -24l-2 -10l11 -45l7 -22l14 -5l12 -14h20l8 6
l20 -6l18 2l16 -3l22 9l10 -7l20 12l20 3l16 17l19 -3l17 12l115 52l16 19l45 32l49 39l27 12l20 14l15 8l22 31l34 6l22 28l25 13l4 16l22 9l6 26l19 9l24 21l31 19l21 26l21 13l28 29l39 28l26 25l16 12l23 5l-2 -21l-12 -67l-4 -5l-79 -68l-20 -25l-20 -19l-13 -16
l-16 -2l-13 -18l-28 -20l-19 -22l-18 -7l-59 -67l-36 -26l-14 -14l-17 -8l-38 -41l-19 -14l-12 -3l-34 11l-11 -2l3 -27l-16 -6l-12 -23l-39 -31l-15 -15l-16 -5l-18 -12l-41 -19l-22 -12l-15 5l-6 6l-18 -28l-11 -12l-4 -1l-62 -20l-42 -20l-19 3l-26 -6l-26 3l-24 -5
l-15 7l-36 12l-19 6l-8 6l-3 8h-10l-4 12l-20 11l-20 15l-3 5l-9 19l-33 32l-13 34l-5 15z" />
    <glyph glyph-name="F" unicode="F" horiz-adv-x="1023" 
d="M324 625l17 13l22 9l10 10l36 11l19 14l39 13l33 19l42 14l19 8l25 1l16 16l28 1l20 11l17 2l22 17l21 2l9 3l4 4l18 25l36 20l2 13l22 23l24 35l21 17l17 19l16 5l4 24l31 26l5 21l16 18l5 15l16 19l12 18l50 43l29 37l16 4l15 24l33 32l22 29l14 19l-56 9l-19 -5l-12 1
l-23 -11l-28 1l-91 -39l-34 -4l-44 -30l-32 1l-13 -18l-39 -26l-4 -1h-1l-23 2l-4 1l-65 -41l-18 -13l-7 -3l-16 1l-21 -21l-17 -13l-11 -21l-21 -3l-10 -6l-4 -6l-5 -15l-20 -24l-7 -36l-11 -10l-20 -12h-4l-9 2l-36 35l-9 28l2 12l7 24l11 40l22 25l25 15l50 16l41 24
l20 5l6 16l30 13l15 15l29 14l24 12h21l19 15l30 20l84 34l173 57l128 20l47 2l42 -7l38 -45l19 -58l-1 -8l-4 -6l-34 -34l-19 -51l-54 -46l-18 -37l-21 -14l-21 -30l-9 -5l-20 -9l-2 -21l-34 -20l-8 -30l-21 -14l-6 -25l-9 -20l-8 -7l-7 -3h-21l-9 -32l-26 -16l-2 -6l23 5
l35 8l23 7l21 -2l20 11l23 2l37 13l34 5l31 7l47 -10l23 -22l10 -41l-2 -29l-5 -22l-20 -14l-36 -20l-20 -3l-24 3l-23 6l-7 17l-22 2l-18 8l-17 1l-10 2l-30 -11l-32 4l-14 -16l-22 5l-21 -8l-18 3l-21 -3l-18 -21l-27 -6l-19 -37h-14l-5 -9l-6 -26l-19 -4l-9 -24l-8 -28
l-18 -17l-13 -35l-24 -38l-26 -32l-22 -44l-23 -19l-10 -40l-56 -87l-6 -25l-7 -19l-8 -8l-17 -4l-4 -33l-21 -49l-8 -21l-18 -10l-2 -2l-2 -15l-3 -22l-17 -9v-23l-3 -12l-2 -4l-18 -10l-4 -27l-18 -10l6 -33l-16 -14l8 -22l-10 -19l6 -20l2 -12l-1 -6l-4 -12l-1 -4l2 -6
l4 -4l6 -2l6 1l13 7l19 11l11 -19l2 -25l-8 -8l4 -22l-5 -12l-11 -9l-45 -8l-54 8l-30 19l-22 20l-6 9l-17 45l-14 42l-3 20l2 15l11 41l9 50l11 26l21 67l14 19l28 34l23 16l-13 3l-3 4l-1 4v3l8 16l13 28l21 14l-2 13l14 19l-5 16l19 17l19 45l22 20l3 36l22 35l26 39
l29 57l68 111l11 24l-26 -5l-72 -36l-24 5l-32 -31l-30 -3l-35 -12l-30 -17l-20 2l-18 -17l-11 -3l-16 -15l-19 -7l-14 -14h-28l-15 -18l-51 -36l-26 -43l-14 -12l-16 -23l-5 -3l-6 -1l-10 3l-20 23l-10 33l5 24l11 28l27 46l21 12l58 21l64 44l21 -1z" />
    <glyph glyph-name="G" unicode="G" horiz-adv-x="1031" 
d="M430 -432l14 25l15 1l6 5v34l11 29l4 20l15 15l3 17l14 16l20 59l20 32l10 16l19 9l1 16l6 10l2 20l4 14l7 9l24 18l-3 25l33 67l5 33l15 11l15 18l-5 26l-4 -3l-4 -15l-22 -12l-22 -16l-14 -24l-27 -12l-6 -29l-6 -6l-25 -7l-12 -7l-17 -35l-9 -23l-20 -4l-11 -3l-2 -2
l-7 -18l-36 -50l-15 -35l-25 -35l-16 -66l-26 -34l-4 -25l-24 -65l1 -21l-4 -22l3 -19l-2 -56l10 -12h3l16 13l14 13l39 49zM150 247l2 71l9 21l12 34l6 26l20 24l15 -2l-5 10l2 9h9l-3 12h-11l-2 23l13 20l3 23l17 25l9 17l24 6v22l15 34l10 2l4 35l18 12l-2 19l16 26
l27 36l33 66l37 40l12 18l15 4l7 19l13 21l6 3l14 -3l1 21l15 15l7 18l123 117l26 32l35 12l16 21l17 7l24 24l15 4l24 4l3 22l24 -1l11 19l25 15l15 11l33 12l34 21h16l19 17l16 1l20 9l22 -4l25 6l16 -7l32 -10l19 -8l8 -24l14 -28l6 -29l7 -21l-10 -21l-2 -28l-35 -83
l-10 -21l-15 -21l-25 3l-25 8l-7 8l-8 19l14 40l51 54l14 26l8 17l1 5l-3 10l-7 7l-11 2l-8 -1l-9 -3l-18 -12l-23 -3l-52 -20l-44 -30l-26 -7l-47 -43l-50 -44l-16 -21l-25 -2l-11 -19l-19 -14l-44 -50l-30 -15l-10 -18l-25 -21l-28 -52l-23 -20l-15 -21l-20 -24l-8 -21
l-22 -12l-12 -22l-26 -31l-19 -26l-32 -24l3 -32l-20 -31l-45 -68l-10 -45l-20 -33l-10 -30l-16 -22l-25 -68l-10 -23v-1l3 -22l-8 -22l-2 -20l-5 -35l20 -33l32 11l19 15l28 14l37 38l26 13l14 14l25 3l14 30l9 14l3 2l30 9l8 30l133 148l18 35l30 7l7 20l21 35l17 14
l12 21l14 10l64 97l36 39l15 37l36 49l25 40l22 17l25 6l15 -3l15 -14l28 -54l22 -52v-1l-7 -37l-7 -47l-27 -44l-8 -31l-20 -29l-28 -77l-17 -21l-24 -83l-23 -40l-6 -25l7 -1l8 3l14 17l25 16l10 16l16 10l13 8l13 1l24 18l17 16l63 30l25 17l19 17l9 -1l25 8l2 -32
l-26 -17l-1 -29l-7 -21l-16 -19l-16 -9l-24 -4l-14 -25l-31 -2l-16 -14l-23 -14l-13 -12l-17 -18l-15 -2l-19 -14l-28 -24l-37 -15l-21 -12l-5 -6l-16 -26l-18 -27l-31 -91l-17 -24l2 -25l-36 -64l-24 -84l-27 -37l-12 -40l-18 -20l-30 -80l-48 -73l-8 -29l-15 -28l-26 -28
l-19 -35l-41 -53l-26 -47l-21 -8l-6 -27l-19 -7l-14 -23l-5 -4l-10 -3l-28 -2l-7 -15l-3 -1l-7 -1l-46 13l-17 9l-3 5l-12 37l-12 19l-5 24l-9 20l5 17l-4 20l9 36l-1 41l18 43l10 32l16 27l36 92l24 33l20 34l5 22l35 26l31 58l26 12l5 14v18l15 15l38 42l10 15l61 52
l41 48l37 35l40 38l12 4l8 23l5 22l19 36l4 21l23 35l2 26l17 26l12 31l11 21l4 22l21 34l11 32l1 15l-15 -17l-15 -20l-41 -28l-59 -69l-21 -5l-12 -8l-7 -10l-1 -4l3 -20v-1l-1 -4l-2 -3l-4 -3l-18 -5v-18l-3 -10l-6 -6l-24 -13l-12 -21l-21 -13l-7 -20l-9 -16l-6 -6
l-19 -9l-27 -35l-25 -10l-8 -27l-17 -5l-8 -17l-38 -35l-24 -30l-23 -5l-31 -12l-19 -6h-28l-23 1l-24 19l-34 4l-23 18l-23 13l-25 33l-19 25l-2 4l-2 33v9z" />
    <glyph glyph-name="H" unicode="H" horiz-adv-x="1438" 
d="M727 705l-42 -74l25 -1l75 -21l14 2l34 -10l23 -7l13 -10l40 -9l43 -29l29 -20l11 -11l15 -30l24 -69l12 -19l7 22l43 98l8 15l17 13l-1 15l14 19l9 15l9 27l22 27l27 58l18 13l3 21l17 32l-22 5l-28 -8l-27 4l-29 -13l-10 8l-3 1l-8 -1l-49 -11l-41 -2l-21 -5l-20 3
l-24 -2l-21 8l-24 -18l-11 -5l-8 -1l-25 4l-13 5l-4 12h-8l-6 -19l-6 -7l-7 -3l-33 -6l-25 -11l-14 -3zM848 1347l21 6l23 -5l62 -29l29 -37l11 -44l-2 -18l-4 -21v-19l-11 -23l-6 -29l-34 -63l-15 -37l-63 -93l-8 -22l-15 -4v-23l-11 -21l-16 -32l-13 -33l25 -3l52 20
l77 15l15 2l23 -2l31 16h2l21 -1l51 9l27 11l113 13l59 12l22 4l10 19l5 20l22 20l9 22l14 20l11 31l21 37l10 28l12 17l14 16l1 20l20 18v31l5 13l15 3l5 4l3 6l1 35l14 26l21 75l6 49l5 11l18 16l35 9l23 -6l32 -33l8 -12l7 -33l-28 -107l-27 -49l-12 -22h-15l1 -28
l-12 -11l1 -15l-3 -13l-11 -16l-17 -17l-2 -21l-19 -36l-6 -24l-30 -52l-7 -31l61 -3l37 1h4l32 -6l23 -2l4 -12l21 -4l9 -10l4 -20l-7 -28l-5 -6l-28 -20l-19 -13l-8 -4l-9 -2l-9 3l-25 11l-33 -2l-22 8l-19 -3l-48 2l-20 -9h-18l-16 -35l-42 -78l-12 -33l-13 -13l-11 -32
l-18 -6l-4 -25l-6 -32l-22 -14l-6 -7l-8 -29l-5 -26l-12 -24l-10 -26l-10 -11l-18 -30l-13 -13l-15 -14l6 -22v-5l-1 -9l-2 -4l-18 -13l-1 -24l-20 -9l5 -20v-3l-1 -7l-2 -4l-21 -14l10 -24l-8 -44l16 -22v-22l13 -13l2 -3l-9 -22l-9 -16l-14 -8l-34 -7l-32 6l-39 22l-9 20
l-19 25l-2 3l-7 58l2 33l4 34v2l-2 38l8 25l-9 47l-8 52l-18 32l-2 12l1 7l11 18l-22 7l-10 5l-4 4l-19 30l-38 14l-26 19l-57 24l-9 14l-28 6l-19 14l-29 -1l-27 -8l-44 -79l-12 -22h-13l-5 -42l-26 -24v-21l-9 -15l-8 -27l-33 -35l-1 -21l-21 -63l-11 -28l-20 -17l4 -33
l-3 -6l-6 -4l-23 -6l7 -30l-19 -20l7 -37l-21 -27l2 -42l-6 -14l-13 -12l-11 -4l-11 3l-15 12l-46 52l-10 15l-17 57l4 41l8 51l20 40l12 30l25 40l35 86l25 35l5 26l26 32l19 41l35 61l13 17l-9 18l-23 -4l-36 -6l-36 -6l-6 1l-33 13l7 20l6 11l4 3l42 27l14 10l57 19
l31 22l29 4l13 7l10 -1l13 16l22 29l2 5l5 23l35 41l7 30l19 21l26 52l16 18l20 39l53 82l12 29l17 25l15 38l23 44l-1 31l-26 -3l-57 -9l-20 -1l-26 -11l-20 -4l-46 -23l-35 -3l-21 -16l-33 -10l-9 -16l-29 -2l-22 -26l-43 -23l-14 -14l-20 -5l-16 -21l-25 -29l-26 -41
l-20 -21l-23 -7l-13 -21l-29 1l-24 13l-22 27l-7 29l3 20l16 27l12 10l84 46l45 26l25 5l196 113l27 3l60 31l24 3l72 25z" />
    <glyph glyph-name="I" unicode="I" horiz-adv-x="715" 
d="M503 1369l32 7l20 20l22 -2l6 16l19 3l79 13l6 1l37 -5l44 -9l21 -7l18 -17l15 -5l9 -13l48 -50l24 -36l8 -40v-1l-2 -22l11 -6l-5 -21l-3 -65l-10 -32v-17l-13 -26l1 -27l-16 -22l-17 -55l-41 -66l-50 -122l-21 -19l-11 -20l-8 -35l-9 -11l-14 -8l-23 -19l-2 -31
l-22 -29l-35 -75l-10 -11l-18 -3l-2 -22l-3 -12l-1 -2l-39 -46l-17 -49l-28 -41v-14l-12 -21l-17 3l2 -29l-3 -22l-25 -48l-5 -28l-16 -19l-6 -15l-6 -9l-3 -4l-14 -6l6 -9l-6 -21l3 -50l-8 -19l30 -45l1 -11l-6 -24l-17 -17l-38 -10l-44 10l-18 10l-23 24l-33 37l-8 13
l-11 51v22l10 11v11l8 40l6 26l31 56l25 57l13 16l11 36l29 49l8 21l17 6v23l26 40l16 35l12 11l14 32l32 14l-6 24l12 28l9 23l36 48l11 27l12 9l8 24l15 28l27 35l8 25l14 20l16 1v24l6 21l16 20l18 15l-6 18l20 17l14 20l2 30l34 54l5 29l18 28l6 13l1 8v1l-2 31l11 11
l6 10l2 12l-2 12l-4 13l-5 25l-14 18l-30 14l-21 14l-33 2h-20l-22 1l-4 -4l-24 2l-56 -20l-34 -7l-21 -6l-3 -3l-16 -20l-5 -4l-4 -1l-1 1l-11 5l-10 -7l-5 -23l-42 -29l-37 -36l-14 -11l-21 -24l-33 -37l-18 -32l-18 -16l-12 -17l-4 -10l-5 -40l-20 -23l9 -32l1 -6l-2 -13
l-10 -23l25 -25l6 -21l-10 -31l-29 -30l-30 -8l-29 8l-16 14l-6 32v20l3 38l6 22l4 34l32 64l12 33l23 36l13 24l19 18l14 36l26 27l8 20l32 22l5 14l4 8l6 6l44 32l20 28l38 23l14 17l20 8z" />
    <glyph glyph-name="J" unicode="J" horiz-adv-x="692" 
d="M37 -371l8 -38l17 12l14 20l29 30l22 50l28 21l2 21l9 26l41 52l9 30l18 23l17 37l13 15l4 28l40 70l30 67l14 24l36 48l8 13l13 22l-6 1l-23 -12l-19 -8l-27 -30l-23 -11l-11 -26l-44 -39l-5 -16l-21 -25l-17 -24l-16 -5l-9 -29l-16 -10l-13 -41l-21 -4l-7 -31l-17 -6
l-6 -20l-14 -19l-5 -32l-14 -16l-6 -27l-13 -22l-6 -43l-20 -17l-1 -35v-7zM164 86l33 14l17 33l23 13l26 27l22 11l39 39l14 6l62 44l33 21l10 21l20 36l6 24l13 18l13 17l-5 17l11 19l7 22l19 27l8 42l16 25l14 18l-3 25l22 36l10 37l9 19l18 -5l12 -13l1 14l-16 14l-4 7
l-1 8l1 9l3 8l9 14l4 20l14 17l2 23l4 20l15 21l11 19l15 12l-15 20l23 21l-5 20v2l1 9l3 4l31 16l-10 24l11 30l18 -2l-1 5l-10 12l-2 10l8 22l2 20l19 14l4 21l2 21l8 10l-4 22l10 31l-3 25l-10 49l-23 21l-25 11l-24 4l-12 -1l-12 -6l-18 -8l-19 3l-12 -16l-18 3l-16 -24
l-35 -23l-61 -47l-15 -10l-17 -28l-24 -11l-7 -19l-26 -26l-50 -79l-45 -63l-18 -49l-14 -15l3 -19l-23 -15v-37l-13 -32l-1 -35l-9 -24l-2 -34l-9 -39l14 -33l-6 -85l28 -50l1 -25l19 -21l18 -38l32 -16l19 -25l17 -63l-1 -10l-10 -20h-20l-23 5l-18 25l-23 38l-15 46
l-35 63l-10 33l-14 19l-3 45l-12 27l-4 36l-13 20l-5 82l-6 56l4 23v42l17 99l8 24l32 88l43 68l12 24l18 13l19 33l16 7l22 28l22 5l12 28l48 26l24 24l22 2l15 12l21 7l23 10l26 6l25 8l10 -13h7l6 13l13 7l7 8l24 -2l87 7l52 -10l20 -5l27 -28l49 -47l4 -6l4 -21l2 -31
l5 -21l3 -21l-3 -17l-6 -18l-10 -118l-27 -88l-20 -57l-26 -14l8 -22l-2 -10l-2 -23l-12 -28l-6 -28l-9 -13l-17 -12l8 -16l-11 -50l-17 -12l-2 -21l-4 -17l-17 -20l-16 -14l1 -24l-11 -30l-6 -25l-16 -21l-12 -35l-14 -20l-9 -24l18 7l19 23l43 22l29 27l25 10l53 46l49 30
l20 14l14 4l12 -4l7 -6l2 -8v-1l-9 -29l-4 -23l-8 -21l-17 -8l-14 -14l-24 2l-11 -21l-10 -12l-4 -2l-49 -16l-20 -27l-19 -7l-33 -19l-32 -16l-24 -21l-31 -8l-23 -18l-14 -14l-5 -19l-8 -19l-13 -11l-1 -24l-17 -19l2 -28l-34 -53l-3 -27l-18 -12l-8 -20l-21 -48l-17 -23
l-41 -84l-54 -89l-18 -38l-10 -15l-9 -20l-15 -9l-9 -14l-14 -11l1 -19l-2 -5l-3 -4l-21 -11l-7 -20l-16 -21l-14 -35l-19 -6l-6 -22l-21 -11l-9 -28l-28 -17l-16 -31l-43 -24l-38 -29h-3l-14 1l-22 1l-18 14l-18 32l-26 44l-3 5l-1 15v1l1 56l1 41l17 32l4 16v4l-4 31l-1 7
l2 14l5 11l26 44l15 43l13 10l16 38l49 68l7 25l8 15l4 4l29 19z" />
    <glyph glyph-name="K" unicode="K" horiz-adv-x="1271" 
d="M348 736l20 -7l69 167l-13 2l-13 -12l-17 -1l-32 -19l-45 -14l-17 -14l-28 -21l-5 -10l-2 -9l2 -9l10 -14zM211 414l6 22l10 9l8 20l14 31l7 21l15 12l9 26l35 63l6 27l8 19l-17 15l-135 94l-10 11l-4 19l3 17l13 21l19 14l43 23l40 26l31 16l22 4l116 66l25 9l40 28l5 7
l13 40l8 15l9 8l23 10l6 9l-13 16l6 24l7 28l18 34l2 21l8 45l-19 91l10 25l19 18l12 4l23 -4l41 -7l10 -4l10 -12l17 -30l20 -22l10 -19l6 -44l-5 -41l-4 -7l-16 -19l-16 -30l-11 -10l-4 -6l-1 -3l2 -32l-14 -20v-3h20l14 13l31 8l59 33l23 8l29 24l38 13l14 8l23 7l17 13
l31 20l21 3l21 -1l13 21l10 7l15 -1l21 9l13 -1l27 24l22 4l26 16l39 6l25 19l35 12l24 19l23 6l21 9l14 -1l46 22l16 -4l23 -6l4 -3l3 -3l10 -34l1 -17l-8 -36l-27 -32l-45 -29l-30 -14l-46 -8l-71 -35l-100 -26l-38 -22l-36 -10l-55 -24l-19 -2l-17 -7l-35 -10l-41 -21
l-28 -5l-50 -29l-20 -6l-27 -15l-21 -2l-37 -23l-23 2l-22 -21l-14 -3l-20 -6l-3 -13l-14 -19l-7 -24l-20 -19l-7 -23l-15 -25l-13 -29l-11 -17l-12 -28l-5 -13l-12 -7l2 -30l-35 -55l-8 -23l19 -12l18 -11l33 -18l25 -10l1 -18l43 -18h19l22 -21l34 -8l23 -14l32 -16
l17 -15l36 -11l23 -22l27 -4l18 -5l9 -6l13 -18l21 -10l53 -24l7 -13l20 -9l25 -11l24 -22h24l59 -36l31 -10l15 -16l56 -30l15 -22l12 -40l-1 -5l-12 -24l-9 -16l-23 -11l-40 -14l-15 -8l-22 4l-20 12l-11 14l-6 18l-11 10l-6 -11l-26 8l-55 48l-54 32l-57 45l-70 40
l-28 24l-48 25l-35 30l-19 14l-11 17l-25 18l-28 27l-24 8l-74 55l-60 35l-22 14l-1 -29l-10 -20l-15 4l-7 -20l-4 -34l-12 -33l-6 -26l-7 -13l-6 -6l-13 -5l-2 -16l-19 -35l-52 -153l-20 -53l2 -15l-6 -39l10 -24l-9 -24l-10 -21l-11 -8l-12 -3l-13 3l-15 14l-22 5l-19 13
l-19 25l-5 19l-1 18l-13 38l-1 12l1 9l8 39l6 30l15 27l35 102z" />
    <glyph glyph-name="L" unicode="L" horiz-adv-x="1361" 
d="M1017 1157l-8 -24l43 37l21 34l34 26l20 29l30 63l15 40l-2 23l-19 -12l-12 -7l-34 -46l-21 -26l-27 -53l-10 -18zM66 86l4 -6l18 -4l21 -13l2 -1l39 -6l33 -3l3 1l2 1l24 15l27 2l18 13l17 9l13 17l19 16l9 19l4 21l-22 -2l-26 -4l-39 -15l-19 -1l-64 -24l-42 -12
l-14 -8l-23 -7l-4 -5v-3zM571 547l18 15l-1 17l8 14l7 19l14 18l2 23l31 49l22 59l15 26l7 19l-19 -9l-38 -20l-27 -23l-17 -7l-47 -30l-35 -8l-46 -25l-29 14l-2 -23l-17 -10l-18 -4l-12 3l-26 22l-12 16l1 22l4 16l3 5l25 23l21 19l9 4l22 1l20 -1l21 -2l16 -13l7 -1l10 2
l20 3l19 21l2 1l21 6l30 10l40 23l26 9l13 17l13 8l8 12l20 8l28 13l3 3l22 40l6 12l-2 10l13 21l9 27l47 43l-2 20v3l7 28l15 23l19 11l2 23l9 26l5 6l20 12l5 9l-2 22l9 11l14 2l7 20l22 30l14 24l10 8l10 5l22 2l-3 22l19 27l16 17l21 13l22 9l38 7l9 -1l23 -17l21 -13
l18 -52l-1 -16l-8 -48v-24l-15 -3l-1 -21l-6 -32l-6 -8l-26 -11l-3 -27l-28 -9l-3 -12l3 -22l-19 -21l-18 -1l-12 -5l-5 -21l-20 -13l-17 -22l-27 -21l-22 -23l-22 -14l-37 -27l-18 -11l-7 -30l-49 -103l-1 -23l-11 -6l-1 -14l-11 -25l-7 -23l-17 -33l-12 -35l-25 -42
l-16 -41l-19 -27l-9 -20l-28 -9l11 -10l3 -8l-8 -17l-2 -14l-34 -47l-6 -18l-13 -11l-5 -22l-17 -29l-2 -23l20 -4l36 9l18 -4l20 3h1l18 -4l24 -3l55 6l18 2h3l49 -5l21 8l27 -7l28 3l37 -7l23 2h4l63 -13l67 -18l23 -6l21 4l17 2l30 -5l13 -5l63 -45l16 -11l11 -22l2 -19
l-10 -50l-8 -18l-17 -18l-18 -3l-61 19l-21 12l-12 15l-20 15l-8 20l-32 1l-29 8l-33 22h-17l-12 10l-22 3l-26 2l-4 2l-10 16l-43 3l-17 9l-19 -4l-19 6l-13 -4l-20 1l-44 2l-13 6h-25l-34 -7h-36l-8 7l-19 -14l-31 -8l-51 -6l-24 -1l-12 -17l-16 -22l-20 -7l-6 -26
l-21 -20l-10 -10l-12 -3l-11 -20l-24 -28l-12 -5l-17 2l9 -14l1 -2l-1 -5l-3 -3l-25 -10l-17 -16l-22 -4l-18 -15l-47 -10l-24 -14l-21 2l-30 -2l-21 7l-6 -7l-20 6l-37 5l-17 14l-46 12l-6 4l-27 36l-17 26l-1 9l1 10l6 9l7 6l56 29l46 27l33 7l51 24l58 3l15 15l22 12
l20 9l45 6l19 30l17 17l29 43l20 28l1 3l2 17l4 15l10 14l27 26l15 41l24 19z" />
    <glyph glyph-name="M" unicode="M" horiz-adv-x="1924" 
d="M106 741l47 46l20 8l105 51l36 13l20 15l29 11l42 19l9 3l6 13l37 3l33 27l49 18l25 19l32 7l59 26l48 13l27 10l38 3l21 4l18 1l41 -10l30 -32l23 -56l-6 -25l-9 -26l-30 -40l-12 -33l-21 -32l-16 -31l-36 -41l-31 -62l-14 -11l-9 -24l-44 -71l-8 -17l-15 -19l-15 -54
l-12 -21l30 20l2 19l19 10l16 25l18 16l44 39l22 12l31 50l26 16l27 25l43 49l12 20l49 37l12 18l12 1l12 6l4 6l10 27l39 27l24 24l7 3l3 1h1l9 -7l9 8l1 23l8 19l11 7l31 11l40 41l33 8l12 20l14 10l19 15l20 1l20 14l21 6l22 7h1l45 -10l13 -5l22 -19l19 -22l5 -29l10 -8
l3 -6l-10 -18l-5 -47l-18 -48l-12 -48l-35 -52l-5 -17l-9 -16l1 -27h10l15 9l8 33l29 18l36 47l24 17l19 11l5 19l21 19l26 27l32 20l27 39l46 23l18 27l39 32l39 29l17 4l30 22l36 13l32 17l19 1l24 7l14 1l27 -8l42 -43l18 -52v-3l-2 -27v-47l-23 -43l-3 -29l-17 -25
l-13 -23l-11 -10l-2 -2l-8 -25l-5 -12l-13 -10l-3 -24l-14 -13l-10 -15l-12 -7l-8 -26l-18 -17l-16 -34l-18 -18l-3 -21l-13 -19l-14 -27l-13 -12l-14 -26l-11 -8l-9 -35l-23 -7l8 -25l-11 -15l-12 -17l-1 -29l-26 -48l-8 -34l-4 -35l9 -20l26 -58l2 -13l-2 -17l-7 -27
l-10 -9l-35 -6l-29 4l-10 5l-22 18l-23 10l2 16l-31 9l-10 15l-13 15l-7 25l-8 53l1 15l12 59l7 43l22 44l7 27l22 22l29 57l21 1l-11 18l15 24h15l7 7l-3 29l2 5l6 6l17 11l6 33l20 19l-2 17l17 23l53 86l19 20l17 36l30 19l-9 20l17 26l17 25l13 32l-41 -7l-13 -22
l-33 -18l-21 -22l-22 -7l-23 -18l-15 -7l-31 -30l-50 -42l-33 -32l-29 -19l-19 -31l-16 -16l-16 3l-17 -10l8 -9l-12 -22l-25 -16l-29 -37l-20 -12l-19 -21l-11 -21l-36 -41l-19 -20l-13 -7l-16 -24l-14 -12l-24 -33l-8 -18l-14 -6l-7 -15l-11 -7l-3 -23l-20 -11l-49 -35
l-20 -2l-16 -7l-1 -1l-17 7l-28 18l-7 20l-8 22l7 23l-1 33l16 23l28 82l20 29l7 33l11 4l7 10l15 15l42 73l14 17l8 32l29 43l14 32l12 16l4 30l-33 2l-39 -33l-20 -7l-21 -9l-23 -22l-35 -21l-17 -21l-31 -14l-67 -56l-26 -13l-19 -17l-23 -17l-28 -34l-16 -5l-20 -9
l-10 -28l-26 -20l-22 -32l-37 -32l-15 -21l-32 -18l-6 -27l-30 -24l-5 -21l-7 -11l-17 -2l-21 -10l-1 -28l-5 -12l-11 -14l-16 -15l-15 -22l-14 -3l-10 -28l-42 -43l-95 -130l-9 -9l-12 -7l-24 -10l-23 -10h-6l-17 2l-22 7l-7 10l-17 12l-3 28l-10 9l-2 10l2 9l44 107l4 29
l21 17l23 18l-1 24l7 13l6 16l23 8l-6 26l28 24l-2 25l3 11l5 8l19 22l16 44l20 35l13 22l19 12l7 25l12 31l20 15l9 21l15 32l4 3l17 3l19 2l4 7l-4 6l-10 -10l-14 1l23 46l6 22l29 38l25 66l18 34l1 35l-33 -9l-28 -4l-66 -37l-28 -6l-49 -21l-30 -9l-23 -12l-19 -2
l-18 -23l-44 -31l-59 -38l-62 -32l-14 -14l-18 -10l-2 -25l-23 -25l-29 -21l-9 -2h-4l-29 11l-16 3l-7 5l-6 10l-4 25l3 22z" />
    <glyph glyph-name="N" unicode="N" horiz-adv-x="1522" 
d="M539 1040l23 14l18 3l23 14l40 10l19 6l15 -10l17 23l35 1l23 12l29 -2l8 -2l3 -1l7 -13l8 13l5 3l4 1l3 -1l35 -13h16l17 -5l6 -6l8 -21l32 -51l2 -6l1 -4l-27 -63l-24 -49l-28 -34l-8 -15l-29 -30l-9 -43l-48 -46l-46 -85l-32 -29l-23 -37l-9 -22l22 21l37 46l66 59
l39 40l16 7l9 13l47 39l20 30l22 9l3 16l8 9l18 1l2 22l25 5l5 12l8 4l8 18l43 38l10 18l27 15l13 12l13 -1l7 -6l3 19l6 9l19 14l55 30l57 38l33 13l56 32l71 3l42 2l20 -5l27 -18l31 -26l17 -27l5 -30l-9 -37l-35 -63l-12 -28l-24 -40l-11 -33l-36 -50l-39 -83l-25 -31
l-10 -33l-30 -36l-31 -82l-13 -9l-1 -3l-10 -35l-13 -30l-17 -33l-14 -29l-16 -22l-3 -26l-11 -23l-4 -50l-5 -28l2 -9l7 -7l12 -3l9 2l20 10l46 29l32 30l44 32l54 45l22 4l9 20l26 36l27 17l16 4l10 -2l18 -16l-10 -9l6 -25l-4 -21l-7 -23l-17 -12l-8 -16l-21 -13l-17 -12
h-17l-7 -19l-19 -13l-46 -39l-19 -9l-21 -15l-42 -15l-23 -19l-30 -4l-31 -8l-29 -1l-28 2l-33 19l-49 33l-28 30l-16 70l-2 46l2 8l31 63l5 20l22 12l-1 26l6 14l3 18l49 76l16 29l24 65l23 28l12 40l25 30l15 26l18 24l21 42l40 56l6 19l11 23l2 18l19 27l1 25l-30 -7
l-34 -21l-79 -36l-28 -23l-38 -23l-14 -15l-21 -1l-12 -18l-19 -12l-18 -25l-34 -10l-36 -48l-43 -14l-16 -42l-51 -32l-22 -43l-23 -7l-13 -16l-32 -39l-23 -15l-35 -34l-28 -36l-38 -28l-27 -34l-52 -54l-18 -32l-19 -15l-16 -18l-21 -5l-15 -18l-34 -47l-40 -42l-22 -30
l-19 -11l-7 -21l-27 -20l-19 -35l-12 -10l-41 -13l-19 5l-18 14l-19 31l-14 29l-1 41l-1 19v3l1 3l31 49l17 40l17 20l24 43l22 5l5 8l-2 25l13 17l14 29l18 11l9 19l24 41l14 15l12 24l14 9l1 17l20 24l18 13l8 26l25 26l25 40l16 14l23 32l16 14l6 24l21 4l9 24l10 15
l9 22l29 11l-1 26l32 37l15 33l2 8l-2 8l-4 5l-5 1h-1l-26 -6l-22 2l-26 -10l-46 -9l-19 -11l-21 2l-46 -28h-2l-12 1l-24 3l-14 -15l-16 -4l-20 -5l-13 -16h-24l-28 -26l-97 -50l-18 -19l-19 -17l-28 -46l-25 -12l-21 -18l-4 -1l-25 3l-19 6l-15 16l-11 42l3 20l15 22
l19 14l88 43l36 19l27 5l51 28l87 42l19 15z" />
    <glyph glyph-name="O" unicode="O" horiz-adv-x="1085" 
d="M660 311l25 10l7 29l24 12l25 42l18 3l7 7l5 26l19 19l30 38l24 23l36 53l19 19l8 20l30 20l1 22l6 20l8 10l38 32l5 7l4 12l3 19l19 27l9 18l14 13l16 26l10 22l24 29l14 42l19 12l-1 28l16 22l24 64l13 23l-4 20l10 30l-6 33l8 25l-1 19l2 16v4l-21 37l-9 17l-30 4
l-30 -1l-35 4l-71 -26l-22 -3l-17 -6l-11 -7l-12 -18l-22 3l-9 -29l-36 -23l-42 -42l-58 -67l-16 -27l-6 -26l-28 -43l-2 -21l-5 -6l-10 -1l5 -23l-3 -45l9 -57l-8 -38l-22 -22l-31 -9l-23 6l-17 17l-9 39l-3 35l10 54l17 40l22 28l10 38l59 80l28 53l41 38l30 41l21 20
l28 23l-35 -8l-52 -39l-28 -16l-12 -19l-8 -11l-22 -21l-21 -28l-29 -21l-7 -25l-15 -16l-11 -21l-16 -11l-6 -21l-32 -17l3 -19l-39 -58l-5 -14l-6 -22l-23 -20l-18 -50l-84 -132l-9 -29l-14 -17l-23 -75l-11 -12l-5 -24l-10 -13l-13 -43l-17 -23l6 -17l-10 -24l-12 -38
l-4 -41l-11 -54l1 -23l-3 -23l6 -21l-4 -22v-3l5 -17l29 -27l45 -13l87 23l23 11l33 32l33 11l29 28l19 6l18 20l17 9l10 19l18 11l17 24zM160 383l11 21l-3 30l2 31l16 27l-2 22l3 10l7 9l17 13l-6 19l20 26l-1 34l17 24l7 26l7 12l7 7l13 5l-1 22l5 10l1 16l27 11l-2 16
l18 18l-5 21l26 24l24 39l11 29l11 14l10 5h15l6 34l33 40l16 23l18 12l20 35l15 7l17 12l4 14l17 15l21 27l15 11l12 28l22 6l12 18l53 50l11 8l25 7l14 20l11 9l7 16l23 4l48 34l3 1l19 2l13 -2l9 -6l13 -21l10 -23l28 21l26 2l17 8l27 8l25 20l39 -7l31 14l56 -6l45 -2
l25 -10l18 -6l14 -12l12 -17l20 -13l10 -18l25 -59l11 -33v-1l-3 -54l2 -33l-13 -24l-4 -48l-37 -81l-14 -48l-21 -52l-3 -3l-10 -2l-9 -24l-17 -45l-3 -4l-29 -24l-1 -28l-27 -35l-20 -44l-54 -63l-13 -28l-18 -14l-45 -68l-27 -26l-12 -12l-24 -13l-2 -23l-14 -17l-84 -73
l-42 -61l-37 -20l-14 -17l-20 -5l-9 -20l-20 -8l-28 -32l-21 -6l-29 -20l-35 -10l-24 -4l-4 -14l-26 -7l-23 -8l-13 -16l-27 1l-22 -7l-12 1l-10 -10l-15 7h-1l-13 -3l-26 -5l-9 1l-45 18h-34l-30 27l-40 30l-12 24l-12 19l-4 25l-11 22l-1 40l-6 20l1 32l-5 38v3z" />
    <glyph glyph-name="P" unicode="P" horiz-adv-x="1191" 
d="M238 1141l26 6l25 30l11 6l11 2h7l16 -6l13 18l20 17l25 16l6 1h1l17 -1l21 6l1 9l17 13l15 10l23 6l45 18l71 16l60 16l31 3l49 16l33 2l25 5l7 -14l36 23l17 8h5h3l23 -4l28 7l26 -7l59 12l30 -3l111 1l56 -7l27 -8l25 -3l47 -7l7 -5l21 -18l39 -9l11 -7l4 -5l8 -16
l18 -12l12 -13l-2 -24l26 -11l3 -16l16 -22l6 -20l11 -34l3 -34l1 -82l-2 -18l-15 -47l-7 -29l-19 -42l-35 -52l-8 -14l-12 -10l-5 -15l-1 -2l-28 -21l-19 -18l-15 1l-17 -21l-61 -40l-52 -17l-24 3l-14 -12l-20 -5l-23 -12l-77 -21l-22 -3h-6l-29 6l-15 -11l-10 -5h-4h-2
l-42 6l-65 -13l-12 14l-8 -1l-11 -18l-39 6l-50 -4l-35 6h-20l-16 5l-19 2h-10h-26l-17 -21l-25 -28l-23 -50l-28 -15l-1 -37l-36 -42l-6 -35l-16 -24l-7 -25l-18 -13l-1 -31l-55 -119l-1 -58l-11 -30l-20 -18l-25 -6l-25 6l-17 14l-21 31l-18 26l-10 21l-3 19l17 65l88 168
l8 11l20 11l9 -4l5 9v1l-6 20l-2 11v3l13 15v26l14 21l20 49l12 9l-1 25l3 11l6 10l18 20l9 15h15l-2 32l3 10l7 10l16 14l14 -7l1 4l-9 10l-2 8v2l1 2l31 48l9 30l5 20l14 2l6 24l11 21l44 79l17 25l4 16l11 21v26l9 24l6 21l10 16l13 17l22 3l19 -1l2 -2l24 -24l15 -12
l7 -32l21 -41l5 -45l-4 -22l-9 -10l-23 -16l-15 -15l-9 -18l-13 -39l-26 -38l-19 -62l-31 -33l-4 -24l-2 -29l23 4l18 3l5 -1l30 -5l19 8l21 -8l35 9l38 -3l33 9l87 14l33 15l48 9l23 12l36 2l22 23l82 35l63 61l16 10l-2 15l18 15v22l29 25l-9 10l11 30l-2 19l4 12v25
l-4 63l-18 44l-24 32l-21 14l-2 16l-28 -1l-18 17l-28 -2l-35 18l-24 3l-19 8l-34 -4l-27 4l-34 2l-21 6l-20 -13l-19 5l-62 -7l-62 6l-21 -14h-9l-5 11l-18 -10l-18 2l-46 -14l-73 -9l-80 -25l-19 -3l-25 -7l-21 2l-42 -21l-46 -21l-22 -16l-27 -1l-25 -22l-53 -45l-17 -23
l-22 -9l-23 -6l-1 -24l-15 -7l-5 -8l-17 -34l-7 -42l-11 -7l-13 -8l-11 -2l-12 3l-19 20l-15 56l9 39l28 33l40 28l48 35z" />
    <glyph glyph-name="Q" unicode="Q" horiz-adv-x="1044" 
d="M282 275l-5 -39l9 -14l2 -36l15 -51l11 -20l12 -11l11 -2l10 1l39 15l14 4l21 14l43 15l30 33l20 11l23 25l15 9l14 14l-18 25l-12 15l-8 23l-14 11l-22 -12l-21 -10l-3 -1v0l-26 3l-22 3l-7 5l-5 8l-1 11l5 18l21 21l39 10l62 -11l7 -5l10 -14l42 -46l14 -13l18 14
l19 19l47 59l24 45l17 17l12 18l18 11l15 26l34 32l12 28l18 13l8 32l42 44l10 29l31 48l28 41l24 29l2 7l1 28l21 27l9 22l10 18l8 35l15 12l13 28l19 11l-4 33l4 21l13 23l15 18l-3 27l1 15l20 62l3 28l5 36l-1 39l-5 2l-3 23l-18 23l-12 11l-22 4l-67 -11l-48 -23
l-78 -55l-35 -24l-44 -50l-26 -18l-9 -18l-22 -12l-18 -45l-19 -14l-6 -17l-24 -51v-19v-24l16 -40l3 -17l-1 -7l-17 -35l-13 -22l-7 -5l-23 -4l-23 5l-14 16l-12 29l-2 19l1 8l21 62l1 22l50 69l23 56l28 33l10 32l14 17l15 22l34 27l13 16h-16l-27 -6l-15 -17l-34 -16
l-44 -49l-24 -26l-17 -28l-21 -13l-23 -48l-24 -31l-5 -23l-31 -39l-23 -44l-10 -15l-18 -17l5 -16v-11l-22 -23l-29 -47l-7 -27l-18 -19l-2 -42l-17 -15l-20 -26l-3 -12l-1 -31l-19 -41l-16 -49l-11 -23l2 -20l-20 -48l7 -24l-9 -26l-1 -54l-5 -41zM199 595l10 11l5 24
l8 20l2 20l14 13l7 29l29 59l13 36l25 24l12 34l16 6l8 27l43 76l11 26l20 19l18 23l16 10l1 20l9 8l17 9l18 42l14 11l20 23l17 13l8 18l17 22h14l9 19l38 38l54 49l15 4l16 15l31 25l6 2l36 5l21 5h5l19 -4l13 -10l14 -23l39 21l30 26l41 16l27 19l30 5l45 4h5l39 -5
l45 -12l9 -7l41 -44l17 -18l8 -13v-5v-1l-3 -26v-1l1 -3l12 -12l8 -8l1 -12l-13 -5l11 -27v-8l-11 -75l-4 -24l-11 -23l6 -27v-4v-4l-2 -3l-13 -16l-2 -26l-18 -43l-13 -43l-21 -42l-4 -28l-7 -22l-12 -16l-16 -14l-2 -23l-9 -20l-25 -72l-27 -22l-17 -46l-47 -72l-22 -49
l-23 -17l-7 -26l-15 -22l-8 -17l-22 -13l-9 -21l-17 -21l-14 -26l-14 -8l-21 -7v-16l-20 -21l-7 -17l-31 -29l-16 -16l-19 -13l-22 -36l-28 -20l-1 -4l13 -31l15 -31l22 -14l10 -13l21 -22l2 -22l21 -3l46 1l15 -9h24l18 -8l29 -31l6 -21l-2 -10l-6 -12l-17 -19l-21 -6
l-19 -1l-12 -6l-49 3l-40 21l-31 16l-12 17l-23 21l-9 23l-21 31l-8 24l-14 19l-1 24l-11 19l-16 -19l-35 -11l-23 -22l-20 -12l-12 -6l-33 -12h-21l-10 -10l-23 2l-25 -13l-36 4l-44 -4l-21 2l-5 2l-58 43l-31 17l-21 26l-29 79l-23 108l1 2l7 21l-4 17l2 50l-3 22l15 38
l-3 32l23 72z" />
    <glyph glyph-name="R" unicode="R" horiz-adv-x="1222" 
d="M356 657l-16 -17l53 -41l19 25l17 36l7 21l-24 -3l-12 -11l-30 -2zM248 1207l18 11l23 8l32 10l60 14l67 21l12 2h2l22 -7l11 7l5 9l31 -1l43 12l23 -3l21 9h14l45 11l58 6l71 14l48 3l22 1l4 -1l21 -10l55 12l47 -7l35 7l27 -13l13 7h20l27 1l15 -5l38 1l32 -9l40 -3
l38 -16l19 2l6 -1l28 -17l9 -6h4l9 3l25 -13l12 -20l27 -19l5 -14l7 -19l30 -23l-1 -23l12 -38l1 -28l-6 -27l-5 -42l-8 -18l-4 -4l-23 -16l-19 -27l-23 -10l-36 -25l-27 -2l-41 -24l-39 -7l-22 1l-13 -16l-15 -6l-153 -25l-15 -8l-22 -4l-23 -13l-31 4l-15 -8l-7 -3l-2 1
l-12 10l-19 -15l-14 -7l-11 -2l-7 1l-14 3l-33 -12l-17 4l-31 -9l-28 -17l-8 2l-18 10l-16 -14l-13 -11l-28 4l-22 -9l-26 -14l-12 -27l-7 -24l-13 -15l-3 -24l-21 -21v-18l-21 -20l-13 -27l-18 -30l-1 -6l1 -6l39 -37l91 -74l21 -14l-2 -14l11 -8l3 10l7 -1l5 -2l12 -10
l20 -18l16 -12l11 -26h4l6 5l20 -9l20 -12l54 -47l18 -12l30 -34l50 -32l17 -16l12 -7l18 -10l19 -23l75 -56l36 -30l34 -34l17 -25l22 -9l42 -36l20 -25l6 -24v-24l-17 -15l-45 -30l-16 -4l-26 6l-35 17l-20 5l-15 36l-3 3l-18 8l-26 10l-5 4l-30 38l-49 42l-19 24l-16 15
l-47 48l-27 18l-27 32l-45 36l-23 31l-16 17l-11 20l-40 30l-14 30l-23 7l-23 18l1 8l-4 9l-20 8l-13 8l-19 25l-16 12l-37 40l-16 13v11l-20 12l-5 -13l-14 -12l-27 -52l-11 -13l-6 -29l-46 -109l-14 -93l-8 -16l-10 -6l-15 -3l-38 9l-40 25l-9 10l-20 41l-9 18l4 28l12 47
l61 117l12 23l11 10l11 23l14 39l30 47l1 11l-1 11l-4 3l-26 20l-13 25l-22 15l-20 21l-8 32l4 11l59 45l35 21l37 12l60 30l26 6l14 7l2 3l25 60l15 19l25 60l9 8l6 9l7 25l11 44l6 8l21 9l-9 25l7 12l-12 22l-3 19l4 17l11 10l23 10l16 3l7 -1l36 -19l27 -18l11 -19
l15 -26l2 -35l1 -8l-1 -7l-17 -24l-23 -51l-28 -75l-7 -21l24 5l16 16l15 5l42 5l131 35l42 5l10 1h2l10 -8l14 3l2 11l13 10l14 4l17 -11l1 13l34 7l13 -2l6 14l3 2l17 2l30 3l9 5l26 18l36 15l97 31l15 16l20 27l3 14l-4 18l-13 20l-22 3l-13 9l-16 16l-14 -1l-21 8l-26 6
l-23 15l-21 -2l-40 21l-22 2l-2 8l-48 -6l-13 10l-33 1l-22 -4l-10 8l-23 -2l-56 8l-78 -7l-29 18l-21 -9l-28 -2l-28 1l-23 4l-5 -5h-21l-45 -8l-14 2l-22 -6l-66 -1l-19 -12l-19 5l-30 -1l-14 -20l-26 2l-14 -14l-29 -10l-27 -25l-19 -9l-7 -23l-11 -15l-28 -17l-36 -7
l-35 8l-19 19l-9 31l6 22z" />
    <glyph glyph-name="S" unicode="S" horiz-adv-x="1165" 
d="M259 17l-31 -16l17 3l42 8l78 26l44 10l18 15l15 3l24 17l32 12l-1 7l-39 -2l-40 -18l-55 -13zM406 145l29 7l25 19l50 21l23 15l39 11l35 15l21 1l27 20l24 4l11 12l48 36l24 26l48 68l20 20l14 42l13 18l-12 17l-8 26l-28 26l-13 15l-23 4l-23 8l-31 15l-7 6l-13 13
l-14 -2l-89 26h-14l-26 8l-23 3l-7 10l-22 6l-13 9l-43 -1l-21 6l-7 12l-29 -5l-25 13l-65 11l-16 10l-22 6l-12 10l-27 3l-20 14l-35 24l-9 16l-16 19l-4 8l-2 25l9 65l8 19l15 25l7 16l21 18l11 28l24 17l8 16l37 36l15 17l22 14l16 12l17 9l9 15l16 10l46 35l64 31l22 13
l23 8l21 5l13 21l36 6l20 19h27l15 15l12 6l66 12l65 25l26 -2l16 16l16 10l12 2h3l15 -9l25 6l34 2l44 9l39 -6l23 -11l2 14l4 5l5 4l5 1l7 -1l19 -9l18 -9l24 4l16 1l9 -2l13 -14l16 4l10 8l8 -2l11 -17l35 -2l7 -5l12 -12l11 -18l20 9h5l9 -1l3 -2l2 -3l16 -29l21 -21
l4 -14l18 -10l4 -5l1 -24l9 -14l7 -46l6 -20l-2 -37l-1 -49l-12 -22l-13 -19l-16 -7l-17 -10l-11 -1l-13 2l-9 7l-12 15l-13 12l-2 6l-1 7l3 13l10 17l17 13l21 10l-6 25l-13 12l-23 30l-21 15l-14 26l-25 -1l-23 6l-43 6l-43 13l-20 1l-55 8l-95 -13l-34 -2l-67 -17l-33 -2
l-77 -28l-16 1l-17 -12l-26 -10l-44 -21l-22 13l-15 4l-11 -14l-2 -21l-20 -13l-38 -10l-13 -13l-15 -2l-26 -16l-22 -5l-20 -27l-24 1l-13 -22l-20 -5l-21 -20l-43 -31l-11 -21l-24 -11l-7 -21l-33 -45l-3 -6l-1 -8l2 -11l5 -7l3 -2l28 -9l22 -15l22 -2l36 -14l12 -5l7 -16
h8l14 14l8 2l6 -2l20 -17l11 7l17 -4l21 7l29 -8l17 3l33 -15l25 6l23 -10l21 8l24 -13l19 -6l55 -6l31 -23l7 9l4 2l5 1l8 -2l58 -19l27 1l9 -5l3 -5l1 -5l-2 -8l-4 -15l4 -9l23 13l11 7l2 1l16 -6l46 -24l18 -19l21 -26l7 -19l4 -22l6 -17l1 -7l-2 -21l-6 -34l-14 -12
l7 -24l-14 -16l-28 -45l-19 -16l-5 -18l39 20l205 100l43 14l9 -2l4 -4l2 -5v-2l-12 -23l-8 -30l-9 -15l-6 -4l-29 -14l-15 -16h-11l-12 -17l-19 -7l-28 -5l-18 -14l-25 -10l-24 -14l-24 -3l-48 -32l-66 -19l-12 -13l-19 -7l-54 -36l-39 -12l-37 -28l-61 -39l-48 -24
l-36 -28l-20 -5l-30 -17l-17 -14l-69 -24l-54 -27l-40 -9l-44 -14l-31 -4l-42 -11l-28 -3l-43 -11l-25 5h-27l-18 13l-19 8l-2 4l-7 22l2 12l15 20l27 20l69 30l21 17l38 8l23 16l27 7l51 25l22 3z" />
    <glyph glyph-name="T" unicode="T" horiz-adv-x="710" 
d="M248 1226l16 14h28l33 16l14 3l20 13l42 11l20 17l110 32l16 8l21 -3l30 18l27 -1l13 6l22 1l24 17l30 -2l26 7l42 1l22 9l39 3l9 5l14 -3l21 11l41 -1l32 10l89 -1l28 9l56 -4l91 12l25 -3h3l13 7l21 -3l60 8l29 -2l27 2l31 -8l17 -20l11 -43l-8 -54l-2 -4l-4 -2
l-28 -12l-17 -8l-30 -2h-18l-20 5l-10 9l-10 14l-23 10l-31 12l-36 -1h-23l-22 -6l-60 3l-14 3l-32 -3l-25 3l-20 -5l-41 -3l-17 -9l-4 -5l-1 -6l9 -27l8 -20l-18 -27l-67 -53l-24 -40l-18 -7l-16 -16l-19 -25l-16 -43l-12 -13l-27 -38l-13 -7l-11 -13l-21 -5l-3 -39
l-14 -16l-13 -27l-25 -30l-31 -68l-22 -33l-23 -34l-28 -33l-4 -44l-9 -33l-13 -15l-19 -10l-1 -30l-25 -66l-24 -69l-37 -61l-25 -123l-22 -65v-3l11 -31l1 -11l-1 -8l-9 -26l-9 -29l-11 -14l-10 -6l-22 -4l-51 11l-35 25l-11 15l-12 36l-9 28l-4 22l3 20l20 85l4 35l18 55
l40 68l1 3l-1 13l5 30l12 17l55 106l33 33v39l25 35l11 24l36 39l19 46l36 42l37 61l20 21l30 11l16 53l42 43l10 21l45 50l30 45l45 39l16 22l20 19l5 5l8 25l26 12l10 16l-22 -1l-41 -9l-22 3l-42 -12h-21l-16 -16l-23 3l-24 -2l-21 -12l-60 -10l-61 -25l-26 4l-34 -26
l-50 -7l-44 -19l-21 -2l-48 -26l-21 -6l-14 -15l-27 3l-24 -25l-47 -23l-23 -36l-23 -22l-14 -18l-4 -1l-18 5l-20 21l-8 28l3 18l4 11l16 27l31 46l15 7l63 20l30 17z" />
    <glyph glyph-name="U" unicode="U" horiz-adv-x="1179" 
d="M489 1357l19 2l22 14l73 12l79 -7l19 -8l31 -31l20 -73l1 -21l-23 -62l-37 -75l-52 -82l-14 -30l-30 -54l-8 -23l-32 -48l-12 -35l-18 -27l-24 -61l-27 -35l-38 -83l-29 -36l-3 -29l-23 -48l-10 -49l-13 -22l-16 -65l-31 -93l-2 -51l-3 -55l3 -18l4 -6l20 -9l27 18l26 16
l51 52l21 13l19 27l34 -3l1 24l5 19l4 4l16 10l6 11l16 17l11 25l65 80l29 41l26 3l-4 22v1l1 10l1 2l56 76l12 25l15 14l9 -14l8 -2l-9 20v3l1 7l5 10l24 42l7 17l20 35l35 36l16 50l17 16l17 14l-4 21l26 54l43 84l26 39l40 61l19 13l25 17l35 18l45 4l11 5l13 -3l20 -4
l22 -17l15 -16l4 -18l-2 -16l-8 -19l-26 -46l-14 -21l-18 -13l-2 -25l-10 -13l-13 -29l-15 -21l-1 -21l-31 -68l-18 -62l-6 -8l-4 -2l-13 -3l11 -21l-27 -32l8 -27l-16 -29l-4 -23l-11 -25l-2 -21l-15 -31l-12 -23l2 -21l-13 -12v-20l-9 -9l-2 -24l-8 -16l-6 -52l-11 -33
l7 -23l-4 -38l9 -24l38 15l9 17l18 8l7 20l21 8l13 5l6 5l26 27l60 46l11 16l22 22l27 31l8 2l12 -4l13 -13l4 -15l-19 -69l-8 -19l-19 -13l-13 -21l-62 -42l-76 -62l-39 -10l-17 -17l-29 -11l-16 -13l-21 4l-14 -10l-25 14l-43 27l-5 7l-14 30l-15 25l2 41l-9 54l23 126
l-2 34l25 63l10 56l1 22l-8 -22l-9 -15l-27 -11l5 -36l-3 -6l-17 -15l-19 -13l11 -6l-7 -19l-14 -21l-16 -15l-18 -17l-7 8l-9 -20l5 -9l-3 -9l-12 -20l-23 -35l-14 -5l-10 -18l-14 -9l-2 -22l-48 -66l-30 -55l-14 -21l-12 -1l-11 -11l-11 -4l-6 -23l-20 -10l-15 -32
l-74 -54l-15 -10l-3 -1l-24 10l-5 -19l-7 -5l-24 3l-20 -3l-6 -1l-23 8l-43 31l-29 26l-28 41l-25 25l-5 24l-20 32l-3 24l-5 36l4 20l1 25l17 72l-1 21l24 69l9 41l7 11l5 4l24 5l2 8l-12 5l-2 3v4l1 6l11 25l5 31l27 36l6 24l24 44l18 49l28 35l10 31l23 26l16 31l21 23
l14 42l27 24l20 56l34 49l12 17l7 4l18 -2l4 4l-11 23l20 29l9 -7l12 -2l-6 27l13 61v4l-2 9l-8 9l-11 4l-23 -3l-12 11l-5 -12l-8 -8l-4 -2l-2 1l-21 4l-42 -21l-24 6l-13 -23l-31 -6l-14 -16l-28 -11l-16 -15l-23 -13l-18 -15l-21 -14l-12 -26l-21 -19l-15 -16l-2 -7v-52
l-1 -4l-15 -15l-10 -7l-38 -10l-36 9l-17 16l-4 16l3 53l5 33l19 22l43 37l42 25l40 33l68 34l19 14l72 32l28 15l3 1h24z" />
    <glyph glyph-name="V" unicode="V" horiz-adv-x="1094" 
d="M493 1115l15 1l5 15l13 10l31 16l72 33l90 21l40 -10l26 -26l10 -40l-4 -28l-9 -30l-4 -6l-10 -5l-2 -24l-42 -71l-13 -25l-17 -22l-17 -46l-13 -17l-11 -25l-35 -55l-7 -28l-21 -24l-17 -53l-24 -23l-3 -30l-14 -21l-38 -112l-51 -117l-1 -29l-13 -28l-4 -29l-15 -43
l2 -33l-3 -26l2 -22l22 16l11 12l22 15l16 35l14 11l16 22l19 21l16 29l31 44l48 72l21 34l18 18l22 41l8 4l4 1l2 -1l19 -11v25l-12 10l8 19l23 46l27 46l58 78l19 40l17 4l19 15l19 4l2 -14l11 9v10l-6 5l-14 1l-4 24l2 4l13 16l47 51l13 17l14 -5l8 1l1 20l13 16l2 11
l24 18l-2 17l18 10h23l15 13l-16 7l3 18l27 21l-1 12l3 7l4 6l41 38l36 43l44 31l10 24l32 3l5 4l2 5l-1 14l18 14l29 20l22 9l14 15l34 22l23 6h2l22 -2l15 5h24l15 -9l12 -2l5 -2l22 -27l13 -57l-13 -58l-30 -38l-24 -11l-45 -10l-46 -20l-27 -7v-12l-11 -10l-5 -11
l-27 -16l-9 -12l-12 -6l-7 -15l-22 -16l-15 -16l-36 -24l-11 -22l-20 -9l-31 -40l-36 -32l-26 -40l-27 -25l-33 -48l-26 -17l-17 -14l-3 -24l-19 -9l-7 -7l-3 -8l-4 -21l-17 -24l-17 2l-23 -31l-6 -22l-21 -14l-12 -29l-10 -5l-9 -22l-51 -58l-13 -25l-13 -11l-8 -31
l-86 -116l-62 -87l-16 -9l-6 -23l-17 -22l-17 -19l-9 -20l-21 -7l-26 -22l-41 -9l-13 -3l-5 1l-16 10l-21 13l-10 13l-24 11l-10 30l-29 74l-5 30l-5 23l2 20l8 42l-6 17l-1 15l14 14l2 30l12 18v39l2 12l3 6l14 19l1 35l4 7l4 3l16 3l-4 23l10 23l3 25l10 14l6 17l45 82
l9 27l25 2v14l-14 17v3l1 6l14 20l16 16l1 18l12 10l4 8l-5 10l8 24l25 47l14 49l17 23l1 17l7 22l-5 20l-32 -7l-19 -25l-26 -3l-15 -6l-4 -3l-18 -25l-32 -24l-34 -30l-66 -52l-17 -27l-12 -15l-13 -52l-12 -16l-14 -9l-33 -6l-25 4l-5 2l-15 25l-11 27l-1 6l3 15l24 32
l75 64l16 8l16 21l11 11l6 3l14 6l25 28l26 11l21 21l46 29z" />
    <glyph glyph-name="W" unicode="W" horiz-adv-x="1506" 
d="M446 1084l23 5l16 15l22 9l29 18l51 16l31 14l26 4l62 11l7 1l56 -5l18 -4l5 -2l13 -13l27 -25l13 -25l11 -42l-1 -9l-5 -35l-6 -24l-22 -26l-9 -12l-1 -4l-2 -13l-18 -14l-7 -22l-14 -33l-76 -131l-8 -32l-19 -36l-11 -24l-10 -9l-7 -25l-12 -14l-13 -45l-11 -14
l-23 -60l-29 -56v-23l-3 -24l-10 -3l-10 -17l-1 -38l19 5l17 16l40 28l11 28l17 7l24 24l26 17l20 32l43 44l13 25l19 13l12 19l18 10l10 22l31 31l30 44l13 8l23 7v25l6 13l60 74l10 24l15 14l19 12l-2 16l15 30l8 29l19 14l13 21l28 17v20l6 22l3 21l12 4l6 5l8 20l19 38
l6 5l28 17l30 19l32 -6l31 -7l4 -2l8 -14l8 -19l4 -25l-4 -17l-15 -27l-6 -26l-22 -33l-10 -35l-29 -59l1 -20l-4 -9l-29 -7v-23l-14 -46l-2 -19l-17 -18l-5 -37l-23 -59l-3 -20l-7 -15l3 -23l-21 -6l6 -35l-13 -28l-1 -18l-7 -27l2 -21l-2 -26l6 -45l-2 -30l5 -8l22 -23h22
l22 7l26 18l42 42l16 14l18 24l17 13l8 25l17 13l29 60l21 10l11 33l5 20l25 5l-1 20l13 12l5 20l39 76l5 20l27 41l2 23l20 43l9 50l24 41v27l24 32l-1 40l6 21l16 5l-4 14l-16 18l6 13v4l-1 16l-1 8l1 7l9 10l-7 22l-13 41v2l5 37l1 44l16 37l34 29l51 12l28 -4l18 -12
l9 -23l16 -45v-2l-7 -61l6 -41l-13 -23l4 -53l-32 -63l-5 -63l-24 -18v-43l-3 -20l-24 -23l-9 -36l-16 -45l-38 -49l-11 -34l-18 -13l-35 -86l-12 -14l-36 -66l-25 -11l-2 -24l-38 -57l-24 -41l-32 -8l-5 -29l-7 -15l-15 2l-1 -22l-4 -9l-13 -14l-53 -45l-58 -47l-37 -13
l-36 -14l-22 -4l-7 1l-32 10l-36 9l-18 12l-11 12l-14 24l-22 21l-12 53l-15 38l3 34l-1 37l7 36l12 24v35l13 36l7 22l-11 7l-4 -1l-4 -4l-9 -29l-32 -36l-20 -30l-27 -45l-8 -19l-25 2l-5 -30l-12 -16l-14 6l-4 -23l-15 -17l-20 -12l-21 -1l-6 -32l-22 -28l-14 -16h-18
l2 -13l-3 -7l-9 -8l-13 -7l-42 -39l-23 -7l-10 8l-5 -22l-7 -8l-21 -1l-5 -20l-21 -21l-8 -7l-47 -33l-15 -8l-27 -5l-15 3l-26 20l-26 19l-14 29l-26 58l1 4l11 50l9 45l22 36l1 36l13 25l16 47l16 32l16 18l35 75l23 42l29 64l16 18l12 16l-9 17l18 15l1 23l28 35l15 35
l20 34l5 27l15 13l22 46l22 31l20 50l6 15l-23 22l-21 -6l-24 3l-36 -26l-86 -22l-63 -37l-36 -11l-15 -22l-41 1l-9 -29l-7 -10l-3 -3l-29 -11l-42 -45l-48 -37l-33 -69l-64 -41l-23 -13l-21 14l-33 14l-7 5l-5 7l-2 10l12 37l87 88l60 37l27 25l65 30l66 46l28 11l37 18z
" />
    <glyph glyph-name="X" unicode="X" horiz-adv-x="1151" 
d="M534 1331h25l22 14l16 3l7 -1l25 -18l11 13l5 14l20 7h16l39 10l22 2l15 -1l63 -13l27 -3l36 -15l21 -8l17 -12l16 -28l15 -48l-5 -26v-36l-5 -11v-36l-17 -39l-4 -33l-14 -20l8 -30l-2 -32l23 25l38 39l37 26l19 29l70 52l49 57l39 31l24 22l8 2l7 -2l12 -10l8 5l-8 11
l10 32l39 29l25 32l26 19l41 9l53 -8l7 -5l15 -17l16 -13l6 -10l2 -12l-3 -17l-8 -18l-14 -18l-23 -11l-33 -8l-21 -14l-15 2l-19 -16l-20 -13l-7 -2l-18 5l-15 -36l-25 -10l-11 -1l-16 -20h-20l-11 -19l-16 -22l-3 -2l-36 -7l-22 -33l-22 -9l-12 -16l-22 -16l-9 -27
l-15 -15l-17 -20l-22 -16l-12 -19l-22 -18l-18 -18l-9 -20l-12 3l-13 -25l-18 -10l-1 -36l-20 -13l-13 -5l-3 -4l-1 -7v-2l3 -28l-11 -49l-3 -80l-8 -28v-15l-19 -37l1 -26l-1 -20l6 -32v-3l-7 -25l-15 -23l9 -13v-16l7 -15l1 -39l8 -27l-9 -23l18 -12l9 -18l4 -7l5 -3l7 -1
l13 1l25 -1l18 9l28 15l54 46l44 22l18 27l37 26l45 49l20 11l17 11l14 2l11 -2l9 -10l4 -18l-2 -14l-26 -46l-9 -14l-21 -26l-9 -5l-30 -10l-35 -54l-11 -7l-9 -3l-31 -6l-40 -41l-15 -12l-5 -1l-23 -3l-46 -44l-10 -7l-5 -1l-13 2l-30 -15l-28 -8l-12 12l-28 -4l-23 21
l-22 7l-12 10l-21 11l-15 20l-37 48l-5 9l-3 23l1 11l6 66l-6 20l14 58l1 2l-3 20l-4 24l25 10l-7 21l-6 26l1 16l-1 48h-7l-6 -22l-7 -22l-24 -25l-1 -20l-18 -7l-23 -19l-16 -12l-20 -34l-17 -5l1 -21l-26 -14l4 -15l-16 -18l-37 -44l-15 -12l-5 -21l-23 -17l-10 -21
l-15 -12l-35 -63l-20 -17l-3 -20l-4 -10l-5 -6l-21 -18l-10 -16l-28 -19l-48 -11l-34 7l-13 13l-10 29l-7 48l3 18l29 52l16 26l39 32l20 17l33 21l17 24l58 49l19 24l21 14l24 43l35 38l10 17l18 20l17 9l14 4l14 8l5 8l18 41l76 75l38 50l16 13l11 14l3 6l7 31l8 20l2 17
l8 21l-5 41l8 20h30l-14 24l-8 8l-2 11l9 31l5 16v2l-4 18l19 20l-5 26l3 23v24l13 45l-6 28l7 51l-16 19l-13 21l-20 7l-18 4h-4l-23 -7l-77 -4l-22 -15l-23 -4l-36 -24l-28 4l-21 -13l-52 -29l-25 -22l-9 -2l-26 9l-22 -26l-15 -7l-28 -1l-4 -26l-22 -8l-14 -12l-17 -15
l-30 -50l-21 -10l-23 -18l-23 -9l-23 -4l-14 16l-25 16l-5 6l-10 27l-2 17l4 22l8 15l35 25l65 41l68 37l108 35l17 12l54 19l19 12l33 7l16 11l18 9z" />
    <glyph glyph-name="Y" unicode="Y" horiz-adv-x="1034" 
d="M420 -421l-8 -31l10 -39l-6 -12l12 -24l13 18l11 13l35 60l12 9l3 37l14 13l10 13l8 27l3 20l24 32v26l2 9l28 54l14 27h18l-2 7l-11 5l-4 5l-1 6l1 4l18 20v20l7 14l2 19l10 16l9 36l11 9l1 16l14 35l9 45l6 21l-24 -26l-12 -17l-52 -55l-9 -17l-26 -34l-26 -43l-26 -41
l-15 -38l-43 -82l-11 -35l-6 -42l-25 -25l11 -10l2 -10l-1 -9l-10 -18v-28zM580 928l-20 -10l-6 -21l-28 -47l-7 -23l-21 -48l-20 -26l-24 -55l-20 -13l-6 -31l-13 -20l-5 -17l-13 -19l-4 -19l-24 -61l-7 -27l-13 -21l-16 -70l-9 -21l-1 -32l-14 -8l6 -30l-8 -31l5 -23
l-2 -29l20 -59l4 -6l8 -3l16 14l17 6l15 14l19 5l19 26l18 -2l14 20l16 13l40 54l26 16l56 72l29 24l11 25l81 106l9 22l33 52l36 59l21 22l3 21l4 12l19 20l31 49l28 62l34 50l25 69l17 21l5 26l21 8l4 22l6 23l11 11l21 9l7 20l11 18l18 12l26 5l31 -8l52 -53l24 -69
l-2 -14l-2 -5l-5 -3l-22 -12l-11 -9l-23 -34l-38 -87l-43 -118l-13 -17l-21 -66l-11 -17l-2 -38l-8 -30l-29 -52l-5 -18l-10 -9v-24l-12 -10l-6 -26l-4 -23l26 11l17 23l36 19l14 12l17 12l13 18l33 15l22 25l39 24l43 33l26 7l14 2l8 -2l6 -6l3 -12v-5l-2 -4l-22 -26
l-17 -46l-8 -13l-4 -3l-20 -8l-23 -17l-47 -22l-26 -30l-15 -7l-14 -15l-18 -9l-17 -12l-14 -2l-36 -39l-74 -63l-16 -33l-20 -33v-46l-5 -18l-26 -22l-1 -46l-3 -15l-33 -58l-1 -35l-20 -41l-15 -58l-11 -13l-28 -75l-13 -20l-9 -17l-29 -6l10 -22l2 -13l-4 -16l-17 -33
l-17 -47l-20 -36l-14 -14l-38 -81l-29 -39l-23 -20l-26 3l-10 -32h-29l-23 -26l-22 -4l-22 -6l-34 50l-25 18l-10 21l-20 49l-2 43l-6 20l3 17l-5 19l9 40l14 18l-7 27l19 56l8 25h10l9 24l16 10v27l18 23l14 28l12 10l6 20l12 16l14 17h17l6 4l-5 21l32 34l15 14l19 26
l30 -6l6 2l-6 29l9 11l9 29l8 4l17 -10l13 5l-8 18l2 11l31 22l12 4l10 19l4 19l23 7l25 24l18 18l12 38l10 28l20 12l-12 21l17 16v22l21 62l6 40l18 30l2 27l7 19l10 23l-16 -11l-7 -12l-21 -20l-53 -80l-17 -10l-3 -3l-10 -26l-8 -20l-26 -17l-7 -35l-23 -3l-8 -30
l-21 -5l-12 -22l-18 -30l-6 -5l-23 -13l-9 -11l-17 -12l-1 -26l-25 -10l-5 -4l-8 -33l-7 -15h-22l-15 -16l-27 -22l-27 -1l-11 -20l-23 4l-26 -3h-1l-16 4l-46 28l-31 29l-22 27l-5 11l-25 27l-6 20l-18 28l-3 27l-4 22l3 30l-2 20l16 68l-2 23l24 70l10 42l6 6l8 4l14 2
l4 6l-11 8l-1 6l1 8l11 24l3 26l26 37l8 27l20 38l17 47l21 23l16 41l20 25l14 26l22 26l10 33l27 30l23 59l17 22l26 36l21 1l-7 28l15 24l16 -5l7 1l-5 22l11 60l1 4l-3 9l-6 8l-9 3l-21 -4l-12 10l-7 -13l-15 -8l-12 4h-1l-9 -2l-31 -17l-26 3l-12 -20l-32 -9l-11 -12
l-29 -14l-53 -39l-19 -12l-5 -19l-41 -47l-2 -53l-6 -8l-28 -20l-28 -5l-37 10l-14 12l-3 9v3l5 27l-2 26l5 15l14 17l43 40l17 9l17 13l27 9l25 25l211 97l19 15l26 6l16 8l14 1l22 12l44 6l55 2l23 -7l28 -29l15 -63l-5 -37l-5 -12l-37 -53l-22 -49l-41 -54l-8 -19
l-20 -35z" />
    <glyph glyph-name="Z" unicode="Z" horiz-adv-x="1080" 
d="M274 -496l1 -5l7 -4l17 17l22 14l8 23l14 8l7 22l5 7l4 3l35 14l-3 32l35 48l30 60l15 7l18 12l12 26l20 44l11 29l19 16l14 15l8 14l14 40l40 40l9 30l30 42l16 42l16 17l26 54l7 22l-19 -8l-24 -17l-18 -7l-41 -37l-21 -17l-13 -21l-19 -6l-29 -39l-21 -6l-9 -7l-3 -4
l-7 -27l-24 -29l-14 -19l-21 -7l-16 -25l-28 -40l-11 -40l-23 -20l-6 -51l-26 -37l-8 -25l-3 -27l-11 3v-21l-20 -23l4 -13l-1 -4l-3 -8l-11 -18l2 -56zM349 1303l23 8l25 -7l54 -11l309 -153l40 -5l25 -10l41 -1l34 -6l21 4l15 -5l23 6l33 -4l28 5l16 -3l100 28l35 -3l18 3
l79 27l61 27l9 -2l5 -5l3 -12l-8 -31l-11 -14l-82 -62l-16 -26l-72 -43l-41 -31l-21 -8l-19 -18l-30 -20l-15 -20l-32 -11l-61 -50l-18 -9l-107 -107l-35 -19l-8 -28l-34 -24l-68 -96l-16 -7l-2 -10l-14 -20l-35 -34l-6 -19l-52 -51l-32 -59l-13 -28l23 9l113 54l67 30
l31 23l20 1l73 53l26 -1l18 10l12 5l9 16l4 5l10 4l27 8l27 12l28 5l23 1l15 -20l17 -13l2 -4l2 -10l-14 -61l-18 -38l-16 -16l19 9l48 30l30 11l61 42l65 32l20 14l16 5l15 9l5 1l14 -4l9 -9l2 -11l-1 -7l-16 -24l-13 -25l-21 -19l-12 -10l-71 -18l-21 -26l-12 -8l-10 -3
l-19 -2l-44 -32l-67 -28l-11 -16l-40 -6l-5 -23l-3 -12l-1 -2l-15 -17l-5 -22l-6 -13l-7 -6l-20 -4l-13 -31l2 -27l-25 -22l-15 -18l-16 -11l1 -16l-11 -16l-4 -16l-14 -5l-10 -24l-15 -25l-8 -20l-15 -2l-15 -54l-16 -15l-17 -30l-22 -39l-7 -24l-8 -15l-11 -9l-16 -10
l-15 -42l-19 -28l-28 -49l-28 -11l1 -24l-4 -10l-25 -28l-24 -46l-30 -45l-34 -41l-13 -19l-22 -10l-19 -25l-24 -5l-17 -14l-14 -2l-23 -7l-20 7l-27 15l-24 35l-8 33v3l1 29l-1 21l12 69l4 44l17 35l11 54l22 32l14 26l16 14l10 -9l-10 38l14 26l24 60l4 6l8 7l21 8l5 22
l7 13l29 13l20 10l-8 11l-2 10l1 7l3 6l41 43l17 28l30 11l20 36l56 35l58 45l24 14l29 14l14 20l96 56l13 34l12 16l8 19l-9 5l-16 -13l-65 -21l-22 -16l-30 -7l-76 -31l-28 -4l-102 -60l-43 -7l-37 -32l-73 -19l-66 -28l-13 -1l-10 1l-17 3l-15 -15l-19 10l-46 25l-6 10
l-2 12l1 9l5 8l57 72l18 30l21 17l56 69l39 18l5 30l17 30l23 25l25 22l13 21l21 15l14 18l32 29l209 179l59 44l44 32l137 92l51 37l75 43l15 15l-24 -3h-14l-33 -10l-55 -9h-6l-58 1l-5 -1l-38 -4l-17 7l-42 -5l-32 6l-24 -2l-19 11l-20 2l-13 4l-16 -4l-29 13l-33 -4
l-19 14l-38 10l-61 26l-37 12l-24 2l-16 14l-24 -2l-27 -4l-16 3l-10 -11l-17 -2l-24 -7l-14 -10l-33 -37l-19 -17l-9 -14l-5 -28l4 -23l19 -23l19 -18l25 -7l20 -15l13 -5l19 -12l25 5l18 -16l22 6l34 -3l25 3l33 -10l19 -3l44 6l58 14l51 6l2 2l41 30l19 7l12 20l17 11
l52 9l27 -5l12 -12l4 -14l-6 -20l-25 -25l-34 -22l-71 -10l-68 -23l-91 -6l-37 -10l-76 3l-19 -3h-2l-17 14l-26 -5l-27 19l-43 4l-22 13l-45 1l-17 16l-25 10l-16 9l-6 8l-17 34l-14 21l-1 13l-8 25l1 28l-4 17l5 20l-6 26l22 61l13 28l7 7l44 33l11 17l24 11l21 13l26 3
l23 5z" />
    <glyph glyph-name="bracketleft" unicode="[" horiz-adv-x="1119" 
d="M356 225l9 16v13l2 22l7 28l9 23l8 30l11 22l9 15l8 25l8 17v18l10 13l9 19l15 29l14 25l6 20l25 36l23 30l9 10v8v26l8 12l17 20l-9 -4l7 18l12 17l15 16l20 30l8 10l2 16l8 13l8 2l8 13l9 16l14 23l27 39l15 18l8 7l14 6l12 9l2 9l8 16l15 19l27 39l33 40l24 30l20 22
l3 14l11 12l15 8l17 19l21 21l9 14l12 11l8 11l48 56l32 29l28 24l16 20l6 7l7 4l34 6l39 9l44 8l27 2l50 2l23 9l30 -3l44 -4h34l25 -8l24 -5l24 -6l14 -13l13 -16v-25l-6 -22l-16 -15l-13 1l-23 -1l-12 10l-13 -3l-24 6l-8 9l-8 8l-14 -4l-17 -5l-15 3l-14 6l-17 -2
l-12 -2h-44l-18 2l-20 -11l-18 -6l-21 -3l-32 -11l-30 -30l-19 -10l-21 -15l-4 -18l-13 -10l-16 -15l-12 -12l-5 -9l-11 -13l-9 -2l-15 -9l-6 -15l-5 -18l-7 -7l-12 -4l-14 -14v-10l-9 -17l-12 -11l-5 -6l-13 -28l-8 -8l-10 -5l-16 -8l-5 -11l-7 -17l-23 -19h-9l-7 -9l1 -14
l-2 -23l-9 -14l-13 -17l-21 -29l-20 -37l-31 -50l-18 -30l-28 -30l-12 -14l6 -17l-1 -12l-6 -9l1 -12l-11 -25l-9 -11l-13 -14l-7 -10l-2 -23l-14 -43l-14 -30l-13 -46l-5 -24l-15 -18l-13 -15l-17 -35l-10 -37l4 -16l-7 -37l-10 -31l-8 -34l-6 -35l-2 -19l3 -14l-3 -12
l9 -14l7 -21l3 -9l11 -5l7 -4l9 -7l7 -4l14 3l12 5l16 6l20 -5l10 -5l19 6l37 1h9h13l19 -10l17 3l5 9l13 6l17 4l21 4l18 4l11 -2l18 -19l-4 -22l-2 -13l-12 -32l-6 -14l-11 -21h-23l-12 5l-11 7l-12 3l-20 -7l-22 -3l-13 5l-3 2l-14 -2l-27 -4l-19 -9l-25 3l-15 25l-31 8
l-24 -33l-21 -4l-21 -3l-12 7l-10 -5l-18 15l-22 2l-10 7l-7 17l-3 6l-15 1l-18 11l-7 6l-29 20l-5 22l4 17l-16 26v31l9 20l-8 29v16l4 12l5 12z" />
    <glyph glyph-name="backslash" unicode="\" horiz-adv-x="821" 
d="M624 222l-1 8l-2 11l-4 32l-10 114l-11 49l-1 17l-7 72l-4 23l-5 33l-8 44l-9 41l-10 49l-10 27l8 33l-10 20l10 35l-19 10l1 24l2 33l-15 7l-27 52l-19 84l-28 88l-32 107l-15 30l-25 32l-4 21l-11 49l-3 28l5 61l12 41l23 32l20 8l16 -4l3 -2l20 -26l20 -31l5 -13
l22 -49l43 -164l15 -31l31 -102l22 -75l10 -37l4 -23l17 -68l9 -53l9 -28l-12 -23l11 -13l6 -24l19 -109l15 -45l1 -29l9 -37l-2 -37l5 -32l10 -21l-3 -19l3 -36l7 -41l13 -92l10 -50l6 -37l16 -49l9 -31l5 -22l14 -24l50 -53l15 -24l8 -50l-9 -30l-17 -16l-31 -9l-22 -5
l-10 1l-28 5l-27 7l-17 11l-21 18l-5 8l-12 32l-10 19l-15 76l-8 28l-9 74l-6 43z" />
    <glyph glyph-name="bracketright" unicode="]" horiz-adv-x="1119" 
d="M140 44l11 -4l17 12l16 -4l17 -3l15 2l15 -4l18 -5l11 11l16 3h23l27 3l50 32l19 27l8 10l-7 16l14 27l11 17v22l4 36l7 41l13 31l3 17l5 20l16 29l4 18l10 14l14 14v8v11l1 8l7 17l10 10l2 20l16 25l12 18l17 33l32 43l17 16l-1 11l-4 19l4 22l20 24l14 20l2 13l12 10
l16 12l15 16l2 20l13 23l27 31l14 21l11 11l7 20l16 20l17 14l14 9l13 4l7 13l3 15v12l15 14l19 27l18 20l1 12l8 8l16 20l23 13l10 26l13 26l19 17l15 18l15 20l12 7l19 21l11 9l18 17l7 21l-10 21l-10 6h-6l-12 -1l-19 -8h-9l-21 4l-22 2l-24 -11l-6 -3l-4 1l-16 6l-17 3
l-25 -7l-24 -1l-21 -3l-20 -7l-24 -4l-33 -1l-18 -1l-7 1v13l-5 4l3 21l13 18l8 15l4 12l24 10l16 5l28 2l33 -3l25 3l17 -3l23 3l28 4l35 1l14 -4l33 1l19 -3l18 4l32 4l29 -13l25 -2l16 1l9 -9l7 -12l8 -7l3 -10l-5 -7l1 -3l6 -6l7 -12l2 -23l-7 -19l-5 -11l-28 -30
l-29 -28l-17 -19l-7 -13l-9 -2l-15 -7l-7 -8v-12l-7 -11l-14 -11l-23 -15l-5 -15l-1 -19l-9 -10l-10 -9l-10 -10l1 -13l-8 -14l-23 -11l-12 -13l-13 -17l-6 -12l-13 -3l-9 2l2 -7l3 -16l-10 -18l-14 -14l-9 -3l-1 -7l6 -9l-2 -16l-11 -13l-14 -7l-17 -15l-11 -10l-3 -14
l1 -15l-7 -27l-7 -15l-17 -17l-12 -5v-12l-5 -17l-15 -22l-9 -16l-5 -28l2 -18l-13 -21l-9 -9l-11 -10l-11 -11v-10v-10l1 -1l-1 -14l-19 -31l-12 -33l-14 -59l-9 -16l-8 -15l1 -6v-13l-8 -13l-17 -28l-7 -21l-7 -51l-19 -94l-9 -38l-17 -51l-3 -20l-4 -21l-4 -20l-33 -26
l-33 -17l-44 -10l-34 -2l-27 4l-23 -3l-17 -11h-63l-20 6l-12 1l-14 -8h-7h-13l-27 3l-34 -6h-29l-24 -3l-22 10l-19 2l-24 -2l-20 6l-5 10l5 3l-10 1l-10 9l1 12l1 14l9 1l-3 16l9 10l18 13l9 11l20 11l19 1l31 -9z" />
    <glyph glyph-name="asciicircum" unicode="^" horiz-adv-x="735" 
d="M652 1261l1 27l17 17l6 22l34 30l19 48l27 37l29 38l11 7l9 2l19 -5l16 -16l7 -24l-7 -28l-10 -19l-25 -32l-42 -40l-63 -97l-24 -7l-10 3l-8 8l-6 27v2zM193 -105v5l23 78l46 85l23 53l5 5l15 11l17 13l2 1l21 -12l21 -22l4 -15l-2 -12l-14 -31l-30 -54l-15 -88l-9 -19
l-48 -42l-13 -7l-5 -1l-6 1l-15 15l-8 10zM123 512l8 22l23 1l6 21l11 24l4 4l60 47l20 23l43 35l87 56l81 39l22 11l-18 12l-8 -2l-25 -17l-22 5l-28 2l-19 7l-32 36l-15 51l11 42l37 52l62 52l22 20l27 11l21 17l12 15l25 5l40 20l41 15l30 14l42 25l22 2l60 23h24l21 5h5
l36 -5l22 -4l19 -13l16 -8l18 -17l2 -22l4 -24l-2 -8l-6 -6l-10 -2h-2l-1 1l-39 23l-4 2h-6l-14 -2l-72 -19l-32 -11l-39 -22l-15 -2l-30 -16l-24 -4l-29 -28l-31 -14l-19 -15l-29 -4l-9 -4l-7 -5l-45 -46l-38 -29l-9 -11l-18 -25l7 -9l4 -2l7 -1h2l36 4l62 1l56 14l56 15
l60 20l38 22l9 1l30 -8l23 -24l9 -33l-4 -24l-14 -20l-15 -10l-13 -5l-50 -29l-57 -17l-54 -32l-49 -20l-44 -31l-40 -21l-20 -19l-33 -16l-65 -68l-28 -18l-47 -56l-20 -3l-8 -21l-38 -61l-8 -17l-4 -43v-24l8 -43l4 -4l5 -1v0l20 2l32 -14l16 3l11 -4l17 2l24 -3l26 11
l31 11l13 14l42 22l40 31l43 39l11 3l9 -3l11 -12l18 -58l-2 -11l-23 -35l-21 -25l-10 -7l-73 -31l-50 -22l-41 -2l-76 -7l-17 9l-33 5l-19 11h-22l-28 16l-22 10l-23 24l-26 23l-16 25l-8 77l-1 18l4 34l9 20l31 49l3 13z" />
    <glyph glyph-name="underscore" unicode="_" horiz-adv-x="1024" 
d="M0 -410v137h1024v-137h-1024z" />
    <glyph glyph-name="grave" unicode="`" horiz-adv-x="464" 
d="M303 826l4 -10l19 -21l1 -8l-2 -11l-6 -5l-30 -6l-23 2h-28l-19 22l-24 23l-1 22l-18 27l-7 18l-7 9v27l-25 52v4l5 19l21 21l32 9l10 -1l23 -7l32 -1l10 -7l7 -18l13 -83l16 -55z" />
    <glyph glyph-name="a" unicode="a" horiz-adv-x="842" 
d="M419 340l5 14l42 31l9 18l16 12l35 34l19 20l16 25l-21 -6l-13 -1l-16 1l-63 9l-4 -1l-21 -11l-44 -11l-61 -36l-22 -8l-15 -17l-57 -43l-11 -20l-25 -24l-7 -18l-26 -16l-10 -30l-19 -26l-2 -12l1 -8l1 -28l6 -8l3 -2l11 -2l42 14l100 56l14 16l91 56l17 15zM10 252
l8 14h10l-3 22l9 20l42 60l5 15l26 25l16 25l34 25l37 40l65 42l61 42l35 14l33 21l49 14l34 15l20 -11l19 10l6 1l23 -8l32 -26l9 -22l4 -27l11 -22l15 13l21 32l24 20l42 11l23 -6l17 -16l6 -32l-9 -47l-25 -54l-25 -34l-23 -66l-9 -16v-34l-4 -32l3 -12l3 -4l7 -1l7 1
l14 9l33 32l20 12l35 35l10 3l16 25l34 21l22 27l16 15l8 1l9 -2l11 -12l5 -23l-6 -26l-17 -32l-7 -36l-16 -12l-42 -45l-18 -7l-23 -32l-24 -7l-13 -14l-20 -6l-10 -17l-31 -14l-52 -16l-21 5l-19 9l-19 4l-13 28l-13 22l-1 9v5l5 23l-10 11l1 21l-1 27v1l2 15l4 24l-5 5
l-20 -17l-22 -6l-12 -30l-19 -11l-9 -12l-19 -10l-19 -15h-17l-10 -19l-10 -14l-74 -55l-26 -24l-29 -17l-85 -49l-37 -7l-56 13l-34 26l-5 9l-8 33l-12 31v25l2 18v0z" />
    <glyph glyph-name="b" unicode="b" horiz-adv-x="545" 
d="M202 601l-1 -26l35 24l16 35l23 16l17 25l35 42l19 29l17 18l34 51l24 20l8 30l18 28l18 17l5 11l19 21l8 24l82 141l2 21l14 22l11 46l15 37l-2 19l4 24v24l-18 -14l-14 -30l-36 -39l-42 -68l-20 -28l-13 -29l-77 -100l-27 -64l-41 -48l-5 -14l-3 -21l-12 -5l-6 -6
l-11 -23l-30 -63l-7 -19l-16 -19l-12 -31l-13 -21l-4 -20zM27 289l13 10l-13 30l-4 29l9 54l18 23l-6 21l-6 23l20 68l3 24l17 1l-2 33l26 47l8 40l17 25l30 81l22 17v22l7 13l5 15l17 12l8 26l22 28l15 39l23 19l16 35l18 6l3 6l-3 13l7 16l22 35l21 17l77 119l62 60l19 35
l12 3l13 18l24 23l63 41l17 4l18 -4l23 -26l15 -35l9 -30v-3l-14 -32l-2 -27l-8 -28l-3 -24l-11 -33l-7 -26l-24 -50l-6 -15l-15 -15v-26l-10 -15l-11 -26l-17 -29l-10 -24l-12 -17l-5 -22l-25 -34l-23 -47l-21 -27l-9 -30l-21 1l-2 -34l-13 -10l-17 -28l-21 -10l-5 -11
l1 -17l-18 -23l-8 -14l-6 -5l-4 -1l-19 1l-2 -36l-2 -15l-2 -3l-19 -15l-62 -90l-22 -9l-10 -4l-6 1l-23 16l-19 14l-5 -24l-8 -37l-15 -24l11 -20l-3 -22l-2 -27l-5 -22l5 -46l-2 -41l7 -15l9 -40l8 -2h5l3 2l16 18l18 11l33 35l12 35l-1 24l-23 6l-27 6l-4 5l-6 28l3 19
l11 17l19 20l13 21l21 21l13 5l29 3l31 18l40 -9l35 11h3l13 -2l12 -7l9 -11l8 -22l23 -2l25 3l9 5l64 48l51 33l12 9l21 3l18 20l5 2l8 1l15 1l5 -1l4 -4l1 -7l-2 -15l-7 -36l-19 -14l-24 -35l-21 -16l-11 -20l-11 -4l-15 -18l-17 -17l-14 1l-15 9l-7 -10l-3 -21l-33 -23
l-16 13l-17 -13l-13 -21l-27 -5l-25 -5l-27 3l-13 -24l-37 -66l-5 -4l-36 -19l-41 -52l-20 -5l-66 -23l-25 -1l-18 -2l-33 8l-26 18l-23 20l-22 58l-16 61l-1 13l3 17z" />
    <glyph glyph-name="c" unicode="c" horiz-adv-x="647" 
d="M16 363l16 7l4 21l9 27l4 6l18 16l14 18l19 9l3 24l13 14l12 16l22 11l19 19l24 16l16 17l22 11l28 25l16 8l16 4l25 1l30 19h3l12 -2l20 -6l21 15l11 2l24 -6l23 -10l27 14l39 -21l16 -32l9 -38l-4 -16l-15 -16l-27 -20l-26 -9l-9 2l-16 14l-22 3l-30 8l-4 1l-22 -6
l-20 -9l-8 15l-9 -3l-8 -14l-14 -12l-10 -2h-1l-9 2l-13 -16l-25 -13l-23 -22l-36 -17l-9 -7l-12 -25l-34 -51l-13 -18l-20 -14l-8 -10v-32l-15 -17v-25l-8 -32v-3l4 -16l13 -13l24 -6l18 3l13 5l39 2l55 16l21 5l12 17l12 10l8 3h24l13 17l57 26l26 24l29 6l34 25l25 10
l19 15l24 25l22 10l16 14h21l17 26l36 27l20 13l6 1l9 -3l6 -5l3 -8l-6 -19l-13 -2l10 -19l2 -12l-4 -19l-6 -7l-23 -13l-4 -7l-1 -22l-19 -7l-17 -12l-23 -17l-19 -19l-18 -19l-8 9l-13 3l-9 -18l-20 -19l-67 -43h-16l-10 -20l-29 -21l-12 -11l-8 -5l-4 -1l-18 3l-17 -16
l-18 -3l-2 -1l-9 -8l-16 -17l-6 1l-20 14l-10 -6l-1 -14l-7 -8l-24 -5l-33 -8l-7 1l-16 7l-19 12l-40 -13l-25 19l-23 11l-21 12l-7 26l-23 14l-11 11l-3 8l-11 38l-8 23l-1 9l3 16l16 42l14 48z" />
    <glyph glyph-name="d" unicode="d" horiz-adv-x="857" 
d="M713 803l-10 -25l16 11l13 25l18 24l15 20l19 9l14 29l77 107l30 70l12 12l6 22v29l-12 -4l-17 -32l-12 -11l-17 -30l-9 -6l-18 -42l-14 -22l-7 -23l-15 -11l-15 -17l-16 -15v-22l-13 -13l-1 -24l-28 -29zM358 395l14 20l17 11l7 21l18 17l26 37l20 28l11 25l-23 6
l-52 -16l-34 -1l-45 -25l-23 2l-16 -22l-19 -16l-25 -22l-22 -5l-12 -25l-17 -22l-28 -20l-10 -28l-18 -23l-9 -22l-19 -24l-8 -30l-16 -36l-1 -8l7 -24l13 -15l10 -2l10 1l42 26l80 62l82 82l33 24l2 5zM-40 225l5 20h11l-6 34l38 77l3 14l21 36l25 53l37 44l29 39l34 26
l18 24l32 21l19 15l18 5l31 25l19 7l28 14l15 1l19 7l21 -7l18 13l16 3l17 -3l28 -24l16 -19l9 -27l9 -20l17 17l9 21l21 33l29 69l13 22l9 36l35 57l14 47l15 11l9 24l25 41l13 35l7 9l5 4l30 17l-2 22v1l2 9l19 27l34 41l44 67l48 58l34 37l20 5l41 -12l34 -33l5 -19
l-2 -11l-10 -34l-3 -25l-42 -95l-32 -92l-2 -1l-13 -12l-14 -29l-28 -32l-1 -29l-16 -10l-13 -36l-31 -47l-12 -24l-14 -3l-7 -8l-4 -37l-5 -7l-6 -4l-18 -3l-14 -42l-6 -5l-36 -14l2 -34l-34 -44l-9 -24l-11 -12l-6 -16l-15 -87l-11 -59l2 -28l-3 -11l12 -44l-3 -22l13 -18
l19 14l47 23l16 14l21 13l17 24l20 8l16 18l71 62l22 28l42 33l11 3h1l15 -11l-7 -23l7 -41l1 -3l-3 -10l-15 -17l-25 -19l-9 -24l-29 -16l-21 -24l-23 -15l-13 -27l-23 -1l-7 -20l-12 -13l-14 4l-27 -34l-26 -2l-34 -21l-25 -2l-25 -6l-19 5l-51 15l-13 12l-33 39l-3 6
l-6 28l-14 40l-10 81l-3 9l-2 3l-11 6l-2 -13l-9 -5l-9 -25l-14 -6l-9 -6l-7 -7l-20 -29l-32 -31l-7 -15l-12 -21l-20 8l-10 -26l-4 -17l-1 -2l-20 -7l-5 -21l-15 -5l-18 -12l-8 -19l-8 -16l-3 -3l-27 -4l-13 -21l-41 -28l-55 -13l-49 10l-28 16l-5 8l-14 33l-14 24l-7 55z
" />
    <glyph glyph-name="e" unicode="e" horiz-adv-x="595" 
d="M164 422l-7 -23l8 -3l19 13l36 16l45 35l15 9l25 21l14 9l7 13l16 4l15 19l12 9l25 17l-7 10l-9 4l-25 -8l-29 -4l-18 -10l-38 -14l-24 -19l-37 -26l-11 -9l-4 -6l-12 -31zM135 558l20 12l44 35l51 21l31 20l14 -3h5l27 7l20 6l39 2l24 1l17 -5l43 -9l21 -10l20 -24
l5 -20l-5 -26l-24 -37l-37 -31l-20 -5l-15 -18l-16 -9l-21 -18l-25 -1l-4 -3l-9 -9l-15 -22l-18 -1l-18 -12l-5 -15l-22 -10l-26 -21l-17 -13l-19 2l-8 -13l-2 -20l-15 -3l-12 -11l-11 3l-22 -20l-25 -1l-6 -24l-8 -36l5 -18l7 -7l8 -2l59 2l32 1l46 20l23 2h21l20 23l20 9
l23 6l10 17l7 7l8 5l31 8l19 24l32 11l16 20l30 8l18 21l27 19l11 9h9l7 -14l1 27l26 22l26 12l11 26l20 10l14 7l3 1l5 -2l4 -3l2 -5l-1 -1l-4 -28l3 -31l-18 -25l-11 -39l-14 -8l-23 -20l-16 -6l-30 -36l-24 -24l-16 -13l-7 10l-13 -3l-4 -17l-4 -9l-4 -3l-30 -17l-13 -12
l-24 -3l-20 -28l-43 -13l-58 -34l-17 -4l-73 -27l-21 -4l-12 2l-18 13l-24 -6l-32 -4l-12 3l-17 10l-38 19l-11 30l-18 -2l-23 73l-26 12l-5 7l-2 16l7 30l10 20l22 23l14 53l8 8l8 22l10 18l17 28l9 20l8 10l16 11l22 12l3 10l3 20l1 4z" />
    <glyph glyph-name="f" unicode="f" horiz-adv-x="433" 
d="M-131 -533l-7 -24l12 -2l11 22l23 9l6 21l14 7l6 14l31 16l10 24h21l11 32l12 13l15 28l20 13l6 28l17 19l8 18l15 17l-6 24l14 18l16 23l9 24l30 62l3 33l15 28l-1 50l-11 28l-22 48l-10 9l-21 12l-5 2l-11 -4l-20 -15l-1 -36l-1 -4l-6 -7l-19 -12l2 -21l1 -26l-30 -62
l-9 -36l-8 -9l-6 -3h-17v-33l-8 -48l-3 -23l-21 -24l-7 -23l-10 -18l-6 -27l-11 -20l-15 -41l-4 -23l-28 -79zM-189 -279l12 11l4 24l28 75l8 30l18 21l6 27l16 51l31 58l26 72l26 28l1 15l-18 11l-20 18l-1 5v3l2 2l39 21l22 12l4 20l31 43l6 39l10 15l13 32l20 25l1 23
l-14 -5l-23 -30l-11 -1l-17 -15l-30 -39l-20 -7l-22 -26l-8 -4l-9 -1l-12 3l-10 10l-2 8l5 34l6 43l23 24l23 23l71 57l14 16l24 23l15 24l18 12l10 18l62 58l12 17l34 74l22 30l29 105l24 56l6 26l24 60l16 48l14 23l10 29l14 17l6 29l12 15l20 63l27 41l18 35l25 21l18 4
l19 -5l20 -22l14 -44l6 -56l2 -28l-1 -3l-16 -91l-10 -37l-3 -3l-21 -8l-4 -3l-2 -4l-1 -4l2 -5l17 -6l-10 -24l-11 -21l-14 -14l4 -11l-1 -11l-12 -22l-30 -43l-26 -52l-44 -54l-21 -48l-33 -34l-5 -27l-13 -22l-19 -51l-14 -18l-19 -54l-10 -26l-19 -7l-5 -6l2 -33
l-17 -31l-11 -40l-24 -24l-6 -35l-4 -21h5l4 7h27l11 14l18 10l9 11l13 3l19 16l15 -8l11 5v20l2 3l21 17l32 21l24 12l26 22l24 10l13 13l32 7l25 21l40 29l18 18l6 1l10 -3l10 -10l4 -16l-4 -16l-13 -17l-17 -13l-4 -26l-7 -13l-16 -4l-11 -16l-12 3l-20 -22l-13 -3h-2
l-16 -12l-29 -18l-55 -41l-29 -25l-19 1l-16 -22l-23 -9l-83 -65l-16 -3l-19 -27l2 -10l4 -7l18 -7l17 -26l14 -12l44 -78l10 -33l3 -27l-5 -43l-8 -18l-13 -17l2 -45l-15 1l-10 -7l-3 -34l-17 -15l-8 -33l-8 -13l-19 -16l-21 -14v-25l-4 -13l-6 -7l-12 -9l-28 -34l-12 -8
l-10 -19l-40 -37l-14 -21l-9 -2l-13 -22l-45 -37l-38 -43l-14 5l-10 -20l-15 -12l-13 -15l-15 -9l-28 -27l-26 -11l-12 -14l-17 -16l-19 8l-18 24l-11 13l-1 29l-13 20l-2 21v28l44 121l14 50l4 10l2 2l12 7l1 25l9 38z" />
    <glyph glyph-name="g" unicode="g" horiz-adv-x="692" 
d="M93 212l-7 -23l9 -4l23 9l34 15l24 21l37 -1l13 17l21 4l19 21l36 20l13 18h11l12 17l32 16l29 35l15 10l12 14l17 7l19 29l22 9l5 4l5 8l12 31l-22 -1l-25 -12l-18 -1l-32 -16l-18 -7l-27 -21l-21 -7l-17 -19l-8 -6l-8 -3l-25 -4l-16 -21l-11 -5l-23 -21l-27 -8l-7 -13
l-25 -16l-20 -25l-15 -8l-21 -17zM-59 -385l7 -23l22 6l61 26l37 31l36 18l15 18l17 14l7 19l25 17l17 14l18 21l9 18l12 7l7 19l18 5l2 4l9 19l23 41l24 32l21 38l19 22l-4 6l-29 -3l-15 9l-16 -17l-23 -5l-27 -15l-25 -4l-41 -24l-18 -6l-16 -15l-40 -26l-22 -35l-21 1
l-10 -23l-40 -38l-22 -47l-15 -20l-5 -27l-13 -30l-7 -32zM149 15l18 12l24 5l23 10l18 4l39 29l22 5l44 16l84 17l24 43l18 33l6 28l34 60l-2 17l1 11l6 9l15 16l-4 26l5 15l10 18l-20 -8l-33 -24l-14 -4l-20 -25l-14 -7l-9 -13h-7l-11 -16l-12 -10l-17 -6l-21 -2l-24 -36
l-25 -10l-15 -16l-28 -6l-7 -27l-44 -12l-19 -21l-18 -5l-83 -46l-30 -3l-23 12l-38 27l-17 51l-3 23l-20 -7l-16 -4l-9 2l-8 10l-5 18l5 20l12 17l23 15l37 44l12 14l82 75l54 56l74 47l43 31l58 22l66 24l48 2l53 30l28 4l19 10h22l18 -4l8 -7l16 -34l7 -23l14 18l19 15
l14 3l14 -3l13 -14l12 -61l-5 -52l-4 -10l-36 -59l-22 -82l-16 -37l-23 -57l-15 -17l-1 -18l-13 -33l-4 -17l-15 -30l24 -16l41 -43l8 -28l-6 -22l-22 -21l-43 -14l-15 3l-35 17l-28 4v-14l-15 -13l-24 -46l-13 -19l-18 -3l-11 -23l-6 -28l-13 -20l-14 2l-10 -18l-45 -73
l-33 -13l-4 -23l-21 -20l-20 -22l-24 -10l-6 -20l-8 -15l-7 -7l-60 -41l-21 -26l-45 -26l-40 -33l-28 -10l-26 -13l-9 -2l-21 7l-38 38l-15 57l1 7l8 43l3 34l19 53l33 77l50 68l14 31l24 23l9 14l20 15l32 34l52 42z" />
    <glyph glyph-name="h" unicode="h" horiz-adv-x="916" 
d="M39 456l23 9l15 24l33 28l31 32l29 27l30 51l12 34l9 11l10 21l13 5l2 25l6 18l25 40l116 245l32 46l69 126l36 42l14 30l16 15l20 31l13 9l16 3l20 -4l18 -14l21 -39l9 -28l-4 -24l-9 -30l-6 -45l-7 -35l-20 -17l-2 -23l-9 -32l-4 -23l-30 -48l-14 -46l-19 -18l-18 -41
l-26 -35l-11 -24l-62 -80l-14 -18l-21 4l-15 -4l-3 -3l-1 -3l1 -26l-1 -8l-6 -8l-30 -34l-23 -38l-17 -22l-15 -46l-31 -52l-16 -47l-16 -22l-9 -22l-10 -28l17 2l14 21l14 20l38 33l20 26l21 15h10l9 5l4 18l25 7l14 27l21 10l25 28l88 49l81 20l36 -4l41 -13l27 -28l9 -34
l-1 -14l-15 -72l-5 -41l-20 -48l-12 -53v-5l2 -31v-19l11 -7l21 19l18 5l30 37l48 28l17 26l19 11l34 27l49 36l17 10h4l9 -2l6 -6l2 -9v-3l-10 -29l-6 -35l-19 -37l-12 -22l-19 -7l-14 -17l-41 -22l-12 -17l-16 -13l-12 7l-3 1l-5 -1l-4 -3l-13 -31l-19 -13l-11 -14l-25 2
l-5 -8l-1 -19l-55 -33h-8l-35 -7l-17 13l-23 8l-7 4l-3 6l-14 32l-12 25l1 20l-3 16l7 20l-4 53l8 27l7 52l14 42v9l-1 23l-2 24l-29 13l-11 1l-21 -30l-8 -4l-19 5l-13 -19l-13 -15l-4 -1l-21 -7l-20 -19l-19 -5l-22 -20l-13 -9l-8 -15l-16 -3l-13 -19l-21 -10l-8 -16
l-24 -15l-12 -25l-23 2l-17 -6l-8 -33l-36 -38l-33 -39l-18 -11l-9 -22l-10 -16l-25 -17l-16 -14l-21 7l-15 18l-15 32l6 24l-2 23l10 36l25 58l20 53l11 27l-30 -20l-18 -11l-5 -1l-9 3l-8 9l-5 19l5 32l13 36z" />
    <glyph glyph-name="i" unicode="i" horiz-adv-x="630" 
d="M486 1035h4l19 -7l24 -16l17 -20l6 -19l-1 -6l-4 -27l-6 -37l-3 -3l-22 -17l-14 -7l-10 -1l-39 15l-22 20l-10 52v4l8 40l8 11l24 10zM-2 426l14 15l13 1l26 20l23 29l45 27l29 27l31 2l12 17l21 13l21 20l35 24l31 16l11 1l28 -8l34 -28l20 -24l9 -33l-8 -46l-20 -56
l-15 -47l-13 -13l-8 -20l-12 -13l5 -29l-12 -19l-1 -45l-12 -13l4 -7l16 5h29l13 16l21 10l14 12l49 22l153 118l17 -4l5 -6l2 -10l-7 -27l-15 -30l-14 -32l-18 -19l-12 -17l-16 -10l-21 -20l-26 -18l-51 -46l-27 -15l-12 -16l-27 -7l-14 -13l-14 -11l-18 -6l-22 -2l-21 -19
l-25 -1l-16 -4h-2l-24 10l-14 9l-20 18l-3 9l-3 42l-9 32l-4 29l3 20l14 48l5 32l9 9l13 45l15 22l6 25l17 35l-5 9l-9 2l-21 -13l-15 3l-16 -14l-15 -4l-19 -14l-15 7l-10 -5l-8 -27l-4 -3l-27 -10l-23 -8l-11 -25l-19 -16l-12 -11l-11 -3l-13 4l-8 8l-3 11v3l6 40z" />
    <glyph glyph-name="j" unicode="j" horiz-adv-x="417" 
d="M-256 -676l10 -20l17 15l40 21l18 24l14 2l-3 24l55 108l12 20l8 2l-8 16l10 27l4 25l8 16l21 49l10 19l38 103l21 49l6 28l-18 -13l-69 -67l-22 -14l-17 -27l-56 -67l-37 -82l-31 -58l-5 -29l-17 -43l1 -35l-14 -29l-3 -22zM342 1078l4 9l28 5l23 3l36 -11l40 -39l8 -22
l-1 -6l-14 -23l-17 -30l-2 -3l-4 -2l-38 -7l-21 4l-12 7l-17 30l-17 35l-3 16zM129 160l13 13v24l30 89l-1 30l11 24l19 49l5 10l11 62l9 31l-1 21l-25 -15l-39 -27l-19 -10l-15 -24l-29 -22l-7 -18l-47 -29l-4 -19l-10 -9l-12 -4l-15 5l-17 17l-10 33l1 25l15 14l17 22
l26 14l19 21l39 28l17 23l28 24l19 14l22 9l29 19l49 47l26 17l13 14l12 8l9 1l28 -9l39 -38l12 -44l-2 -9l-30 -94l-9 -69l-11 -17l-4 -22l-10 -19l-7 -43l-29 -89l-17 -68l-27 -58l-3 -31l-3 -29l-14 -11l-12 -51l22 6l63 13l18 7l120 12l71 8l5 -1l30 -9l29 -9l18 -12
l22 -35l8 -41l-7 -33l-11 -12l-34 -6l-24 -3l-13 5l-6 7l-16 32l-7 8l-11 4l-47 6l-23 14l-28 6l-24 8l-29 -5h-28l-52 -14l-17 4l-34 -16l-25 -9l-7 -8l-1 -4l-1 -27l-10 -13l-7 -19l-18 -18l4 -20l-4 -17l-1 -11l-38 -53l1 -42l-20 -23l-13 -41l-14 -14l-6 -24l-22 -35
l-17 -55l-13 -10l-6 -24l-6 -20l-10 -9l-7 -22l-15 -18l-14 -38l-23 -22l-9 -22l-45 -70l-28 -31l-51 -36l-19 -14l-16 -6l-5 2l-12 6l-13 6l-16 22l-15 14l-12 25l-10 17l-4 45v9v33l1 42l21 69l6 32l15 29l4 23l18 25l15 51l15 24l9 23l21 24l21 32l28 16l34 60l23 29
l34 29l19 23l61 42l34 33l24 16l23 75l16 36l4 35l14 34z" />
    <glyph glyph-name="k" unicode="k" horiz-adv-x="899" 
d="M-37 371l19 32l12 11l8 20l10 6l13 23l53 51l45 66l57 65l15 33l18 29l8 20l15 16l20 50l14 32l13 31l22 37l10 27l17 18l10 20l6 25l23 35l14 45l8 20l25 9l-4 20l-2 2l2 6l4 6l12 13l55 86l25 20l31 10l18 -4l6 -6l8 -24l13 -29l2 -21v-30l-6 -62v-14l-33 -80l-19 -51
l-30 -47l-29 -56l-22 -22l-17 -12l-8 -25l-25 -33l-12 -24l-31 -29l-28 -45l-31 -37l-12 -24l-27 -60l-6 -26l-8 -17l-11 -10l-16 -12l-4 -25l-12 -35l2 -22l-17 -6l-2 -33h6l7 16l18 12l21 9l8 22l28 33l58 55l14 17l23 4l-2 18l47 45l22 19l23 18h22l13 21l36 26l50 19h2
l18 -2l23 -2l28 -17l23 -18l16 -29l10 -47v-6l-10 -23v-24l-12 -15l-10 -20l-17 -16l-20 -21l-15 -10l-10 -10l-26 -11l-17 -14l-49 -23l-16 -12l-17 -14l13 -21l26 -49l14 -18l35 -19l23 -4l20 13l23 10l24 8l17 18l47 35l12 15l10 6l11 4l20 2l10 20l29 15l16 22l21 8
l27 27l12 6l10 2l10 -2l4 -6l2 -4v-2l-8 -31l-2 -24l-12 -31l-8 -21l-21 6l-26 -22l-13 -23l-30 -10l-54 -53l-28 -16l-13 -23l-22 -12l-39 -27l-12 -6l-4 -2l-11 2l-20 -21l-23 -4l-14 -8l-27 -6l-14 2l-33 8l-2 2l-10 9l-18 8l-15 33l-24 24l-41 82l-11 20l-20 9l-10 10
l-2 14l4 17l6 10l35 26l8 15l18 6l60 47l45 16l12 15l4 12l6 43l-2 4l-2 4l-6 2l-2 -2l-22 -12l-17 -14l-20 -6l-9 -17l-10 -10l-6 -2l-29 -6l-16 -27l-27 -2l-16 -31l-27 -14l-10 -23l-43 -38l-12 -17l-17 -6l-16 -27l-12 -2l-6 -22l-9 -12h-16l-8 -27l-29 -29l-16 -28
l-41 -33l-35 -23l-18 8l-23 17l-6 10l-2 8l2 41l2 27l27 65l16 45l33 60l2 4l-2 4l-2 4l-4 2h-7l-38 -41l-39 6z" />
    <glyph glyph-name="l" unicode="l" horiz-adv-x="491" 
d="M216 574l-12 -19l17 5l12 18l25 18l8 20l16 16l16 17l8 6l3 2l15 -1l6 39l26 30l13 25l41 36l13 24l13 5l8 17l11 11l4 24l26 29l12 23l17 15l8 19l16 2l8 35l31 55l19 44l15 17l1 24l6 24l-5 24l-30 -16l-9 -32l-24 -9l-18 -41l-16 -15l-13 -24l-31 -25l-55 -85l-24 -26
l-2 -1l-14 2l6 -26l-17 -16l-5 -11l-17 -22l-8 -25l-13 -23l-21 -5l-3 -27l-58 -108zM27 243l3 52l16 2l-13 26l2 24l-5 32l25 76l-4 18v5l2 12l4 10l22 34l41 122l16 34l29 46l8 17l18 13l-4 19l15 30l21 32l27 53l16 11l16 29l17 15l11 20l12 19l20 3l8 20l7 30l11 15
l9 17l23 28l25 40l44 40l6 21l10 19l10 8l19 11l12 9l14 4l3 22l13 18l35 24l37 8l48 -13l40 -41l13 -39v-2l-1 -2l-18 -29l-16 -51l-15 -11l-2 -35l-18 -16l-4 -14v-24l-16 -22l-19 -40l-9 -18h-14l-1 -22l-21 -32l-9 -24l-26 -36l-17 -29l-12 -13l-9 -26l-21 -27l-29 -56
l-20 -10l-9 -45l-26 -17l-11 -20l-15 -25l-5 -20l-21 -8l-8 -19l-14 -7l-6 -20l-16 -25l-48 -48l-13 -33l-8 -11l-8 -4l-12 -2l-29 7l-22 11l-2 -17l-8 -16l1 -28l-13 -61l7 -23v-2v-22l5 -32l13 -20l4 -4h23l6 -7l62 37l20 -8l11 12l-3 17l6 10l19 7l14 11l20 2l7 10l3 24
l28 12l20 39l25 5l21 34l13 17l8 4l15 6l11 6l6 9l5 24l15 10l15 10l3 1l14 -10l-1 -33l7 -29l-18 -28l-2 -38l-20 -11l-12 -17l-19 -10l-21 -29l-24 -7l-14 -31l-25 -15l-12 -19l-11 -18l-13 1l-15 -15l-16 -9l-14 -16l-25 -9l-9 -14l-20 -6l-13 -11l-26 1l-12 -12l-20 -1
l-15 -4l-5 8l-19 1l-22 9l-21 -8l-24 17l-14 11l-15 26l-12 16l-4 34z" />
    <glyph glyph-name="m" unicode="m" horiz-adv-x="1292" 
d="M319 486v-22l17 14l32 24l36 33l35 12l29 27l34 25l34 19l24 -4l16 18l8 4l12 2l16 -3l6 -4l23 -21l17 -15l12 -19l4 -17l-1 -2l-1 -42l5 -32l-3 -32l3 -24l-5 -58l8 -10l16 15l12 3l20 19l14 8l13 18l16 8l51 54l45 25l13 15l13 7l18 15l15 -4l17 15l11 4l13 2l38 -11
l35 -37l6 -17v-2l-2 -23l5 -50l-5 -21l17 -32l-11 -12l2 -24l-4 -57l11 -20l20 6l20 12l23 -1l6 28l4 5l14 4h22l13 22l22 20l38 34l15 9l10 2h2l21 -8l-3 -22l7 -34v-2l-1 -4l-17 -19l-27 -22l-37 -45l-25 -6l-16 -25l-51 -28l-30 -34l-32 -23l-20 -14l-10 -1l-59 23
l-32 30l-14 35l-5 20v1l10 18l-17 16l-5 9l-1 7l3 52l2 74l3 20l-2 9l-3 5l-11 4l-17 -17l-19 -10l-12 -21l-18 -13l-12 -16h-12l-10 -7l-4 -12l1 -17l-23 -16l-12 -15l-14 -20l-18 -8l-10 -17l-10 -16l-7 -6l-14 -9l-2 -3l-10 -16l-30 -44l-22 -15l-13 -3l-11 3l-32 40
l-22 44l1 55l-7 31l7 24v41l6 12l-3 76l2 35l-2 10l-6 6l-8 1l-8 -1l-18 -10l-40 -34l-58 -49l-16 -26l-4 -21l-16 3l-17 -25l-11 -18l-2 -1l-22 1l-16 -19l-9 -35l-24 -15l-9 -16l-10 -16l-7 -6l-21 -11l-21 -23l-35 -52l-16 -11l-3 -23l-5 -7l-7 -5l-18 -4l-21 6l-21 23
l-12 35l-6 55l4 26l36 55l56 70l36 55l12 22l-1 21l-7 6l-24 -7l-19 -12l-23 -8l-12 -17l-26 -18l-22 -29l-10 -18l-14 -3l-29 -12l-15 24l-6 24l15 50l18 23l76 53l37 34l33 21l21 5l16 1l56 15h2l23 -5l17 -18l8 -26z" />
    <glyph glyph-name="n" unicode="n" horiz-adv-x="1065" 
d="M112 515l22 4l14 14l19 9l20 30l21 18l19 6l25 -4l23 -6l38 -43l11 -17l8 -21l2 -18l-4 -57l-14 -28l6 -10l5 -1h4l7 4l16 13l20 11l32 36l32 14l16 13l12 15l22 13l20 18l22 5l62 33l25 7l35 12h1l35 -9l18 -7l32 -22l10 -15l10 -29l8 -21l-2 -22l3 -19l2 -16l-2 -16
l-6 -39l-3 -60l-20 -30l-1 -6l1 -5l1 -3l15 -22l11 -31l6 -4l3 -1l20 6l21 6l12 19l22 12l5 11l17 16l19 -6l4 18l7 8l24 32l28 13l50 39l17 12l21 20l3 1l7 1l6 -1l4 -3l2 -5l-4 -23l1 -32v-2l-4 -19l-24 -31l-44 -42l-28 -32l-3 -2l-17 -6l-28 -22l-35 -31l-9 -22l-23 -2
l-16 -23l-25 -12l-28 -19l-28 3l-24 -3l-33 19l-19 6l-10 6l-29 40l-12 20l-11 28l1 4l6 27l-9 28l-1 17l-6 16l7 11l-2 11l2 58l-1 24l-1 31l-3 7l-9 9l-8 3l-2 -1l-70 -40l-41 -17l-19 -14l-6 -10l-98 -81l-31 -24l-22 -7l-4 -9l-3 -22l-18 -10l-22 -22l-13 12l-8 -1
l-11 -19l-10 -24l-27 -5l-5 -17l-15 -2l-16 -9l-21 -20l-16 -23l-20 8l-28 14l-14 21l-8 38l12 85l14 20l19 9l5 24l18 13l22 29l20 4l4 26l31 58l5 23l-30 -27l-18 -2l-19 -26l-17 2l-15 -16l-46 -24l-13 -23l-38 -19l-13 10l-9 13l-2 10l26 73l13 17l54 33l18 16z" />
    <glyph glyph-name="o" unicode="o" horiz-adv-x="674" 
d="M181 259l14 -12l-6 -23l-5 -30l1 -6l12 -31l4 -23l2 -1l21 -1l35 -5l16 4l26 7l16 14l23 9l19 28h17l8 21l40 30l12 26l21 19l21 45l13 23l8 45l-3 18l-3 3l-23 24l-11 15l-3 16l5 19l21 28l23 20v6l-5 5l-23 -9l-14 -15l-4 -2l-28 -9l-31 -10l-14 10l-12 -1l-14 -24
l-19 -6l-20 -22l-16 -3l-8 -5l-4 -7l-9 -22l-53 -55l-6 -20l-15 -38l-6 -27l-20 -14l-4 -7zM-29 385v7l13 20l19 29l4 2l23 8l19 27l43 31l33 31l21 7l102 63l53 21l58 15l22 5l20 6l27 12l3 1l58 -19l40 -15l30 -19l10 -14l4 -20l-2 -11l-14 -21l28 -16l11 -22l13 -22
l9 -32l1 -52l-2 -24l-11 -16v-22l-4 -31l-5 -8l-25 -30l-9 -23l-18 -19l-5 -21l-1 -3l-61 -51l-17 -16l-13 4l-39 -37h-12l-11 -6l-39 -19l-26 -13l-25 -3l-16 -12h-25l-24 1l-10 -6h-12l-18 11l-23 7l-27 26l-40 34l-11 14l-24 40l-9 29v1l2 39v13l8 16l1 39l15 55l8 21
l-8 12l-14 -16l-16 -4l-7 -21l-8 -3l-10 6l-11 -22l-15 -15l-12 -3l-10 3l-3 3l-1 4v27z" />
    <glyph glyph-name="p" unicode="p" horiz-adv-x="873" 
d="M261 234l-5 -23l10 2l18 16l29 20l11 3l23 4l45 8l31 -11l10 -19l28 13l32 22l23 8l7 16l42 41l7 15l44 50l14 24l21 31l12 31l8 23l-5 14l-9 20l-22 -11l-25 10l-14 -12l-18 -6l-15 -11l-21 -4l-15 -13l-14 -2l-20 -1l-22 -23l-15 -7l-11 -23l-23 -4l-13 -21l-39 -29
l-58 -68l-20 -10l4 -19l-25 -27zM-158 -369l-1 -44l40 53l26 51l23 36l28 72l71 203l-6 -1l-18 -25l-16 -1l-13 -39l-23 -15l-8 -12l-9 -28l-4 -21l-12 -21l-17 -17l-13 -27h-13l2 -23l-2 -12l-8 -16l-14 -22l-1 -29zM184 453l7 36l-31 -2l-6 -22l-7 -19l-3 -2l-35 2l-8 -21
l-7 -12l-2 -1l-39 -22l-45 -46l-22 -12l-8 -1l-14 3l-13 14l-8 30l4 18l6 12l11 9l35 19l14 19l35 22l21 23l14 4l27 7l-4 21l24 6l24 16l12 13l16 11l32 36l27 41l16 15l21 6l21 -6l29 -27l16 -25l9 -33l-5 -34l-24 -100l2 -21h7l16 22l38 33l18 20l28 17l53 40l28 9l9 19
l18 12l61 38l45 8l25 7l22 -9l8 7l18 1l12 -2l25 -17l25 -20l13 -36l7 -25v-2l-5 -23l5 -18l-9 -16l-2 -19l-14 -32l-10 -42l-14 -20l-27 -40l-23 -24l-15 -17l18 -2l22 22l23 13l10 10h17l26 20l29 14l33 30l16 16l19 3l14 19l28 15l42 37l16 4l16 5l9 -2l6 -6l1 -6l-1 -5
l-10 -21v-24l-8 -15l-14 -20l-19 -5l-13 -8l-31 -32l-30 -25l-11 -16l-6 -5l-3 -1l-19 4l-19 -24l-21 -5l-15 -25l-27 -5l-15 -14l-48 -45l-16 -2l-20 1l-17 -24l-17 -18l-27 -2l-23 -18l-20 5l-25 -14l-22 -12l-7 -2h-31l-73 -33l-14 -2l-13 2l-15 2h-1l-17 -15l-22 2
l-22 -5h-3l-17 6l-35 33l-13 20l-19 15l-23 -27l-6 -27l-7 -26l-11 -19l-16 -46l-14 -18l-3 -20l-13 -17l-6 -28l-15 -23l-26 -93l-12 -13l-12 -39l-31 -54l-7 -27l-29 -64l-4 -16l-17 -34l-26 -33l-23 -32l-29 -17l-34 -23h-4l-25 5l-15 5l-2 3l-26 43l-14 23l-4 16l-16 65
l-2 21l27 88l26 53l12 29l1 2l21 16l48 92l65 80l4 23l8 17l7 7l18 11l9 18l13 11l18 31l13 10l11 17l16 9l10 9l5 12l1 19l78 227z" />
    <glyph glyph-name="q" unicode="q" horiz-adv-x="942" 
d="M253 -553l6 -5l15 6l12 13l34 48l21 44l27 32l13 39l24 56l12 44l24 69l12 74l13 52l4 37l-5 37l-14 30l-8 1l3 -25l1 -13v-1l-3 -17l-18 -14l-13 -27l-7 -21l-3 -22l-18 -20l-9 -12l-11 -2l-1 -33l-13 -12l3 -17l-19 -44l-4 -21l-4 -17l-17 -25l-14 -51l-28 -68l-8 -38
l-3 -29l-7 -35l2 -9zM462 396l33 1l4 22l5 11l3 2l22 11l26 28l-5 5l-18 -10l-19 11l-24 17l-3 2l-34 5l-29 -5l-34 -11l-33 -2l-24 -20l-29 -6l-20 -22l-21 -6l-22 -19l-31 -13l-12 -13l-41 -34l-16 -14l-15 -7l-7 -24l-39 -62l-6 -13l-2 -13l4 -15l6 -7l8 -2l24 8l14 -1
l21 8l31 8l60 34l22 6l21 12l13 14l27 10l36 30l28 14l30 20l21 8zM138 497h16l11 20l23 18l25 22l18 2l15 17l35 19l28 20l61 16l44 17l30 3l30 8l27 -7l28 -5l25 -21l15 -26l13 -49l6 -34l19 17l10 14l19 11l24 15l10 4l10 1l34 -9l21 -20l4 -12l-1 -25l3 -25l-2 -10
l-7 -13l-21 -31l-14 -34l-27 -30l-13 -22l-21 -8l-6 -37l-21 -15l-4 -18l-8 -20l-4 -3l-28 -12l-3 -2l-1 -3l-1 -3l2 -9l8 -7l5 -2v0l40 14l38 9l17 6l6 5l10 10l35 19l29 21l28 5l41 35l66 41l47 44l5 1l4 -1l5 -5l2 -7v-3l-4 -22l1 -33l-7 -21l-8 -9l-43 -29l-16 -22
l-24 -16l-27 -18l-22 -10l-7 -15l-38 -9l-14 -14l-21 -20l-5 -1h-23l-26 -20l-17 3l-18 -16l-18 -10l-25 -10l-23 -8l7 -23l14 -55l-3 -23l-4 -22l-18 -1v-23l10 -9l-4 -21l-8 -44l-29 -47l-19 -52l-29 -50l-29 -84l-15 -10l2 -12l-11 -26l-18 -38l-15 -16l-2 -30l-11 -14
l-11 -18l-29 -27l-54 -91l-19 -10l-17 -12l-21 -1l-20 -12l-6 -2l-5 -1l-30 10l-30 30l-12 42l2 12l11 36l7 71l25 80l29 96l50 109l37 77l32 66l12 22l4 22l18 25l14 38l19 42l-8 19l-14 36l16 4l24 15l27 17l17 41l22 32l5 30l17 27l-17 -14l-34 -9l-13 -15l-21 4l-14 -19
l-24 -27l-9 -5l-22 -9l-14 -15l-13 -9l-15 -16l-15 7l-25 -23l-17 -1l-16 -9l-27 -18l-14 2l-22 -18l-17 -12l-2 -1h-20l-25 -7l-17 -2l-55 13l-20 10l-20 21l-12 55l8 65l16 40l13 42l20 23l43 56l47 44z" />
    <glyph glyph-name="r" unicode="r" horiz-adv-x="743" 
d="M173 553l13 17h13l13 21l48 29l16 21l17 11l11 13l22 15l23 15l3 1l32 2l35 -8l24 -21l6 -14l4 -32l42 -125l-5 -30l-7 -13l-29 -34l-12 -16l-16 -11l-11 -20l-16 -12l-8 -17l-9 -19l-21 -7l-2 -28l-31 -50l-10 -27l-11 -17l4 -10l4 -2l8 -2l39 3l14 -4l20 14l38 11
l18 12l28 10l48 33l35 20l20 17l37 27l12 17l53 36l22 35l15 11l13 4l3 -1l17 -14l-7 -22l-1 -39l-34 -47l-8 -19l-17 -7l-15 -15l-40 -36l-48 -35l-17 -18l-20 5l-6 -1l-12 -28l-28 -3l2 -21l-20 -12l-19 -8l-24 -17l-17 -13l-24 -3l-24 -13l-25 3l-46 -2l-20 12l-31 17
l-7 6l-15 25l-12 27l-16 36l5 37l3 33l5 29l6 13l17 24l13 38l11 19l9 21l25 35l32 61l11 20l1 6l-1 7l-4 5l-28 13l-12 -20l-36 -16l-16 -13l-20 -10l-23 -22l-18 -12l-12 -21l-26 -4l-16 -5l-13 -19l-27 -8l-12 -21l-21 -7l-24 -7l-19 -20l-11 -7l-11 -3l-15 4l-7 8l-3 13
l1 9l4 33l19 23l11 14l10 9l20 5l18 14l17 4l13 20l23 11l16 14l27 29l4 2z" />
    <glyph glyph-name="s" unicode="s" horiz-adv-x="530" 
d="M-86 375l12 15l13 -3l16 13l41 22l12 17l14 10l8 10l27 13l37 38l18 16l43 59l21 26l31 89l18 15l28 5l32 -6l21 -16l8 -11l27 -70l16 -49l7 -41l2 -29l12 -26l4 -16l-9 -23l2 -50l-12 -20l-1 -24l-11 -25l5 -13l54 30l12 14l58 41l26 29l75 46l27 30l17 8l21 9l14 -21
l6 -25l-5 -28l-7 -8l-24 -20l-13 -15l-38 -17l-18 -29l-25 -19l-14 -15l-24 -4l-11 -20l-14 -6l-17 -14l-23 -23l-17 -2l-8 -23l-22 -8l-10 -14l-10 -3l-22 -16l-26 -9l-22 -4l-9 -17l-22 -11l-34 -15l-1 -1l-11 -14l-34 -10l-15 -16l-23 -1l-73 -37l-41 4l-43 1l-14 8
l-24 30l-38 54v14l19 20l10 18l13 13l20 8l28 6l33 11l21 -21l21 1l24 -5l35 19l20 5l9 21l37 61l13 15l7 48l5 8l13 2l7 7l-13 27l10 21v18l2 12l-3 17l4 18v2l-5 19l-6 21l-18 -11l-44 -41l-29 -38l-32 -18l-18 -27l-12 -5l-36 -26l-54 -46l-39 -26l-13 -15l-29 6l-5 6
l-6 31l3 21z" />
    <glyph glyph-name="t" unicode="t" horiz-adv-x="511" 
d="M5 801l24 15l14 -12l18 26l6 3l8 1h4l34 -4l29 9l33 9l28 14l72 14l30 17l19 10l34 42l31 25l36 65l21 25l16 17l20 -8l24 -26l12 -49l-7 -36l-5 -6l-29 -23l-14 -15l-4 -13l3 -6l13 -1l17 10l88 11l71 22l83 10l72 16l19 -1l22 -7l21 10l54 9l24 15l15 -6l11 -1l15 2
l91 18l41 -8l39 15l18 3l30 8l27 -5l17 3l22 -7l20 -7l8 -12l14 -16l16 -26l6 -36l-3 -15l-11 -10l-18 -5h-2l-26 3l-64 2l-34 4l-87 -11l-23 3l-86 -21l-51 1l-20 -2h-1l-18 7l-23 -10l-37 -14h-49l-24 -9l-36 3l-38 -13l-43 -1l-93 -26l-34 -1l-43 -16l-37 4l-27 -17
l-22 1l-8 -24l-14 -8l-6 -24l-20 -10l-34 -63l-24 -12l-17 -34l-26 -25l-23 -54l-15 -19l-6 -19l-10 -6l-12 -20l-12 -12l-4 -21l-33 -28l1 -33l-16 -24l-8 -25l-14 -11l3 -25l-6 -13l-1 -3l1 -14l2 -23l25 -7l27 -2h30l35 18l22 -1l72 44l20 7l17 13l24 10l15 19l8 5l10 4
l21 1l11 17l79 65l26 25l3 1l9 -3l20 -19l3 -10v-2l-5 -23l-2 -20l-5 -13l-8 -9l-23 -18l-13 -19l-40 -37l-22 -26l-23 -17l-9 -19l-9 -9l-16 2l-26 -28l-26 -6l-34 -19l-21 -5l-29 -26l-44 -6l-17 -6l-37 -2l-30 -11l-29 23l-28 16l-32 40l-14 18l-3 9l-5 26l-8 18l1 23
l-8 34l-1 13l1 8l11 17l-3 23l2 29l4 10l9 14l6 21l18 26l12 16l11 29l8 14l9 21l24 -5l9 14l-14 14l7 34l18 19l21 31l23 23l25 49l16 12l4 13l-21 -3l-14 -4l-33 2l-24 -9l-51 -9l-28 -15l-20 2l-25 -1l-14 6l-9 11l-4 17l2 12l17 30z" />
    <glyph glyph-name="u" unicode="u" horiz-adv-x="1001" 
d="M32 358l-29 15l7 38l5 29l22 22l25 20l20 -3l12 28l26 7l27 32l23 -1l15 24l18 15l11 -2l16 19l20 2l15 7l20 2l20 1l4 -1l27 -29l16 -19l15 -24l7 -40l-1 -10l-4 -7l-19 -8l-3 -24l-13 -31l-8 -16l-16 -13l-8 -19l-17 -2l-4 -22l-9 -34l-6 -8l-15 -17l-3 -17l-10 -26
l-3 -14l2 -8l6 -5l4 -2l3 1l43 32l14 8l20 5l10 17l25 24l16 15l24 5l4 18l24 15l24 22l36 29l9 13h17l11 28l61 55l12 19l23 16l50 46l24 15l38 6l26 -3l7 -5l28 -28l33 -28l11 -20l1 -10l-46 -116l-28 -89l-6 -32l-12 -5l3 -33l20 9l28 16l27 7l13 22l32 28l16 20l14 8
l22 2l6 19l22 26l46 38l11 3l6 -1l8 -5l7 -11l5 -12l10 -9v-32l-10 -7l-17 -25l-20 -2l-10 -14h-9l-18 -19l-50 -56l-30 -20l-14 6l-14 -17l-35 -24l-22 -28l-31 -11l-42 -41l-19 -6l-8 2l-25 23l-16 12l-15 21l-40 52l-1 3v1l5 29l1 32l15 36v36l19 32l-3 16l4 23l-26 -14
l-21 -26l-23 -1l-12 -27l-16 -7l-14 -13l-21 1l-6 -26l-19 -13l-12 -17l-11 -3l-22 -24h-19l-7 -25l-17 -17l-16 -15l-19 2l-6 -22l-7 -10l-3 -2l-26 -7l-63 -56l-32 1l-21 3l-16 5l-15 13l-16 19l-19 18l-32 52l-13 21v21l6 42l37 76l8 22l11 2l2 15l14 17l1 15l-36 -17
l-20 -16l-19 -9l-5 5h-6l-6 -20l-12 -1l-9 -10l-14 -11l-8 -2h-2z" />
    <glyph glyph-name="v" unicode="v" horiz-adv-x="692" 
d="M35 485l27 5l16 29l29 4l15 26l21 6l24 13l12 16l19 8l32 19l14 6l19 2l41 -11l32 -31l11 -43l-6 -29l-17 -40l-3 -36l-16 -17l1 -51l-19 -34l-3 -23l-22 -10v-12l17 -16l1 -4l-4 -19l-5 -24h6l8 9l21 8l4 17l17 3l5 18l18 17l14 13l30 36l17 13l11 16l7 20l32 23l7 14
l13 14l14 19l23 17l31 33l39 39l11 16l46 36l18 16l21 11l50 10l10 -1l19 -8l36 -31l8 -34l-10 -39l-15 -23l-9 -5l-24 5l-21 -13l-18 -5l-19 3l-17 -11l-23 -4l-15 -21l-23 -6l-16 -8l-7 -7l-14 -21l-35 -20l-17 -24l-20 -14l-17 -19l-17 -4l-9 -11l-4 -17l-12 -19l-3 -2
l-21 -5l-7 -24l-23 -9l-11 -26l-20 -16l-14 -26l-28 -22l-28 -48l-25 -17l-27 -27l-15 -3l-26 8l-68 77l-9 16l-12 52l6 34l22 53l25 114l24 60l-7 18l-29 -19l-34 -2l-10 -32l-37 -16l-15 -23l-17 -9l-17 -21h-4l-8 3l-11 19l-19 15l-1 4l3 13l10 15l39 38z" />
    <glyph glyph-name="w" unicode="w" horiz-adv-x="952" 
d="M-7 395l5 33l16 10l6 12l34 14l24 21l13 19l23 -1l13 19l20 8l28 30l27 16l24 31l36 32l28 8l24 -7l21 -21l11 -57l-4 -46l-17 -31l-8 -23l-57 -84l-34 -66l-23 -58l-4 -20l12 -6l26 9l13 3l12 23l29 10l-2 18l22 9l20 7l7 16l14 16l12 11l27 8l6 33l9 8l10 16l19 5l2 29
l25 19l81 128l14 13l11 2l16 -4l27 -21l30 -37l16 -58l-4 -26l-5 -6l-9 -4l-18 -61l-27 -47l3 -19v-21l-9 -17l3 -20l-8 -14l-3 -14l4 -14l9 -10l4 -1l22 8l20 2l19 11l30 20l37 23l14 15l26 22l9 18l14 6l7 24l15 18l28 51l18 27l-6 25l-1 22l-19 51l-1 10l8 30l17 19l8 3
h25l32 5l22 -15l27 -20l12 -14l12 -36l2 -18l-1 -6l-23 -75l-3 -19l-19 -20l-15 -49l-27 -24l-26 -49l-17 -14l-27 -42l-42 -22l-9 -8l-1 -4l-4 -19l-27 -22l-18 -15l-17 -5l-30 -26l-5 -2l-41 -10l-30 -3l-40 9l-16 9l-56 39l-3 6l-14 49l-6 25v1l2 42l5 68l1 14l-7 8
l-13 -26l-22 -16l-10 -26l-12 -11l-14 -16l-21 -17l-9 -15l-15 -14l-19 -30l2 -8l-19 -12l-23 -23l-65 -41l-58 -33l-12 -2l-29 7l-26 20l-8 17l-10 44l-9 33l10 70l1 22l21 30l4 22l16 26l6 15l17 22l4 22l8 26l-23 -10l-26 -21l-37 -19l-26 -26l-16 -11l-11 -3l-20 7
l-19 17l-3 11z" />
    <glyph glyph-name="x" unicode="x" horiz-adv-x="812" 
d="M194 328l18 2l18 25h16l10 17l15 10l27 24l25 23l8 54l12 66l-1 24l-9 -5l-8 -12l-8 -9l-5 -2l-27 -7l-13 -20l-36 -7l-26 -26l-15 5h-5l-20 -26l-30 -17l-20 -19l-20 -7l-61 -71l-12 -4l-7 2l-12 13l-8 31l6 30l15 26l9 6l21 10l15 27l35 19l18 27l21 4l15 17l18 8
l35 32l51 23l11 13l22 10l14 14l51 15l34 15l14 2l25 -6l29 -9l18 -22l9 -16l3 -9l-5 -30l-2 -51l-1 -24l21 7l23 14l23 9l20 20l75 42l19 22l48 32l39 23l11 2l12 -3l14 -15l6 -22l-4 -23l-4 -6l-20 -9l-32 -14l-41 -14l-11 -13l-25 -14l-22 -18l-33 -14l-47 -34l-49 -30
l-16 -15l-20 -4l-4 -24l-17 -70l-2 -24l-12 -21l2 -18v0l-8 -34l-4 -29l9 -42l24 1l23 12l83 57l16 8l23 7l14 18l16 6l10 -13l7 21l13 22l15 14l21 14l27 27l26 16l39 23l6 1l8 -2l5 -5l5 -26l-8 -50l-17 -20l-16 -1l-20 -23l-27 -22l-40 -26l-26 -25l-22 -5l-15 -14
l-26 -7l-28 -39l-44 -27l-14 -10l-24 -9l-9 -19l-11 -12l-5 -3l-19 -5l-16 -11l-2 -1l-42 -5l-19 3l-9 4l-24 19l-26 21l-10 10l-3 6l-7 30l-6 20l15 84v29l14 9l-6 34l-20 -16l-20 -16l-45 -26l-29 -39l-25 4l-9 -38l-15 -16l-33 -47l-24 -20l-19 -17l-18 -10l-8 -1l-7 1
l-15 12l-14 17l-8 27l1 9l3 6l19 27l23 36l15 11l44 32l22 10z" />
    <glyph glyph-name="y" unicode="y" horiz-adv-x="778" 
d="M39 -689l-1 -27l37 15l23 21l17 12l6 20l10 16l16 10l8 21l20 7l8 29l24 38l7 17l32 44l15 37l13 13l13 39l14 18l3 21l17 20l15 27l17 28l23 41l7 24l30 50l-4 20l-18 -15l-38 -31l-27 -20l-30 -36l-54 -53l-21 -36l-2 -2h-22l-7 -10l7 -23l-16 -14l-7 -23l-18 -13
l-16 -29l-19 -10l-2 -25l-4 -26l-42 -69l-5 -19l-7 -12l-4 -28l-16 -10l-4 -11l13 -13zM21 460l22 12l9 20l71 54l69 58l17 10l20 4l29 -8l12 -11l5 -34l-9 -44l-20 -35l-10 -32l-42 -64l-21 -44l-21 -56l1 -8l4 -4l8 -2l8 1l8 4l31 18l44 21l16 17l79 37l16 19l14 7l18 17
l22 5l17 9l11 9l17 20l63 37l96 68l23 10l35 22l32 9l40 -13l30 -23l6 -36l-3 -44l-7 -38l-17 -36l-5 -33l-9 -20l1 -23l-23 -19l5 -24v-1l-1 -9l-4 -8l-13 -18l-5 -30l-13 -31l-16 -23l-23 -72l-13 -26l-15 -32l26 3l12 -2l29 14l21 4l49 11l41 -1l19 2l27 -6l34 -8l31 -18
l29 -22l9 -56l-7 -42l-10 -9l-8 -2h-4l-22 10l-22 15l-4 6l-21 44l-12 20l-21 1l-16 6l-23 -2l-19 5l-30 -8h-39l-24 -10l-43 -9l-25 -13l-7 -20l-10 -24l-18 -22l-11 -31l-18 -22l-8 -16l-11 -20l-7 -43l-13 -19l-15 -16l-2 -21l-15 -12l4 -22l-35 -49l-10 -16l-12 -6
l9 -21l-13 -19l-8 -21l-57 -81l-6 -25l-13 -12l-43 -60l-17 -13l4 -18l-13 -26l-19 -4l-8 -10l2 -21l-5 -7l-13 -7l-22 -2l1 -24l-19 -16l-26 -31l-20 -14l-35 -8l-15 2l-65 36l-36 27l-8 12l-9 35l-3 42l2 5l10 20l1 28l10 27l7 27l19 23l26 63l25 32l53 85l23 32l3 14
l17 1l11 20l8 22l25 22l32 47l26 13l11 19l54 41l14 16l16 1l15 26l26 9l3 19l5 8l35 7l22 14l16 22l9 25l19 -2l3 3l-5 23l6 23l10 20l21 18l-2 21l3 24l9 17l5 26l17 20l4 24l8 27l22 53l12 40l11 17l4 16l1 22l-35 -23l-28 4l-24 -19l-15 -4l-10 -14l-37 -21l-12 12
l-9 -2l-12 -25l-7 -5l-18 -4h-23l-9 -20l-10 -12l-7 -4l-45 -19l-43 -33l-47 -20l-21 -16l-42 -7l-13 -20l-35 1l-34 -8l-15 7l-37 27l-11 16l-2 6l-1 26l-5 19l13 31l1 32l16 56l9 20l-4 5l-20 -15l-10 -20l-24 -26l-17 -15l-20 10l-9 17l-15 9l-2 5l-3 12l2 8l16 18l44 38
z" />
    <glyph glyph-name="z" unicode="z" horiz-adv-x="482" 
d="M-196 -589l4 -11l25 3l39 20l25 7l30 27l35 12l26 28l12 7l10 26l55 43l13 22l12 9l6 21l22 9l11 20l50 82l7 21l10 12l12 25l-32 2l-25 -11l-28 -5l-89 -39l-17 -2l-21 -22l-7 -15l-36 -25l-7 6l-9 -20l-5 -8l-3 -3l-16 -4l-10 -28l-18 -14l-40 -55l-19 -19l-3 -39
l-17 -57l-4 -18zM278 -80l22 4l8 19l30 64l13 51l-9 37l-18 19l-63 9l-54 -3l-78 -22l-24 -19l-16 15l-13 7l-16 18l-15 22l-2 14l3 12l12 21l2 24l15 8l21 43l12 9l25 40l16 14l21 11l5 22l27 46l22 47l24 23l14 20l5 30l-2 17l-6 6l-7 2l-5 -1l-14 -8l-54 -46l-13 -4
l-39 -36l-29 -13l-18 -17l-26 -12l-21 -26l-20 -8l-13 -18l-10 -15l-31 -22l-18 -13l-18 15l-5 26l-1 14l1 8l17 33l9 15l64 45l27 24l27 13l17 20l21 11l70 49l63 28l33 26l16 12l22 1l45 17h3l40 -5l17 -5l6 -4l16 -19l17 -18l2 -8l-10 -47l-10 -35l-22 -43l-27 -40
l-5 -26l-12 -10l2 -22l-20 -11l-11 -30l-19 -18l-17 -20l-3 -11l-17 -20l-19 -29l-18 -17l23 6l47 12l27 2l51 -2l18 -7l63 -61l11 -31l-1 -3l-3 -23v-16l-21 -64l-14 -48l-26 -46l1 -22l-17 -12l24 -8l23 -17l20 -30l6 -22l-3 -22l-14 -7l-7 -16l-33 -10l-13 -2l-20 5
l-26 15l-22 -4l-9 -17l-17 -25l-13 -10l-2 -10l-20 -39l-12 -20l-10 1l-1 -15l-16 -14l-22 -31l-21 -17l-26 -43l-23 -19l-11 -24l-22 -12l-15 -19l-40 -40l-6 -12l-10 -4l-7 -12l-7 -4l-18 -18l-18 -6l-24 -30l-34 -15l-24 -18l-38 -31l-12 -4l-26 -5l-15 -12l-10 -4l-5 -1
l-4 1l-21 15l-20 11l-9 22l-9 19l-5 27l1 13l15 70l6 29l32 61l13 41l28 47l43 59l22 20l7 12l16 9l13 18l36 29l11 13l31 24l10 12l7 7l14 6l60 16l42 31l30 9l27 12l38 6z" />
    <glyph glyph-name="braceleft" unicode="{" horiz-adv-x="443" 
d="M290 986l12 3l14 11l12 -5l21 9l26 4l46 18l16 -1l15 15l23 41l20 19l41 67l23 14l31 37l8 4l10 2l20 -4l8 -8l12 -31l10 -40l-6 -28l-1 -29l-2 -23h22l18 7l21 -4l21 13l21 -1l41 15h23l23 15l35 3l24 7h2l17 -5l10 -10l4 -15v-4l-2 -4l-15 -24l-15 -36l-25 -25l-23 -30
l-20 -12l-21 -9l-18 24l-8 6l-22 -6l-52 -11l-27 -10l-88 -15l-21 -14l-6 -9l-13 -30l-20 -10l-3 -21l-3 -14l-2 -2l-14 -18l-11 -20l-20 -9l-10 -20l-39 -32l-22 -32l-25 -32l-11 -32l-11 -21v-16l-13 -29l2 -17l-12 -46l1 -28l-16 -49v-18l-5 -41l5 -31l-1 -14l5 -15
l4 -17l21 -28l12 -29l15 -42l-4 -59l-2 -17l-7 -16l-14 -16l-16 -4l-34 10l-30 23l-25 63l-19 70v2l1 47l-5 22l4 56l-1 59l20 74l2 35l18 17l-17 -4l-25 -26l-16 -18l-9 2l-6 -2l-11 -21l-12 -20l-2 -2l-30 -18l-16 -25l-24 -4l-11 -28l-20 -2l-14 -25l-17 -10l-20 -23
l-31 -19l-9 -11l-19 -11l-17 -14l-11 33l13 29l-11 14v3l1 9l3 11l3 4l25 18l15 26l26 15l15 21l32 24l25 30l20 13l3 23l21 4l9 16l15 1l9 28l28 24l44 45l24 23l19 25l37 43l26 54l21 35l1 42l-39 -22l-25 7l-7 -1l-7 -4l-13 -17l-22 -1l-53 -5l-31 -11l-25 -1l-100 -33
l-22 -1l-42 -14l-31 -2l-35 -10l-54 -16l-19 -14l-15 -8l-23 -20h-6l-8 2l-11 14l-15 50l9 35l30 39l27 14l38 10l36 9l30 4l44 17l17 -2l26 11l32 9l71 15l38 16l46 5l75 23z" />
    <glyph glyph-name="bar" unicode="|" horiz-adv-x="785" 
d="M183 574l20 22l26 9l27 16l6 3l38 -2l27 -11l27 -28l14 -36l4 -21l-1 -4l-8 -20l3 -15v-1l-8 -21l-11 -20l-11 -1v-26l-6 -10l-8 -36l-22 -39l-13 -17l7 -11l-6 -20l-14 -41l-8 -10l-3 -15l36 30l23 4l6 28l8 11l12 7l22 3l11 19l25 17l16 15l9 20l24 14l21 25l16 17
l17 31l25 20l55 83l28 20l36 21l34 8l16 1l53 -16l14 -5l19 -25l13 -19l3 -12l-3 -10l-36 -35l-9 -7l-24 -10l-28 -4l-49 -25l-30 -16l-19 -23l-22 -22l-1 -6l1 -37l1 -22l25 12l25 17l19 6l62 41l18 5l59 41l31 13l23 10l9 -2l8 -7l8 -16v-31l-9 -14l-4 -20l-12 -3l-7 -11
l-19 5l-19 -13l-27 -13l-21 -17l-33 -11l-67 -50l-31 -6l-15 -20l-25 2l-29 8l-13 10l-3 6l-6 17l-14 19l-5 29l-11 11l-18 -14l-5 -15l-14 -22l-23 -2l-7 -20l-19 -7l-16 -19l-18 -13l-11 -20l-16 -7l-18 -24l-52 -56l-12 -21l-26 -21l-20 -14l-16 -4l-20 6l-29 30l-29 43
l-3 6l-9 39l-3 26l7 33l15 57l20 38l4 22l14 19l-1 26l8 10l11 22l11 13l5 41l-24 -5l-13 18l-7 -8l-9 -29l-12 -6l-19 -3l-21 -27l-10 -3l-10 -11l-24 -18l-19 -2l-20 -23l-21 18l-7 11l-4 20l3 16l34 42l13 8l17 5l13 13l35 20l43 34z" />
    <glyph glyph-name="braceright" unicode="}" horiz-adv-x="950" 
d="M118 409l-19 -15l1 -23l1 -14v-2l-14 -38l-2 -12l7 -58l3 -22l2 -1l21 1l19 19l29 12l14 14l19 20l13 22l25 13l13 14l18 15l-1 19l20 10l13 26l14 13l7 15l15 23l10 18l15 11l8 25l25 51l31 55l14 12l13 3l26 -7l46 -47l16 -57l-3 -15l-30 -58l-12 -65l-13 -20l8 -25
l-8 -55l13 -23l8 -19l26 7l59 25l25 27l11 18l34 28l41 52l25 48l-4 39l-6 36l-6 15l-8 22l12 18l23 35l30 13l32 6l23 -4l9 -7l25 -28l19 -22l8 -16l4 -37l2 -16v-2l-7 -19l-8 -37l-21 -47l6 -23l10 -4l14 5l17 6l18 28l18 9l12 14l29 19l14 25l25 19h33l18 -9l19 -23
l3 -14l-5 -17l-10 -10l-25 -15l-21 -21l-16 8l-11 -37l-20 -9l-20 -21l-15 -4l-35 -34l-29 -11l-28 -14l-4 -1l-22 8l-27 25l-5 12v21l-13 17l-10 -30l-31 -34l-5 -20l-13 -2l-8 -20l-12 -19l-19 -11l-61 -61l-38 -31l-16 -12h-8l-14 10l-20 -20l-34 8l-81 54l-14 16l-5 19
l-3 30l-8 31v24l-2 24l5 43l-6 25l7 40l-17 -34l-12 -8l-29 -46l-34 -35l-25 -41l-15 -13l-12 -19l-69 -72l-28 -23l-20 -8l-9 -20l-6 -5l-5 -1h-2l-19 6l-33 7l-34 44l-19 24l-8 15l-4 15l-4 31l-6 21l-2 17l9 50l11 45l1 22l16 37l16 65l21 38l24 58l20 21l16 23l14 8
l61 14l24 -5l26 -31l9 -26l-3 -16l-2 -3l-56 -54l-20 -33l-27 -34z" />
    <glyph glyph-name="asciitilde" unicode="~" horiz-adv-x="809" 
d="M105 515l20 7l11 18l14 25l23 4l16 19l12 14l3 1l12 3l44 23l13 3l71 29l31 7l37 3l70 -13l10 -10l4 -17l-15 -56l-31 -33l-19 -6l-5 1l-36 10l-12 2l-21 -3l-28 -11l-57 -34l-24 -15l-25 -21l-23 -14l-37 -37l-17 -22l-9 -21l-9 -19l-11 -7l-1 -25l-15 -52l-2 -18l5 -24
l11 -10l13 -4l12 2l15 8l19 15l13 5l34 35l32 12l7 19l7 12l4 2l20 -1l20 37l20 18l9 14h13l17 27l24 23l10 23l27 6l1 26l53 59l16 19l20 1l28 57l25 12l17 13l6 11l6 18l55 62l5 26l18 14l13 23l51 88l10 15l11 35l28 50l7 32l24 56l17 56l12 27l9 29l12 19l-2 27l4 10
l11 9l13 3l9 -2l22 -20l28 -31l6 -9l7 -42l-10 -58l-76 -217l-2 -26l-9 -14l-14 -53l-17 -30l1 -23l-3 -18l-26 -70l-9 -32l-15 -24l-18 -68l-15 -18l2 -32l-10 -34l-5 -23l-12 -19l-8 -48l-16 -44l-5 -49l-23 -15l12 -5l5 -5l1 -7v-1l-1 -24l9 -21l1 -7l-3 -20l-7 -34
l21 -13l10 -10l2 -6l6 -18l7 -18l-7 -28l-7 -23l-6 -10l-25 -19l-29 -7l-10 1l-34 15l-30 15l-21 30l-18 49v2l2 52l-1 35l8 55l82 289l16 36l7 47l34 84l-2 36l-7 -2l-8 -19l-8 -23l-33 -43l-14 -28l-24 -16l-20 -36l-18 -11l-1 -15l-8 -6l-12 -21h-14l-7 -16l-20 -18
l-12 -21l-13 -16l-15 -30l-23 -5l-7 -18l-18 -14l-28 -36l-21 -16v-18l-19 -13l-21 -7v-19l-7 -8h-15l-12 -20l-21 -14l-15 -24l-16 -6l-90 -72l-12 -8l-42 -8l-24 -1l-17 8l-36 14l-16 10l-19 26l-12 101l2 28l24 75l3 24l26 27l25 52l24 26z" />
    <glyph glyph-name="nonbreakingspace" unicode="&#xa0;" horiz-adv-x="568" 
 />
    <glyph glyph-name="exclamdown" unicode="&#xa1;" horiz-adv-x="628" 
d="M490 1219l3 10l16 21l8 19l23 70l13 8l29 6l25 -6l18 -12l26 -8l17 -31l23 -40l5 -18l-12 -27l-19 -33l-13 -27l-13 -13l-10 -11l-26 -5l-17 -5l-8 -1l-18 5l-30 23l-20 31l-6 18zM383 731l12 14l2 22l14 11l2 36l23 48l23 141l21 29l7 8l10 6l7 2l6 -1l31 -25l35 -24
l3 -3l14 -30l10 -46l-7 -40l-43 -105l-37 -104l-45 -82l-16 -43l-9 -13l-15 -41l-15 -14l-3 -22l-10 -26l-22 -30l-10 -33l-20 -23l-15 -41l-12 -14l-21 -9l7 -16l-12 -17l-13 -20l-40 -100l-14 -23l-12 -8l-13 -3l-23 7l-51 61l-22 47l-1 8l7 32l6 13l67 85l19 33l19 31
l15 46l27 27l16 38l44 68l14 34l11 17z" />
    <glyph glyph-name="cent" unicode="&#xa2;" horiz-adv-x="753" 
d="M392 767l11 20l-16 -9l-11 1l-17 -19l-21 -9l-21 -23l-34 -14l-19 -21l-47 -76l-32 -25l2 -35l-19 -23l1 -25l-8 -39l6 -13l9 -6l30 -6l46 8l8 5l5 9l6 22l39 84l6 29l36 73l25 70zM95 634l17 10l6 23l9 27l4 4l15 15l19 21l16 8l1 21l13 14l15 20l19 9l20 19l26 16
l12 15l19 10l35 28l29 12l26 1l29 18h3l12 -1l23 -6l9 21l16 44l18 28l15 46l19 36l10 19l18 1l5 -9l6 12l14 -12l-5 -15l3 -10l-10 -15l-1 -19l-8 -17l-3 -26l-10 -20l-15 -35l-19 -21l18 -6l25 12l19 -11l31 -21l10 -18l4 -13l3 -23l-5 -17l-24 -25l-16 -10l-34 -12h-6
l-3 2l-12 12l-33 6l-19 5l-9 -2l-8 -6l-7 -12l-6 -22l-20 -33l-11 -32l-2 -23l-28 -37l-2 -27l-13 -18l-4 -36l-24 -50l-14 -22l-3 -15l18 2l12 18l10 9l10 4h24l13 17l56 26l57 46l25 2l14 25l31 23l25 16l5 1l8 -2l8 -8l3 -12l-1 -6l-3 -4l-3 -3l-12 -2l11 -32l-13 -31
l-21 -11l-4 -25l-17 -6l-42 -31l-46 -45l-28 -21l-16 -14l-7 -2l-15 4l-16 -15l-18 -4l-4 -1l-8 -5l-19 -20l-25 14l-9 -5l-2 -14l-5 -8l-6 -3l-30 -5l-21 -7l-3 -19l-6 -7l-12 -18l-8 -31v-26l-16 -12l-4 -21l-26 -37l-9 -20l-23 6l-18 12l-16 15l-2 7v2l10 21l-3 13l15 16
l1 15l13 7l2 21l11 17l6 17l9 14l14 22l-23 -1l-25 17l-34 17l-12 29l-22 13l-13 13l-5 10l-10 42l-7 17v9l2 15l17 43l12 45z" />
    <glyph glyph-name="sterling" unicode="&#xa3;" horiz-adv-x="1463" 
d="M1041 1165l-7 -16h20l17 5l6 7l10 20l20 14l11 22l34 36l8 18l3 22l12 15l4 32l5 22l-20 -11l-42 -39zM-39 153l8 -17l28 -3l22 -8l35 -6l25 3l4 2l22 14l39 4l37 11l26 1l22 16l29 11l21 15l53 27l34 28l40 43l40 39l26 39l9 21l-74 2l-46 -4l-21 -7l-24 5l-12 2h-2
l-11 -14l-31 -1l-61 -16l-27 2l-37 -19l-27 -3l-20 -27l-83 -51l-41 -43l-25 -33l-1 -11zM87 415l24 1l2 14l22 13l30 16l39 7l41 14l27 2l151 30l66 6l31 -1l17 -1l21 2l7 4l25 44l26 42l-22 -3l-69 -31l-18 2l-26 -8l-6 2l-4 5l-2 5l4 35l34 7l98 41l46 17l25 49l23 40
l7 23l-22 -10l-24 -7l-69 -48l-84 -31l-22 -13l-11 -2l-19 5l-24 24l-9 37l5 28l3 5l20 10l29 16l33 -7l14 -2l18 -11l69 22l16 -1l19 28l34 1l13 18l19 14l21 7l24 24l34 40l52 100l33 48l4 18l18 43l34 66l15 19l41 75l20 12l15 17l19 21l13 21l20 12l19 25l22 6l24 12
l14 2l14 -2l34 -28l16 -15l-1 -28l3 -20l4 -23l-17 -19l-5 -27l-32 -56l-6 -21l-20 -24l-9 -20l-14 -15l-15 -40l-23 -10l-10 -6l-11 -13l-16 -27l-96 -83l-27 -62l-32 -59l-9 -37l-20 -35l-10 -20l28 6l42 13l127 22l66 28l23 -2l11 9h2l5 -1l5 -3l4 -5l10 -25l43 -51
l6 -25l-3 -17l-7 -15l-20 -22l-24 3l-19 6l-46 -3l-231 -12l-27 -3l-22 -13h-15l-50 -120l24 -3l16 -3l115 -10l34 -15l24 -2l28 -8l53 -4l61 -27l32 -8l12 -8l18 -11l2 -23l15 -18l5 -21l43 -64l8 -41l-7 -23l-12 -12l-14 -4l-10 2l-10 7l-6 9l-16 42l-28 7l-7 8l-2 15
l-21 5l-53 15l-5 4l-19 19l-30 6l-38 14h-37l-30 13l-42 5h-12l-19 1l-3 1l-32 23l-48 -8l-31 11h-29l-11 -16l-29 -44l-45 -73l-66 -73l-10 -9l-11 -9l-71 -34l-24 -19l-33 -13l-25 -7l2 15l-12 -1l-8 -14l-6 -10l-9 -7l-12 -3l-26 1l-13 -13l-9 -2l-26 11l-29 -22l-24 -3
l-53 -12l-28 4l-21 -2l-28 2l-8 5l-14 13l-47 18l-13 17l-30 -4l-12 20h-15l-6 10l2 16l-29 12l-13 18l-17 17l-4 8l-8 38l3 13l25 29l27 26l19 23l32 9l26 27l43 17l27 21z" />
    <glyph glyph-name="currency" unicode="&#xa4;" 
d="M82 1351v-1337h655v1337h-655zM68 0v1365h683v-1365h-683z" />
    <glyph glyph-name="yen" unicode="&#xa5;" horiz-adv-x="1002" 
d="M368 608l21 -2l5 21l5 14l15 27l9 20l-22 -2l-50 5l-51 -3l-30 7l-55 -2l-15 5l-11 6l-16 18l3 18l-3 16l11 20l10 12l4 2l26 6l32 10l27 -9l16 2l21 -6l80 2l57 6l5 6l2 9l-1 6l-5 19l1 20l1 29l9 26l-5 43l9 43l16 66l14 23l5 18l5 16l-10 20l-31 -22l-20 3l-3 -27
l-2 -14l-8 -12l-4 -19l-5 -7l-6 -3l-24 -7l-9 -9l-12 -21l-15 -2l-11 -20l-14 -4l-14 22l-22 14l12 31l17 21l25 21l6 13l26 3l17 28l31 6l17 26l39 17l15 17l21 10l39 20l24 4l11 1l10 -2l21 -13l28 -22l9 -31l2 -22l-2 -14l-19 -51l-3 -34l-15 -18v-53l-19 -33l-4 -22
l-20 -11v-10l-4 -3l6 -27l-7 -31l10 -19l14 23l24 10l4 18l20 5l8 21l74 74l16 33l30 21l35 49l27 22l82 88l45 35l16 14l30 17l31 5l42 -11l32 -32l13 -38l-1 -6l-3 -7l-13 -21l-11 -19l-8 -7l-5 -2l-22 6l-37 -18l-20 3l-18 -12l-22 -3l-16 -22l-21 -4l-16 -8l-7 -7
l-15 -22l-34 -18l-20 -27l-21 -17l-16 -17l-16 -2l-9 -14l-4 -16l-9 -14l-6 -7l-21 -4l-6 -21l-23 -8l-11 -29l-16 -12l-10 -18l19 5l29 -5l36 7l83 -4l56 -8l12 -17l14 -3l-6 -26l-15 -32l-17 -13l-45 -16l-28 -4h-8l-37 6l-65 -6l-71 8l-35 -7l-23 1l-7 -25l-6 -13
l-16 -20l-12 -22l24 -1l46 -1l25 1l37 8l18 -3l17 -3l18 2l19 3l13 -10l23 1l24 -1l32 -20l-8 -31l-12 -28l-20 -14l-38 -15l-32 -5h-9l-37 6l-65 -6l-71 8l-25 -5l-21 -4l-5 -32l-23 -43l-4 -32l-14 -36l-6 -21l-18 -11l1 -29l-23 -105l2 -63l-7 -18l-1 -21l-4 -5l-6 -4
l-11 -2l-27 8l-46 44l-28 78l-11 69l2 14l11 44l2 33l51 123l7 20l-26 -8l-43 1l-66 2l-30 6l-54 -2l-23 9l-10 11l-5 20l-1 16l6 22l19 19l49 11l14 -1l55 -7l100 2l17 -1l4 1z" />
    <glyph glyph-name="section" unicode="&#xa7;" 
d="M82 1351v-1337h655v1337h-655zM68 0v1365h683v-1365h-683z" />
    <glyph glyph-name="dieresis" unicode="&#xa8;" horiz-adv-x="629" 
d="M337 914l15 25l43 25l10 10l20 -4l26 -18l36 -47l5 -21l-2 -11l-4 -4l-22 -19l-9 -15l-25 -5l-8 -16l-21 -13l-31 9l-23 35l-14 12l-8 12l-3 15l1 6zM288 879l-14 -16l-13 -32l-19 -13l-16 -12h-5h-4l-15 10l-31 17l-15 16l-16 25l-3 21l7 24l25 29l30 25l14 3l21 -5
l10 -10l22 -34l23 -26l2 -11z" />
    <glyph glyph-name="copyright" unicode="&#xa9;" 
d="M82 1351v-1337h655v1337h-655zM68 0v1365h683v-1365h-683z" />
    <glyph glyph-name="ordfeminine" unicode="&#xaa;" 
d="M82 1351v-1337h655v1337h-655zM68 0v1365h683v-1365h-683z" />
    <glyph glyph-name="guillemotleft" unicode="&#xab;" horiz-adv-x="628" 
d="M429 349l-13 -19l27 -31l57 -75l4 -16l-4 -14l-9 -9l-11 -3l-15 3l-22 15l-67 63l-36 25l-16 18l-7 33v9l6 31l5 6l32 21l11 15l39 25l13 17l39 12l17 20l6 4h3l7 -2l8 -10l9 -33l-5 -20l-29 -31l-37 -27l-2 -4zM299 508l19 14l19 -24l7 -24l-7 -22l-33 -33l-43 -31
l-3 -5l-10 -22l-14 -17l23 -29l63 -84l3 -17l-4 -18l-11 -10l-11 -4l-14 3l-25 18l-70 71l-34 24l-20 29l-7 32l9 38l8 8l32 19l14 21l41 23l18 18l38 8z" />
    <glyph glyph-name="logicalnot" unicode="&#xac;" 
d="M82 1351v-1337h655v1337h-655zM68 0v1365h683v-1365h-683z" />
    <glyph glyph-name="registered" unicode="&#xae;" 
d="M82 1351v-1337h655v1337h-655zM68 0v1365h683v-1365h-683z" />
    <glyph glyph-name="macron" unicode="&#xaf;" 
d="M82 1351v-1337h655v1337h-655zM68 0v1365h683v-1365h-683z" />
    <glyph glyph-name="degree" unicode="&#xb0;" 
d="M82 1351v-1337h655v1337h-655zM68 0v1365h683v-1365h-683z" />
    <glyph glyph-name="plusminus" unicode="&#xb1;" horiz-adv-x="782" 
d="M266 1278h18l32 20l66 21l48 14l33 6l17 7l81 25l79 14l52 15l34 -3l40 18l55 3l33 8l50 -2l34 7l27 -5l6 -1l53 9l34 3l20 -3l40 -14l19 -3l14 -8l9 -12l4 -18l-4 -18l-23 -31l-30 -27l-42 -51l-39 -37l-30 -23l-12 -27l-10 -20l-19 -7l-11 -13l-16 -18l-20 -44l-17 -18
l-22 -35l-14 -10l-11 -12l-23 -5l3 -35l-18 -20l-22 -42l-28 -29l-27 -69l-34 -52l-10 -11l-20 -13l-5 -42l-15 -44l-12 -21l-17 -10l-3 -4l-6 -28l-13 -46l-19 -46l-18 -49l-21 -31l-8 -20l-7 -25l-13 -57l-9 -62l-10 -43l-3 -59l-8 -37l-13 -23l-14 -15l-26 2l-59 18
l-12 10l-25 39l-8 16l-11 32l-2 20l2 16l11 40l12 78l17 52l37 63l10 24l-1 29l21 32l25 58l45 61l17 18l2 8l-8 20v6l5 9l25 31l10 26l30 30l27 54l34 36l22 48l13 12l15 19l41 22l6 8l1 4v24l36 44l54 70l14 11l6 14l14 18l18 24l34 23l15 17l14 14l9 28l6 8l10 10l39 27
l4 4l1 6l-1 6l-3 3l-30 9l-42 7l-37 -15l-13 6l-8 1l-6 -1l-62 -14l-41 3l-53 -17l-41 -10l-17 -17l-20 2l-70 -11l-88 -38l-27 -6l-29 -20l-43 -8l-17 -6l-20 -15l-42 -38l-43 -16l-12 -22l-33 -19l-10 -31l-22 -11l-20 -9l-18 -13l-32 1l-27 -15l-12 -3l-13 4l-36 42
l-13 37l4 17l26 37l73 57l21 14l80 28z" />
    <glyph glyph-name="acute" unicode="&#xb4;" horiz-adv-x="578" 
d="M326 1023l25 -10l31 4l41 -5l14 -14l5 -16l-1 -8l-4 -6l-36 -49l-14 -27l-23 -18l-17 -27l-60 -37l-16 -18l-14 -3l-18 -17l-9 -7h-5l-19 1l-21 -2l-13 9l-18 -9l-7 6l-9 10l-1 9l2 10l5 6l25 19l21 29l23 17l15 21l20 15l8 20l14 19l17 44l15 21l16 11z" />
    <glyph glyph-name="mu" unicode="&#xb5;" horiz-adv-x="466" 
d="M303 1042v3l8 25l38 54l6 2l4 -1l43 -33l20 -23l8 -30l-7 -34l-11 -25l-13 -14l-21 -5h-7l-25 12l-23 24zM99 490l14 11l1 21l20 48l4 44l12 23l38 26l69 16l22 -4l25 -29l14 -52l-14 -52l-17 -27l-13 -4l-2 -23l-20 -13l-10 -26l-55 -71l-16 -45l-15 -17l-16 -83l-9 -34
l10 -9l5 1l5 2l46 40l41 16l40 41l19 6l23 14l12 12l16 9l13 15l45 39l58 50l5 1l15 -4l9 -9l2 -5l-1 -3l-11 -37l2 -19l-3 -22l-13 -1l-14 -16l-36 -16l-12 -32l-13 -6l-12 -15h-17l-22 -31l-8 -3l-8 -7l-13 -1l-14 -15l-18 -6l-7 -10l-15 -9l-11 -12l-10 -3l-8 -8l-40 -31
l-78 -22l-39 16l-34 31l-15 64l-1 21l4 46l15 43l2 27l28 59l5 28l13 18z" />
    <glyph glyph-name="paragraph" unicode="&#xb6;" 
d="M82 1351v-1337h655v1337h-655zM68 0v1365h683v-1365h-683z" />
    <glyph glyph-name="periodcentered" unicode="&#xb7;" horiz-adv-x="488" 
d="M187 742l-10 16l15 42l12 33l3 3l27 18l17 17l8 4h3l30 -15l25 -15l30 -48l27 -26l4 -10l1 -8l-12 -33l-40 -52l-19 -15l-22 -7l-19 5l-23 16l-20 18z" />
    <glyph glyph-name="periodcentered" unicode="&#x2219;" horiz-adv-x="488" 
d="M187 742l-10 16l15 42l12 33l3 3l27 18l17 17l8 4h3l30 -15l25 -15l30 -48l27 -26l4 -10l1 -8l-12 -33l-40 -52l-19 -15l-22 -7l-19 5l-23 16l-20 18z" />
    <glyph glyph-name="cedilla" unicode="&#xb8;" 
d="M82 1351v-1337h655v1337h-655zM68 0v1365h683v-1365h-683z" />
    <glyph glyph-name="ordmasculine" unicode="&#xba;" 
d="M82 1351v-1337h655v1337h-655zM68 0v1365h683v-1365h-683z" />
    <glyph glyph-name="guillemotright" unicode="&#xbb;" horiz-adv-x="628" 
d="M385 363l12 25l-18 18l-34 48l-35 11l-13 8l-8 14l-4 26l4 25l5 5l8 2l7 -1l22 -22l46 -37l50 -36l40 -18l20 -19l15 -18l5 -19l-2 -10l-2 -4l-43 -43l-29 -38l-20 -9l-60 -94l-13 -3l-21 5l-14 14l-12 48l4 37l3 3l37 35l21 32zM205 363l14 25l-21 22l-14 24l-15 21
l-28 8l-14 15l-8 35l2 13l8 8l10 3l8 -2l62 -61l98 -69l12 -22l2 -11l-2 -11l-3 -5l-36 -32l-30 -36l-29 -16l-52 -78l-10 -4l-4 -1l-18 5l-16 18l-9 36l6 39l36 32l23 31z" />
    <glyph glyph-name="questiondown" unicode="&#xbf;" horiz-adv-x="1218" 
d="M981 1280l16 14l56 -8l17 -21l21 -29l4 -21l12 -34l-3 -12l-5 -7l-13 -11l-10 -22l-23 -26l-24 -26l-13 -9l-19 -4l-21 4l-24 15l-10 12l-26 49l-14 27v6l3 15zM219 471l24 -11l17 23l17 15l9 4l20 5l40 35l31 1l32 15l47 9l28 16l23 10l13 2l29 -6l22 24l27 18l36 27
l36 10l30 -1l29 28l19 10l28 23l32 1l48 30l22 5l19 12l24 10l29 36l16 23l1 22l1 89l4 12l9 11l23 17l8 2l8 -1l7 -6l8 -13l21 -68l24 -25l19 -29l20 -34v-3l-8 -40l-15 -41l-40 -47l-45 -34l-16 -14l-22 -6l-48 -33l-29 -17l-30 -18l-40 -16l-65 -35l-60 -24l-59 -27
l-34 -14l-22 -17l-30 -5l-27 -21l-34 -2l-15 -7l-69 -26l-34 -18l-60 -20l-37 -22l-40 -7l-66 -37l-16 -12l-12 -35l43 -42l36 1l54 -8l50 7l49 -14l38 14h58l49 19l31 -4l25 10l34 4l48 6l27 3l39 13l45 -10l33 18l31 8l30 27l20 6l20 47l16 12l34 10l17 -3l29 -11l9 -9
l8 -19l1 -14v-6l-11 -38l-14 -42l-67 -36l-50 -12h-2l-33 5l-8 -14l-25 -1l-32 -9l-22 3l-20 -5l-26 4l-16 -14l-13 -8l-5 -1h-2l-16 10l-30 -13l-28 -4l-45 -14h-4l-28 1l-30 -2l-26 -2l-12 3l-13 12l-35 -8l-17 -1l-11 2l-12 4l-37 -3l-25 5l-34 -4l-23 11l-24 1l-19 8
l-31 -5l-17 13l-63 15l-11 9l-35 39l-9 18l-5 19l-4 22h-10l-1 4l-2 21l2 24l13 54l6 8l17 14l19 24l11 10l5 2l37 7l65 49l8 1z" />
    <glyph glyph-name="Agrave" unicode="&#xc0;" 
d="M82 1351v-1337h655v1337h-655zM68 0v1365h683v-1365h-683z" />
    <glyph glyph-name="Aacute" unicode="&#xc1;" 
d="M83 1351v-1337h655v1337h-655zM69 0v1365h683v-1365h-683z" />
    <glyph glyph-name="Acircumflex" unicode="&#xc2;" 
d="M82 1351v-1337h655v1337h-655zM68 0v1365h683v-1365h-683z" />
    <glyph glyph-name="Atilde" unicode="&#xc3;" 
d="M82 1351v-1337h655v1337h-655zM68 0v1365h683v-1365h-683z" />
    <glyph glyph-name="Adieresis" unicode="&#xc4;" 
d="M82 1351v-1337h655v1337h-655zM68 0v1365h683v-1365h-683z" />
    <glyph glyph-name="Aring" unicode="&#xc5;" 
d="M82 1351v-1337h655v1337h-655zM68 0v1365h683v-1365h-683z" />
    <glyph glyph-name="AE" unicode="&#xc6;" 
d="M82 1351v-1337h655v1337h-655zM68 0v1365h683v-1365h-683z" />
    <glyph glyph-name="Ccedilla" unicode="&#xc7;" horiz-adv-x="1077" 
d="M158 -237l-8 2l16 45l38 33l22 2l69 18l14 16l6 24l-1 9l-6 23l-18 10l-16 18l-4 12l2 9l30 37l34 42l-26 4l-21 9l-7 8l-13 22l-18 9l-13 29l-16 14l-7 22l-20 46l-17 131l3 27l12 36l10 43l34 94l24 65l11 15l18 46l16 16l12 22l14 2l-6 12l-4 22l14 19l15 12l6 25
l13 16l13 18l14 2l13 7l16 -19l12 13l-20 12l-7 14l-5 12l-1 2l1 6l4 6l18 13l20 8l-9 9l-2 9l18 20l11 25l21 11l4 -4l10 2l4 24l-1 20v1l1 6l10 13l22 18l7 18l40 31l13 20l27 21l23 13l6 -6l17 -6l-10 -14l13 7l4 19l-12 15v10l11 11l61 49l38 23l16 15l14 2l11 -2l6 -9
l5 2l-3 20l9 2l18 18l55 20l19 13l76 17l32 12l8 -2l15 -13l17 8l21 -18l29 -24l5 -7l7 -17l10 -30v-2l-4 -40l1 -42l-17 -36l-7 -37l-16 -33l-12 -40l-15 -26l-11 -25l-53 -74l-57 -91l-13 -15l-20 -9l4 -21l-6 -16l-20 -22l-28 -20l-23 -5l-26 7l-11 8l-25 30l-5 16l7 21
l6 13l13 20l58 45l22 17l17 2l6 14l-2 10l17 23l14 10l15 23l16 7l15 24l27 46l5 24l20 13l1 32l16 13l3 27l19 54l-1 23v21l-5 13l-10 8l-15 4l-11 -2l-72 -32l-9 -2l-5 1l-11 7l-6 -5l-6 -17l-15 -5l-18 -17h-16l-19 -26l-20 -12l-8 -19l-22 -6l-20 -33h-19l-7 -28
l-28 -26l-13 -16l-19 -4l-4 -29l-19 -10l-10 -22l-13 -10l-13 -12l-12 -1l2 -21l-25 -25l-4 -29l-21 -33l-14 -19l-5 -19l-12 -23l-9 -7l-25 -6l4 -31l-17 -27l-10 -26l-23 -31l-2 -20l-13 -25l-23 -60l-23 -22l-4 -23l-4 -20l-20 -27l-9 -41l-19 -15l10 -7l3 -5v-5l-20 -48
l-17 -44l7 -8l2 -10l-3 -23l-4 -35v-6l5 -22l-10 -3l1 -13l16 -16l17 -24l11 -20l23 -1l26 6l22 2l31 14l44 13l19 22l17 4l24 6l17 20l14 18l44 24l24 24l21 6l14 19l15 10l14 14l49 44l17 27l7 5l4 1l18 -3l9 22l33 21l10 21l27 19l28 28l22 1l5 21l5 9l3 3l19 3l8 22
l13 13l13 2l7 4l2 14l7 10l8 6l28 14l24 9l8 -2l16 -19l6 -19v-3l-2 -3l-21 -22l-4 -18l-41 -38l-7 -23l-26 -16l-30 -39l-17 -6l-7 -22l-38 -31l-9 -27l-24 -7l-45 -55h-17l-16 -21l-24 -7l-19 -28l-20 -25l-16 2l-2 14l-18 -12l4 -23l-22 -26l-21 -13l-25 -5l-9 -21
l-25 -10l-29 -27l-24 -1l-17 -14h-26l-18 -16l-11 -3l-10 -9l-22 5l1 19l-6 -20l-5 -17l-26 -3l-16 -23l-17 -27l-5 -25l22 -9l15 -17l6 -23l-9 -54l-6 -21l-14 -21l-8 -24l-24 -10l-22 -15l-40 -12l-23 -17l-20 -1h-22l-25 -15l-21 5l-16 -2l-32 14z" />
    <glyph glyph-name="Egrave" unicode="&#xc8;" 
d="M82 1351v-1337h655v1337h-655zM68 0v1365h683v-1365h-683z" />
    <glyph glyph-name="Eacute" unicode="&#xc9;" 
d="M82 1351v-1337h655v1337h-655zM68 0v1365h683v-1365h-683z" />
    <glyph glyph-name="Ecircumflex" unicode="&#xca;" 
d="M82 1351v-1337h655v1337h-655zM68 0v1365h683v-1365h-683z" />
    <glyph glyph-name="Edieresis" unicode="&#xcb;" 
d="M82 1351v-1337h655v1337h-655zM68 0v1365h683v-1365h-683z" />
    <glyph glyph-name="Igrave" unicode="&#xcc;" 
d="M82 1351v-1337h655v1337h-655zM68 0v1365h683v-1365h-683z" />
    <glyph glyph-name="Iacute" unicode="&#xcd;" 
d="M82 1351v-1337h655v1337h-655zM68 0v1365h683v-1365h-683z" />
    <glyph glyph-name="Icircumflex" unicode="&#xce;" 
d="M82 1351v-1337h655v1337h-655zM68 0v1365h683v-1365h-683z" />
    <glyph glyph-name="Idieresis" unicode="&#xcf;" 
d="M82 1351v-1337h655v1337h-655zM68 0v1365h683v-1365h-683z" />
    <glyph glyph-name="Ntilde" unicode="&#xd1;" 
d="M82 1351v-1337h655v1337h-655zM68 0v1365h683v-1365h-683z" />
    <glyph glyph-name="Ograve" unicode="&#xd2;" 
d="M82 1351v-1337h655v1337h-655zM68 0v1365h683v-1365h-683z" />
    <glyph glyph-name="Oacute" unicode="&#xd3;" 
d="M82 1351v-1337h655v1337h-655zM68 0v1365h683v-1365h-683z" />
    <glyph glyph-name="Ocircumflex" unicode="&#xd4;" 
d="M82 1351v-1337h655v1337h-655zM68 0v1365h683v-1365h-683z" />
    <glyph glyph-name="Otilde" unicode="&#xd5;" 
d="M82 1351v-1337h655v1337h-655zM68 0v1365h683v-1365h-683z" />
    <glyph glyph-name="Odieresis" unicode="&#xd6;" 
d="M82 1351v-1337h655v1337h-655zM68 0v1365h683v-1365h-683z" />
    <glyph glyph-name="multiply" unicode="&#xd7;" horiz-adv-x="0" 
 />
    <glyph glyph-name="multiply" unicode="&#xfd;" horiz-adv-x="0" 
 />
    <glyph glyph-name="Oslash" unicode="&#xd8;" 
d="M82 1351v-1337h655v1337h-655zM68 0v1365h683v-1365h-683z" />
    <glyph glyph-name="Ugrave" unicode="&#xd9;" 
d="M82 1351v-1337h655v1337h-655zM68 0v1365h683v-1365h-683z" />
    <glyph glyph-name="Uacute" unicode="&#xda;" 
d="M82 1351v-1337h655v1337h-655zM68 0v1365h683v-1365h-683z" />
    <glyph glyph-name="Ucircumflex" unicode="&#xdb;" 
d="M82 1351v-1337h655v1337h-655zM68 0v1365h683v-1365h-683z" />
    <glyph glyph-name="Udieresis" unicode="&#xdc;" 
d="M82 1351v-1337h655v1337h-655zM68 0v1365h683v-1365h-683z" />
    <glyph glyph-name="germandbls" unicode="&#xdf;" horiz-adv-x="706" 
d="M123 624l18 12l5 22l21 34l6 17l49 61l26 51l28 31l5 19l36 45l7 27l20 37l20 29l20 29l21 21l16 29l39 42l7 19l24 17l24 28l14 10l53 38l34 17l34 6l37 -10l52 -55l12 -28v-2l-7 -36l-3 -29l-21 -27l-4 -34l-25 -24l-22 -43l-24 -20l-11 -21l-16 -17l-16 -23l26 -3
l64 -30l20 -17l20 -34l27 -38l15 -73l1 -19l-7 -60l-3 -7l-17 -22l-5 -67l-43 -57l-7 -32l-6 -8l-6 -4l-19 -5l-3 -22l-8 -19l-53 -58l-54 -67l-64 -31l-30 -30l-24 -10l-23 -19l-23 -2l-23 -32l-6 -3h-8h-8l-24 6l-29 -19l-28 -5l-29 -11l-19 4l-14 -7l-20 -11l-20 2
l-52 15l-49 67l-13 40l7 25l17 17l24 7l17 -3l17 -9l24 -20l23 6l49 12l57 21l51 32l117 90l20 11l56 67l29 27l17 14l3 24l11 16l15 22l8 2l6 21l43 89l5 27l5 38l-5 20l-10 10l-32 8l-22 4l-16 -14l-22 1l-12 -4l-22 -5l-94 -66l-12 -1l-24 7l-18 17l-4 15l1 9l30 47
l13 23l130 117l69 92l16 20l6 25l6 35l-4 17l-8 9l-10 3l-6 -1l-20 -15l-77 -54l-5 -5l-10 -17l-9 -24l-42 -19l3 -30l-3 -9l-7 -7l-21 -10l-2 -24l-6 -19l-34 -15l4 -31l-46 -73l-17 -41l-12 -15l-29 -51l-27 -41l-16 -14l-27 -39l-21 -26l-11 -26l-19 -16l-17 -28l-16 -15
l-25 -35l-55 -51l-47 -52l-9 -3l-9 3l-10 9l-11 38l-2 24l4 21l8 12l32 32l37 44l23 17l24 47l19 23z" />
    <glyph glyph-name="agrave" unicode="&#xe0;" horiz-adv-x="842" 
d="M419 340l5 14l42 31l9 18l16 12l35 34l19 20l16 25l-21 -6l-13 -1l-16 1l-63 9l-4 -1l-21 -11l-44 -11l-61 -36l-22 -8l-15 -17l-57 -43l-11 -20l-25 -24l-7 -18l-26 -16l-10 -30l-19 -26l-2 -12l1 -8l1 -28l6 -8l3 -2l11 -2l42 14l100 56l14 16l91 56l17 15zM10 252
l8 14h10l-3 22l9 20l42 60l5 15l26 25l16 25l34 25l37 40l65 42l61 42l35 14l33 21l49 14l34 15l20 -11l19 10l6 1l23 -8l32 -26l9 -22l4 -27l11 -22l15 13l21 32l24 20l42 11l23 -6l17 -16l6 -32l-9 -47l-25 -54l-25 -34l-23 -66l-9 -16v-34l-4 -32l3 -12l3 -4l7 -1l7 1
l14 9l33 32l20 12l35 35l10 3l16 25l34 21l22 27l16 15l8 1l9 -2l11 -12l5 -23l-6 -26l-17 -32l-7 -36l-16 -12l-42 -45l-18 -7l-23 -32l-24 -7l-13 -14l-20 -6l-10 -17l-31 -14l-52 -16l-21 5l-19 9l-19 4l-13 28l-13 22l-1 9v5l5 23l-10 11l1 21l-1 27v1l2 15l4 24l-5 5
l-20 -17l-22 -6l-12 -30l-19 -11l-9 -12l-19 -10l-19 -15h-17l-10 -19l-10 -14l-74 -55l-26 -24l-29 -17l-85 -49l-37 -7l-56 13l-34 26l-5 9l-8 33l-12 31v25l2 18v0zM549 826l4 -10l19 -21l1 -8l-2 -11l-6 -5l-30 -6l-23 2h-28l-19 22l-24 23l-1 22l-18 27l-7 18l-7 9v27
l-25 52v4l5 19l21 21l32 9l10 -1l23 -7l32 -1l10 -7l7 -18l13 -83l16 -55z" />
    <glyph glyph-name="aacute" unicode="&#xe1;" horiz-adv-x="842" 
d="M419 340l5 14l42 31l9 18l16 12l35 34l19 20l16 25l-21 -6l-13 -1l-16 1l-63 9l-4 -1l-21 -11l-44 -11l-61 -36l-22 -8l-15 -17l-57 -43l-11 -20l-25 -24l-7 -18l-26 -16l-10 -30l-19 -26l-2 -12l1 -8l1 -28l6 -8l3 -2l11 -2l42 14l100 56l14 16l91 56l17 15zM10 252
l8 14h10l-3 22l9 20l42 60l5 15l26 25l16 25l34 25l37 40l65 42l61 42l35 14l33 21l49 14l34 15l20 -11l19 10l6 1l23 -8l32 -26l9 -22l4 -27l11 -22l15 13l21 32l24 20l42 11l23 -6l17 -16l6 -32l-9 -47l-25 -54l-25 -34l-23 -66l-9 -16v-34l-4 -32l3 -12l3 -4l7 -1l7 1
l14 9l33 32l20 12l35 35l10 3l16 25l34 21l22 27l16 15l8 1l9 -2l11 -12l5 -23l-6 -26l-17 -32l-7 -36l-16 -12l-42 -45l-18 -7l-23 -32l-24 -7l-13 -14l-20 -6l-10 -17l-31 -14l-52 -16l-21 5l-19 9l-19 4l-13 28l-13 22l-1 9v5l5 23l-10 11l1 21l-1 27v1l2 15l4 24l-5 5
l-20 -17l-22 -6l-12 -30l-19 -11l-9 -12l-19 -10l-19 -15h-17l-10 -19l-10 -14l-74 -55l-26 -24l-29 -17l-85 -49l-37 -7l-56 13l-34 26l-5 9l-8 33l-12 31v25l2 18v0zM613 1023l25 -10l31 4l41 -5l14 -14l5 -16l-1 -8l-4 -6l-36 -49l-14 -27l-23 -18l-17 -27l-60 -37
l-16 -18l-14 -3l-18 -17l-9 -7h-5l-19 1l-21 -2l-13 9l-18 -9l-7 6l-9 10l-1 9l2 10l5 6l25 19l21 29l23 17l15 21l20 15l8 20l14 19l17 44l15 21l16 11z" />
    <glyph glyph-name="acircumflex" unicode="&#xe2;" horiz-adv-x="842" 
d="M419 340l5 14l42 31l9 18l16 12l35 34l19 20l16 25l-21 -6l-13 -1l-16 1l-63 9l-4 -1l-21 -11l-44 -11l-61 -36l-22 -8l-15 -17l-57 -43l-11 -20l-25 -24l-7 -18l-26 -16l-10 -30l-19 -26l-2 -12l1 -8l1 -28l6 -8l3 -2l11 -2l42 14l100 56l14 16l91 56l17 15zM10 252
l8 14h10l-3 22l9 20l42 60l5 15l26 25l16 25l34 25l37 40l65 42l61 42l35 14l33 21l49 14l34 15l20 -11l19 10l6 1l23 -8l32 -26l9 -22l4 -27l11 -22l15 13l21 32l24 20l42 11l23 -6l17 -16l6 -32l-9 -47l-25 -54l-25 -34l-23 -66l-9 -16v-34l-4 -32l3 -12l3 -4l7 -1l7 1
l14 9l33 32l20 12l35 35l10 3l16 25l34 21l22 27l16 15l8 1l9 -2l11 -12l5 -23l-6 -26l-17 -32l-7 -36l-16 -12l-42 -45l-18 -7l-23 -32l-24 -7l-13 -14l-20 -6l-10 -17l-31 -14l-52 -16l-21 5l-19 9l-19 4l-13 28l-13 22l-1 9v5l5 23l-10 11l1 21l-1 27v1l2 15l4 24l-5 5
l-20 -17l-22 -6l-12 -30l-19 -11l-9 -12l-19 -10l-19 -15h-17l-10 -19l-10 -14l-74 -55l-26 -24l-29 -17l-85 -49l-37 -7l-56 13l-34 26l-5 9l-8 33l-12 31v25l2 18v0zM314 783l4 18l19 11l38 36l18 9l29 29l25 17l62 64l31 17l23 27l18 11l23 5l27 -5l4 -3l15 -18l15 -13
l11 -32l22 -32l7 -27l18 -29l8 -29l27 -49l-6 -19l-3 -3l-5 -1l-26 2l-21 -6h-1l-16 4l-25 10l-14 18l-15 21l-24 21l-11 23l-20 22l-6 -18l-21 -8l-44 -32l-22 -11l-14 -18l-25 -14l-16 -14l-12 -3l-29 5l-21 8l-19 -8l-12 -2l-9 2l-6 5l-1 7v2z" />
    <glyph glyph-name="atilde" unicode="&#xe3;" horiz-adv-x="842" 
d="M419 340l5 14l42 31l9 18l16 12l35 34l19 20l16 25l-21 -6l-13 -1l-16 1l-63 9l-4 -1l-21 -11l-44 -11l-61 -36l-22 -8l-15 -17l-57 -43l-11 -20l-25 -24l-7 -18l-26 -16l-10 -30l-19 -26l-2 -12l1 -8l1 -28l6 -8l3 -2l11 -2l42 14l100 56l14 16l91 56l17 15zM10 252
l8 14h10l-3 22l9 20l42 60l5 15l26 25l16 25l34 25l37 40l65 42l61 42l35 14l33 21l49 14l34 15l20 -11l19 10l6 1l23 -8l32 -26l9 -22l4 -27l11 -22l15 13l21 32l24 20l42 11l23 -6l17 -16l6 -32l-9 -47l-25 -54l-25 -34l-23 -66l-9 -16v-34l-4 -32l3 -12l3 -4l7 -1l7 1
l14 9l33 32l20 12l35 35l10 3l16 25l34 21l22 27l16 15l8 1l9 -2l11 -12l5 -23l-6 -26l-17 -32l-7 -36l-16 -12l-42 -45l-18 -7l-23 -32l-24 -7l-13 -14l-20 -6l-10 -17l-31 -14l-52 -16l-21 5l-19 9l-19 4l-13 28l-13 22l-1 9v5l5 23l-10 11l1 21l-1 27v1l2 15l4 24l-5 5
l-20 -17l-22 -6l-12 -30l-19 -11l-9 -12l-19 -10l-19 -15h-17l-10 -19l-10 -14l-74 -55l-26 -24l-29 -17l-85 -49l-37 -7l-56 13l-34 26l-5 9l-8 33l-12 31v25l2 18v0zM435 970l28 17l9 11l12 7l19 12l13 3l20 -5l29 -27l15 -25l4 -23l16 -29l8 -19h8l11 17l23 19l7 12
l49 34l25 27l25 14l17 15l24 -6l8 -11l-6 -26l5 -21l-8 -14l-8 -27l-13 -16l-24 -27l-20 -11l-20 -26l-19 -8l-8 -5l-23 -27l-14 -20l-24 -3l-15 -16l-22 -2l-21 -2h-2l-9 2l-5 3l-4 4l-13 25l-13 8l-8 10l-9 37l-3 20l-6 7l-7 -2l-6 -13l-14 -8l-9 -5l-1 -1l-11 -18
l-28 -18l-11 -18l-14 -11l-12 -22l-20 -11l-10 -7l-3 -1l-5 1l-3 2l-2 3l-8 29l-15 37v6l1 10l3 4l21 19l8 18l27 20l22 36l26 18z" />
    <glyph glyph-name="adieresis" unicode="&#xe4;" horiz-adv-x="842" 
d="M419 340l5 14l42 31l9 18l16 12l35 34l19 20l16 25l-21 -6l-13 -1l-16 1l-63 9l-4 -1l-21 -11l-44 -11l-61 -36l-22 -8l-15 -17l-57 -43l-11 -20l-25 -24l-7 -18l-26 -16l-10 -30l-19 -26l-2 -12l1 -8l1 -28l6 -8l3 -2l11 -2l42 14l100 56l14 16l91 56l17 15zM10 252
l8 14h10l-3 22l9 20l42 60l5 15l26 25l16 25l34 25l37 40l65 42l61 42l35 14l33 21l49 14l34 15l20 -11l19 10l6 1l23 -8l32 -26l9 -22l4 -27l11 -22l15 13l21 32l24 20l42 11l23 -6l17 -16l6 -32l-9 -47l-25 -54l-25 -34l-23 -66l-9 -16v-34l-4 -32l3 -12l3 -4l7 -1l7 1
l14 9l33 32l20 12l35 35l10 3l16 25l34 21l22 27l16 15l8 1l9 -2l11 -12l5 -23l-6 -26l-17 -32l-7 -36l-16 -12l-42 -45l-18 -7l-23 -32l-24 -7l-13 -14l-20 -6l-10 -17l-31 -14l-52 -16l-21 5l-19 9l-19 4l-13 28l-13 22l-1 9v5l5 23l-10 11l1 21l-1 27v1l2 15l4 24l-5 5
l-20 -17l-22 -6l-12 -30l-19 -11l-9 -12l-19 -10l-19 -15h-17l-10 -19l-10 -14l-74 -55l-26 -24l-29 -17l-85 -49l-37 -7l-56 13l-34 26l-5 9l-8 33l-12 31v25l2 18v0zM528 914l15 25l43 25l10 10l20 -4l26 -18l36 -47l5 -21l-2 -11l-4 -4l-22 -19l-9 -15l-25 -5l-8 -16
l-21 -13l-31 9l-23 35l-14 12l-8 12l-3 15l1 6zM479 879l-14 -16l-13 -32l-19 -13l-16 -12h-5h-4l-15 10l-31 17l-15 16l-16 25l-3 21l7 24l25 29l30 25l14 3l21 -5l10 -10l22 -34l23 -26l2 -11z" />
    <glyph glyph-name="aring" unicode="&#xe5;" horiz-adv-x="842" 
d="M419 340l5 14l42 31l9 18l16 12l35 34l19 20l16 25l-21 -6l-13 -1l-16 1l-63 9l-4 -1l-21 -11l-44 -11l-61 -36l-22 -8l-15 -17l-57 -43l-11 -20l-25 -24l-7 -18l-26 -16l-10 -30l-19 -26l-2 -12l1 -8l1 -28l6 -8l3 -2l11 -2l42 14l100 56l14 16l91 56l17 15zM10 252
l8 14h10l-3 22l9 20l42 60l5 15l26 25l16 25l34 25l37 40l65 42l61 42l35 14l33 21l49 14l34 15l20 -11l19 10l6 1l23 -8l32 -26l9 -22l4 -27l11 -22l15 13l21 32l24 20l42 11l23 -6l17 -16l6 -32l-9 -47l-25 -54l-25 -34l-23 -66l-9 -16v-34l-4 -32l3 -12l3 -4l7 -1l7 1
l14 9l33 32l20 12l35 35l10 3l16 25l34 21l22 27l16 15l8 1l9 -2l11 -12l5 -23l-6 -26l-17 -32l-7 -36l-16 -12l-42 -45l-18 -7l-23 -32l-24 -7l-13 -14l-20 -6l-10 -17l-31 -14l-52 -16l-21 5l-19 9l-19 4l-13 28l-13 22l-1 9v5l5 23l-10 11l1 21l-1 27v1l2 15l4 24l-5 5
l-20 -17l-22 -6l-12 -30l-19 -11l-9 -12l-19 -10l-19 -15h-17l-10 -19l-10 -14l-74 -55l-26 -24l-29 -17l-85 -49l-37 -7l-56 13l-34 26l-5 9l-8 33l-12 31v25l2 18v0zM492 884l-9 -19l22 -28l6 -1l17 6l35 37l14 48l-5 17l-8 8l-14 4l-13 -4l-10 -9l-10 -17l-17 -24z
M611 1009l20 -10l11 -22l15 -56v-7l-10 -28l-29 -64l-7 -11l-34 -30l-62 -22l-11 2l-34 16l-21 4l-23 13l-11 15l-5 40l1 45l29 69l14 21l17 11l19 12l11 6l27 4l44 5h3z" />
    <glyph glyph-name="ae" unicode="&#xe6;" horiz-adv-x="1037" 
d="M597 427l-9 -24l84 42l49 39l45 31l20 20l33 25l-22 15l-21 -7l-20 -4l-20 -11l-48 -21l-22 -17l-42 -34l-6 -7zM502 480l6 16l-21 -1h-22l-59 9l-32 -14l-33 -6l-23 -15l-23 -9l-14 -11l-16 -14h-13l-15 -16l-21 -20l-33 -19l-16 -26l-19 -16l-11 -23l-28 -19l-8 -31
l-21 -35l-2 -12l4 -18l12 -12l12 -3l22 6l94 54l23 11l13 16l90 53l30 37l42 31l8 18l21 15l22 25zM-30 269l14 10l3 29l45 64l10 23l19 17l24 34l26 18l32 36l46 33l24 11l54 39l48 19l25 17l37 9l42 22l25 -9l34 12h1l4 -1l37 -33l7 -10l14 -44l12 -19l9 13l22 14l32 29
l37 19l22 5l34 21l44 1l24 9h32l34 1l45 -12l21 -4l17 -16l11 -19l4 -21l-5 -27l-17 -29l-21 -18l-40 -23l-53 -39l-18 -1l-9 -4l-7 -5l-19 -26l-14 2l-14 -11l-17 -26l-18 -5l-40 -30l-21 -7l-5 -22l-5 -4l-15 -6l-22 -6l-19 -18l-27 -7l-5 -21l-9 -36l3 -10l8 -8l20 -6
l28 2l51 2l61 25l30 -3l12 20l22 11l27 8l13 19l13 9l30 8l12 19l10 9l7 3l16 3l19 18l32 12l13 14l17 11l12 13l19 11l9 -17l5 31l9 14l14 7l13 1l19 16l6 21l34 15l14 -9l-5 -22l2 -39l-21 -32l-5 -31l-18 -10l-18 -18l-22 -7l-26 -34l-20 -20l-18 -20l-9 10l-13 -4
l-16 -27l-20 -11l-21 -18l-18 -3l-34 -33l-37 -8l-49 -34l-26 -5l-65 -26l-20 -3l-10 3l-19 11l-68 -6l-21 11l-37 18l-12 25h-14l-10 21l-22 42l-15 48l-6 22l-21 -11l-20 -16l-18 -2l-17 -31l-62 -45l-51 -42l-68 -40l-31 -18l-33 -2l-61 12l-27 18l-6 10l-12 37l-11 28
l1 32l-2 33v4l1 12z" />
    <glyph glyph-name="ccedilla" unicode="&#xe7;" horiz-adv-x="647" 
d="M-68 -216l-8 14l14 29l23 18l12 11l3 1l51 5l28 7l15 13l7 11l16 28l-4 26l-24 11l-18 14l-5 7l-1 9l1 8l6 8l48 53l9 16l-23 19l-23 10l-18 10l-10 27l-19 10l-14 14l-6 13l-11 41l-6 20l-1 7l2 9l17 48l12 41l8 16l19 12l5 23l8 25l4 6l19 18l13 16l16 9l6 24l10 10
l20 25l17 6l17 18l26 17l16 17l18 8l32 28l16 9l15 3h26l30 20h3l12 -2l20 -6l20 15l11 3l3 -1l45 -15l28 12l16 -9l21 -9l17 -34l9 -38l-4 -17l-12 -16l-40 -22l-22 -6l-15 12l-33 9l-22 6l-4 1l-23 -6l-21 -9l-7 15l-16 -16l-18 -14l-7 -2l-10 2l-14 -15l-25 -13l-22 -22
l-34 -16l-10 -8l-3 -4l-10 -20l-14 -19l-31 -48l-27 -21l-4 -40l-15 -14l1 -23l-8 -42l-1 -3l2 -7l15 -14l26 -6l17 2l13 5l39 2l50 13l29 11l2 10l29 18l22 -1l13 18l55 24l27 25l27 4l37 27l25 9l43 41l20 9l20 16l23 3l13 22l7 9l16 9l31 21h6l12 -3l8 -7l2 -9l-2 -7
l-3 -4l-14 -5l10 -31l-5 -16l-9 -17l-23 -13l-1 -22l-18 -6l-61 -51l-17 -17l-8 9l-13 3l-8 -19l-21 -18l-65 -43h-18l-10 -19l-30 -23l-18 -15h-20l-16 -12l-20 -4l-32 -28l-24 16l-9 -9l-8 -19l-24 -13l-21 -23l-26 -31l-6 -23l21 -8l15 -16l6 -24l-7 -43l-7 -22l-5 -9
l-15 -18l-6 -21l-20 -8l-23 -15l-37 -13l-19 -15h-15h-25l-26 -14l-48 18z" />
    <glyph glyph-name="egrave" unicode="&#xe8;" horiz-adv-x="595" 
d="M164 422l-7 -23l8 -3l19 13l36 16l45 35l15 9l25 21l14 9l7 13l16 4l15 19l12 9l25 17l-7 10l-9 4l-25 -8l-29 -4l-18 -10l-38 -14l-24 -19l-37 -26l-11 -9l-4 -6l-12 -31zM135 558l20 12l44 35l51 21l31 20l14 -3h5l27 7l20 6l39 2l24 1l17 -5l43 -9l21 -10l20 -24
l5 -20l-5 -26l-24 -37l-37 -31l-20 -5l-15 -18l-16 -9l-21 -18l-25 -1l-4 -3l-9 -9l-15 -22l-18 -1l-18 -12l-5 -15l-22 -10l-26 -21l-17 -13l-19 2l-8 -13l-2 -20l-15 -3l-12 -11l-11 3l-22 -20l-25 -1l-6 -24l-8 -36l5 -18l7 -7l8 -2l59 2l32 1l46 20l23 2h21l20 23l20 9
l23 6l10 17l7 7l8 5l31 8l19 24l32 11l16 20l30 8l18 21l27 19l11 9h9l7 -14l1 27l26 22l26 12l11 26l20 10l14 7l3 1l5 -2l4 -3l2 -5l-1 -1l-4 -28l3 -31l-18 -25l-11 -39l-14 -8l-23 -20l-16 -6l-30 -36l-24 -24l-16 -13l-7 10l-13 -3l-4 -17l-4 -9l-4 -3l-30 -17l-13 -12
l-24 -3l-20 -28l-43 -13l-58 -34l-17 -4l-73 -27l-21 -4l-12 2l-18 13l-24 -6l-32 -4l-12 3l-17 10l-38 19l-11 30l-18 -2l-23 73l-26 12l-5 7l-2 16l7 30l10 20l22 23l14 53l8 8l8 22l10 18l17 28l9 20l8 10l16 11l22 12l3 10l3 20l1 4zM399 826l4 -10l19 -21l1 -8l-2 -11
l-6 -5l-30 -6l-23 2h-28l-19 22l-24 23l-1 22l-18 27l-7 18l-7 9v27l-25 52v4l5 19l21 21l32 9l10 -1l23 -7l32 -1l10 -7l7 -18l13 -83l16 -55z" />
    <glyph glyph-name="eacute" unicode="&#xe9;" horiz-adv-x="595" 
d="M164 422l-7 -23l8 -3l19 13l36 16l45 35l15 9l25 21l14 9l7 13l16 4l15 19l12 9l25 17l-7 10l-9 4l-25 -8l-29 -4l-18 -10l-38 -14l-24 -19l-37 -26l-11 -9l-4 -6l-12 -31zM135 558l20 12l44 35l51 21l31 20l14 -3h5l27 7l20 6l39 2l24 1l17 -5l43 -9l21 -10l20 -24
l5 -20l-5 -26l-24 -37l-37 -31l-20 -5l-15 -18l-16 -9l-21 -18l-25 -1l-4 -3l-9 -9l-15 -22l-18 -1l-18 -12l-5 -15l-22 -10l-26 -21l-17 -13l-19 2l-8 -13l-2 -20l-15 -3l-12 -11l-11 3l-22 -20l-25 -1l-6 -24l-8 -36l5 -18l7 -7l8 -2l59 2l32 1l46 20l23 2h21l20 23l20 9
l23 6l10 17l7 7l8 5l31 8l19 24l32 11l16 20l30 8l18 21l27 19l11 9h9l7 -14l1 27l26 22l26 12l11 26l20 10l14 7l3 1l5 -2l4 -3l2 -5l-1 -1l-4 -28l3 -31l-18 -25l-11 -39l-14 -8l-23 -20l-16 -6l-30 -36l-24 -24l-16 -13l-7 10l-13 -3l-4 -17l-4 -9l-4 -3l-30 -17l-13 -12
l-24 -3l-20 -28l-43 -13l-58 -34l-17 -4l-73 -27l-21 -4l-12 2l-18 13l-24 -6l-32 -4l-12 3l-17 10l-38 19l-11 30l-18 -2l-23 73l-26 12l-5 7l-2 16l7 30l10 20l22 23l14 53l8 8l8 22l10 18l17 28l9 20l8 10l16 11l22 12l3 10l3 20l1 4zM517 1023l25 -10l31 4l41 -5l14 -14
l5 -16l-1 -8l-4 -6l-36 -49l-14 -27l-23 -18l-17 -27l-60 -37l-16 -18l-14 -3l-18 -17l-9 -7h-5l-19 1l-21 -2l-13 9l-18 -9l-7 6l-9 10l-1 9l2 10l5 6l25 19l21 29l23 17l15 21l20 15l8 20l14 19l17 44l15 21l16 11z" />
    <glyph glyph-name="ecircumflex" unicode="&#xea;" horiz-adv-x="595" 
d="M164 422l-7 -23l8 -3l19 13l36 16l45 35l15 9l25 21l14 9l7 13l16 4l15 19l12 9l25 17l-7 10l-9 4l-25 -8l-29 -4l-18 -10l-38 -14l-24 -19l-37 -26l-11 -9l-4 -6l-12 -31zM135 558l20 12l44 35l51 21l31 20l14 -3h5l27 7l20 6l39 2l24 1l17 -5l43 -9l21 -10l20 -24
l5 -20l-5 -26l-24 -37l-37 -31l-20 -5l-15 -18l-16 -9l-21 -18l-25 -1l-4 -3l-9 -9l-15 -22l-18 -1l-18 -12l-5 -15l-22 -10l-26 -21l-17 -13l-19 2l-8 -13l-2 -20l-15 -3l-12 -11l-11 3l-22 -20l-25 -1l-6 -24l-8 -36l5 -18l7 -7l8 -2l59 2l32 1l46 20l23 2h21l20 23l20 9
l23 6l10 17l7 7l8 5l31 8l19 24l32 11l16 20l30 8l18 21l27 19l11 9h9l7 -14l1 27l26 22l26 12l11 26l20 10l14 7l3 1l5 -2l4 -3l2 -5l-1 -1l-4 -28l3 -31l-18 -25l-11 -39l-14 -8l-23 -20l-16 -6l-30 -36l-24 -24l-16 -13l-7 10l-13 -3l-4 -17l-4 -9l-4 -3l-30 -17l-13 -12
l-24 -3l-20 -28l-43 -13l-58 -34l-17 -4l-73 -27l-21 -4l-12 2l-18 13l-24 -6l-32 -4l-12 3l-17 10l-38 19l-11 30l-18 -2l-23 73l-26 12l-5 7l-2 16l7 30l10 20l22 23l14 53l8 8l8 22l10 18l17 28l9 20l8 10l16 11l22 12l3 10l3 20l1 4zM164 783l4 18l19 11l38 36l18 9
l29 29l25 17l62 64l31 17l23 27l18 11l23 5l27 -5l4 -3l15 -18l15 -13l11 -32l22 -32l7 -27l18 -29l8 -29l27 -49l-6 -19l-3 -3l-5 -1l-26 2l-21 -6h-1l-16 4l-25 10l-14 18l-15 21l-24 21l-11 23l-20 22l-6 -18l-21 -8l-44 -32l-22 -11l-14 -18l-25 -14l-16 -14l-12 -3
l-29 5l-21 8l-19 -8l-12 -2l-9 2l-6 5l-1 7v2z" />
    <glyph glyph-name="edieresis" unicode="&#xeb;" horiz-adv-x="595" 
d="M164 422l-7 -23l8 -3l19 13l36 16l45 35l15 9l25 21l14 9l7 13l16 4l15 19l12 9l25 17l-7 10l-9 4l-25 -8l-29 -4l-18 -10l-38 -14l-24 -19l-37 -26l-11 -9l-4 -6l-12 -31zM135 558l20 12l44 35l51 21l31 20l14 -3h5l27 7l20 6l39 2l24 1l17 -5l43 -9l21 -10l20 -24
l5 -20l-5 -26l-24 -37l-37 -31l-20 -5l-15 -18l-16 -9l-21 -18l-25 -1l-4 -3l-9 -9l-15 -22l-18 -1l-18 -12l-5 -15l-22 -10l-26 -21l-17 -13l-19 2l-8 -13l-2 -20l-15 -3l-12 -11l-11 3l-22 -20l-25 -1l-6 -24l-8 -36l5 -18l7 -7l8 -2l59 2l32 1l46 20l23 2h21l20 23l20 9
l23 6l10 17l7 7l8 5l31 8l19 24l32 11l16 20l30 8l18 21l27 19l11 9h9l7 -14l1 27l26 22l26 12l11 26l20 10l14 7l3 1l5 -2l4 -3l2 -5l-1 -1l-4 -28l3 -31l-18 -25l-11 -39l-14 -8l-23 -20l-16 -6l-30 -36l-24 -24l-16 -13l-7 10l-13 -3l-4 -17l-4 -9l-4 -3l-30 -17l-13 -12
l-24 -3l-20 -28l-43 -13l-58 -34l-17 -4l-73 -27l-21 -4l-12 2l-18 13l-24 -6l-32 -4l-12 3l-17 10l-38 19l-11 30l-18 -2l-23 73l-26 12l-5 7l-2 16l7 30l10 20l22 23l14 53l8 8l8 22l10 18l17 28l9 20l8 10l16 11l22 12l3 10l3 20l1 4zM405 914l15 25l43 25l10 10l20 -4
l26 -18l36 -47l5 -21l-2 -11l-4 -4l-22 -19l-9 -15l-25 -5l-8 -16l-21 -13l-31 9l-23 35l-14 12l-8 12l-3 15l1 6zM356 879l-14 -16l-13 -32l-19 -13l-16 -12h-5h-4l-15 10l-31 17l-15 16l-16 25l-3 21l7 24l25 29l30 25l14 3l21 -5l10 -10l22 -34l23 -26l2 -11z" />
    <glyph glyph-name="igrave" unicode="&#xec;" horiz-adv-x="630" 
d="M-2 426l14 15l13 1l26 20l23 29l45 27l29 27l31 2l12 17l21 13l21 20l35 24l31 16l11 1l28 -8l34 -28l20 -24l9 -33l-8 -46l-20 -56l-15 -47l-13 -13l-8 -20l-12 -13l5 -29l-12 -19l-1 -45l-12 -13l4 -7l16 5h29l13 16l21 10l14 12l49 22l153 118l17 -4l5 -6l2 -10
l-7 -27l-15 -30l-14 -32l-18 -19l-12 -17l-16 -10l-21 -20l-26 -18l-51 -46l-27 -15l-12 -16l-27 -7l-14 -13l-14 -11l-18 -6l-22 -2l-21 -19l-25 -1l-16 -4h-2l-24 10l-14 9l-20 18l-3 9l-3 42l-9 32l-4 29l3 20l14 48l5 32l9 9l13 45l15 22l6 25l17 35l-5 9l-9 2l-21 -13
l-15 3l-16 -14l-15 -4l-19 -14l-15 7l-10 -5l-8 -27l-4 -3l-27 -10l-23 -8l-11 -25l-19 -16l-12 -11l-11 -3l-13 4l-8 8l-3 11v3l6 40zM399 826l4 -10l19 -21l1 -8l-2 -11l-6 -5l-30 -6l-23 2h-28l-19 22l-24 23l-1 22l-18 27l-7 18l-7 9v27l-25 52v4l5 19l21 21l32 9l10 -1
l23 -7l32 -1l10 -7l7 -18l13 -83l16 -55z" />
    <glyph glyph-name="iacute" unicode="&#xed;" horiz-adv-x="630" 
d="M-2 426l14 15l13 1l26 20l23 29l45 27l29 27l31 2l12 17l21 13l21 20l35 24l31 16l11 1l28 -8l34 -28l20 -24l9 -33l-8 -46l-20 -56l-15 -47l-13 -13l-8 -20l-12 -13l5 -29l-12 -19l-1 -45l-12 -13l4 -7l16 5h29l13 16l21 10l14 12l49 22l153 118l17 -4l5 -6l2 -10
l-7 -27l-15 -30l-14 -32l-18 -19l-12 -17l-16 -10l-21 -20l-26 -18l-51 -46l-27 -15l-12 -16l-27 -7l-14 -13l-14 -11l-18 -6l-22 -2l-21 -19l-25 -1l-16 -4h-2l-24 10l-14 9l-20 18l-3 9l-3 42l-9 32l-4 29l3 20l14 48l5 32l9 9l13 45l15 22l6 25l17 35l-5 9l-9 2l-21 -13
l-15 3l-16 -14l-15 -4l-19 -14l-15 7l-10 -5l-8 -27l-4 -3l-27 -10l-23 -8l-11 -25l-19 -16l-12 -11l-11 -3l-13 4l-8 8l-3 11v3l6 40zM517 1023l25 -10l31 4l41 -5l14 -14l5 -16l-1 -8l-4 -6l-36 -49l-14 -27l-23 -18l-17 -27l-60 -37l-16 -18l-14 -3l-18 -17l-9 -7h-5
l-19 1l-21 -2l-13 9l-18 -9l-7 6l-9 10l-1 9l2 10l5 6l25 19l21 29l23 17l15 21l20 15l8 20l14 19l17 44l15 21l16 11z" />
    <glyph glyph-name="icircumflex" unicode="&#xee;" horiz-adv-x="630" 
d="M-2 426l14 15l13 1l26 20l23 29l45 27l29 27l31 2l12 17l21 13l21 20l35 24l31 16l11 1l28 -8l34 -28l20 -24l9 -33l-8 -46l-20 -56l-15 -47l-13 -13l-8 -20l-12 -13l5 -29l-12 -19l-1 -45l-12 -13l4 -7l16 5h29l13 16l21 10l14 12l49 22l153 118l17 -4l5 -6l2 -10
l-7 -27l-15 -30l-14 -32l-18 -19l-12 -17l-16 -10l-21 -20l-26 -18l-51 -46l-27 -15l-12 -16l-27 -7l-14 -13l-14 -11l-18 -6l-22 -2l-21 -19l-25 -1l-16 -4h-2l-24 10l-14 9l-20 18l-3 9l-3 42l-9 32l-4 29l3 20l14 48l5 32l9 9l13 45l15 22l6 25l17 35l-5 9l-9 2l-21 -13
l-15 3l-16 -14l-15 -4l-19 -14l-15 7l-10 -5l-8 -27l-4 -3l-27 -10l-23 -8l-11 -25l-19 -16l-12 -11l-11 -3l-13 4l-8 8l-3 11v3l6 40zM151 783l4 18l19 11l38 36l18 9l29 29l25 17l62 64l31 17l23 27l18 11l23 5l27 -5l4 -3l15 -18l15 -13l11 -32l22 -32l7 -27l18 -29
l8 -29l27 -49l-6 -19l-3 -3l-5 -1l-26 2l-21 -6h-1l-16 4l-25 10l-14 18l-15 21l-24 21l-11 23l-20 22l-6 -18l-21 -8l-44 -32l-22 -11l-14 -18l-25 -14l-16 -14l-12 -3l-29 5l-21 8l-19 -8l-12 -2l-9 2l-6 5l-1 7v2z" />
    <glyph glyph-name="idieresis" unicode="&#xef;" horiz-adv-x="630" 
d="M-2 426l14 15l13 1l26 20l23 29l45 27l29 27l31 2l12 17l21 13l21 20l35 24l31 16l11 1l28 -8l34 -28l20 -24l9 -33l-8 -46l-20 -56l-15 -47l-13 -13l-8 -20l-12 -13l5 -29l-12 -19l-1 -45l-12 -13l4 -7l16 5h29l13 16l21 10l14 12l49 22l153 118l17 -4l5 -6l2 -10
l-7 -27l-15 -30l-14 -32l-18 -19l-12 -17l-16 -10l-21 -20l-26 -18l-51 -46l-27 -15l-12 -16l-27 -7l-14 -13l-14 -11l-18 -6l-22 -2l-21 -19l-25 -1l-16 -4h-2l-24 10l-14 9l-20 18l-3 9l-3 42l-9 32l-4 29l3 20l14 48l5 32l9 9l13 45l15 22l6 25l17 35l-5 9l-9 2l-21 -13
l-15 3l-16 -14l-15 -4l-19 -14l-15 7l-10 -5l-8 -27l-4 -3l-27 -10l-23 -8l-11 -25l-19 -16l-12 -11l-11 -3l-13 4l-8 8l-3 11v3l6 40zM419 914l15 25l43 25l10 10l20 -4l26 -18l36 -47l5 -21l-2 -11l-4 -4l-22 -19l-9 -15l-25 -5l-8 -16l-21 -13l-31 9l-23 35l-14 12l-8 12
l-3 15l1 6zM370 879l-14 -16l-13 -32l-19 -13l-16 -12h-5h-4l-15 10l-31 17l-15 16l-16 25l-3 21l7 24l25 29l30 25l14 3l21 -5l10 -10l22 -34l23 -26l2 -11z" />
    <glyph glyph-name="ntilde" unicode="&#xf1;" horiz-adv-x="1065" 
d="M112 515l22 4l14 14l19 9l20 30l21 18l19 6l25 -4l23 -6l38 -43l11 -17l8 -21l2 -18l-4 -57l-14 -28l6 -10l5 -1h4l7 4l16 13l20 11l32 36l32 14l16 13l12 15l22 13l20 18l22 5l62 33l25 7l35 12h1l35 -9l18 -7l32 -22l10 -15l10 -29l8 -21l-2 -22l3 -19l2 -16l-2 -16
l-6 -39l-3 -60l-20 -30l-1 -6l1 -5l1 -3l15 -22l11 -31l6 -4l3 -1l20 6l21 6l12 19l22 12l5 11l17 16l19 -6l4 18l7 8l24 32l28 13l50 39l17 12l21 20l3 1l7 1l6 -1l4 -3l2 -5l-4 -23l1 -32v-2l-4 -19l-24 -31l-44 -42l-28 -32l-3 -2l-17 -6l-28 -22l-35 -31l-9 -22l-23 -2
l-16 -23l-25 -12l-28 -19l-28 3l-24 -3l-33 19l-19 6l-10 6l-29 40l-12 20l-11 28l1 4l6 27l-9 28l-1 17l-6 16l7 11l-2 11l2 58l-1 24l-1 31l-3 7l-9 9l-8 3l-2 -1l-70 -40l-41 -17l-19 -14l-6 -10l-98 -81l-31 -24l-22 -7l-4 -9l-3 -22l-18 -10l-22 -22l-13 12l-8 -1
l-11 -19l-10 -24l-27 -5l-5 -17l-15 -2l-16 -9l-21 -20l-16 -23l-20 8l-28 14l-14 21l-8 38l12 85l14 20l19 9l5 24l18 13l22 29l20 4l4 26l31 58l5 23l-30 -27l-18 -2l-19 -26l-17 2l-15 -16l-46 -24l-13 -23l-38 -19l-13 10l-9 13l-2 10l26 73l13 17l54 33l18 16zM449 970
l28 17l9 11l12 7l19 12l13 3l20 -5l29 -27l15 -25l4 -23l16 -29l8 -19h8l11 17l23 19l7 12l49 34l25 27l25 14l17 15l24 -6l8 -11l-6 -26l5 -21l-8 -14l-8 -27l-13 -16l-24 -27l-20 -11l-20 -26l-19 -8l-8 -5l-23 -27l-14 -20l-24 -3l-15 -16l-22 -2l-21 -2h-2l-9 2l-5 3
l-4 4l-13 25l-13 8l-8 10l-9 37l-3 20l-6 7l-7 -2l-6 -13l-14 -8l-9 -5l-1 -1l-11 -18l-28 -18l-11 -18l-14 -11l-12 -22l-20 -11l-10 -7l-3 -1l-5 1l-3 2l-2 3l-8 29l-15 37v6l1 10l3 4l21 19l8 18l27 20l22 36l26 18z" />
    <glyph glyph-name="ograve" unicode="&#xf2;" horiz-adv-x="674" 
d="M181 259l14 -12l-6 -23l-5 -30l1 -6l12 -31l4 -23l2 -1l21 -1l35 -5l16 4l26 7l16 14l23 9l19 28h17l8 21l40 30l12 26l21 19l21 45l13 23l8 45l-3 18l-3 3l-23 24l-11 15l-3 16l5 19l21 28l23 20v6l-5 5l-23 -9l-14 -15l-4 -2l-28 -9l-31 -10l-14 10l-12 -1l-14 -24
l-19 -6l-20 -22l-16 -3l-8 -5l-4 -7l-9 -22l-53 -55l-6 -20l-15 -38l-6 -27l-20 -14l-4 -7zM-29 385v7l13 20l19 29l4 2l23 8l19 27l43 31l33 31l21 7l102 63l53 21l58 15l22 5l20 6l27 12l3 1l58 -19l40 -15l30 -19l10 -14l4 -20l-2 -11l-14 -21l28 -16l11 -22l13 -22
l9 -32l1 -52l-2 -24l-11 -16v-22l-4 -31l-5 -8l-25 -30l-9 -23l-18 -19l-5 -21l-1 -3l-61 -51l-17 -16l-13 4l-39 -37h-12l-11 -6l-39 -19l-26 -13l-25 -3l-16 -12h-25l-24 1l-10 -6h-12l-18 11l-23 7l-27 26l-40 34l-11 14l-24 40l-9 29v1l2 39v13l8 16l1 39l15 55l8 21
l-8 12l-14 -16l-16 -4l-7 -21l-8 -3l-10 6l-11 -22l-15 -15l-12 -3l-10 3l-3 3l-1 4v27zM480 826l4 -10l19 -21l1 -8l-2 -11l-6 -5l-30 -6l-23 2h-28l-19 22l-24 23l-1 22l-18 27l-7 18l-7 9v27l-25 52v4l5 19l21 21l32 9l10 -1l23 -7l32 -1l10 -7l7 -18l13 -83l16 -55z" />
    <glyph glyph-name="oacute" unicode="&#xf3;" horiz-adv-x="674" 
d="M181 259l14 -12l-6 -23l-5 -30l1 -6l12 -31l4 -23l2 -1l21 -1l35 -5l16 4l26 7l16 14l23 9l19 28h17l8 21l40 30l12 26l21 19l21 45l13 23l8 45l-3 18l-3 3l-23 24l-11 15l-3 16l5 19l21 28l23 20v6l-5 5l-23 -9l-14 -15l-4 -2l-28 -9l-31 -10l-14 10l-12 -1l-14 -24
l-19 -6l-20 -22l-16 -3l-8 -5l-4 -7l-9 -22l-53 -55l-6 -20l-15 -38l-6 -27l-20 -14l-4 -7zM-29 385v7l13 20l19 29l4 2l23 8l19 27l43 31l33 31l21 7l102 63l53 21l58 15l22 5l20 6l27 12l3 1l58 -19l40 -15l30 -19l10 -14l4 -20l-2 -11l-14 -21l28 -16l11 -22l13 -22
l9 -32l1 -52l-2 -24l-11 -16v-22l-4 -31l-5 -8l-25 -30l-9 -23l-18 -19l-5 -21l-1 -3l-61 -51l-17 -16l-13 4l-39 -37h-12l-11 -6l-39 -19l-26 -13l-25 -3l-16 -12h-25l-24 1l-10 -6h-12l-18 11l-23 7l-27 26l-40 34l-11 14l-24 40l-9 29v1l2 39v13l8 16l1 39l15 55l8 21
l-8 12l-14 -16l-16 -4l-7 -21l-8 -3l-10 6l-11 -22l-15 -15l-12 -3l-10 3l-3 3l-1 4v27zM599 1023l25 -10l31 4l41 -5l14 -14l5 -16l-1 -8l-4 -6l-36 -49l-14 -27l-23 -18l-17 -27l-60 -37l-16 -18l-14 -3l-18 -17l-9 -7h-5l-19 1l-21 -2l-13 9l-18 -9l-7 6l-9 10l-1 9l2 10
l5 6l25 19l21 29l23 17l15 21l20 15l8 20l14 19l17 44l15 21l16 11z" />
    <glyph glyph-name="ocircumflex" unicode="&#xf4;" horiz-adv-x="674" 
d="M181 259l14 -12l-6 -23l-5 -30l1 -6l12 -31l4 -23l2 -1l21 -1l35 -5l16 4l26 7l16 14l23 9l19 28h17l8 21l40 30l12 26l21 19l21 45l13 23l8 45l-3 18l-3 3l-23 24l-11 15l-3 16l5 19l21 28l23 20v6l-5 5l-23 -9l-14 -15l-4 -2l-28 -9l-31 -10l-14 10l-12 -1l-14 -24
l-19 -6l-20 -22l-16 -3l-8 -5l-4 -7l-9 -22l-53 -55l-6 -20l-15 -38l-6 -27l-20 -14l-4 -7zM-29 385v7l13 20l19 29l4 2l23 8l19 27l43 31l33 31l21 7l102 63l53 21l58 15l22 5l20 6l27 12l3 1l58 -19l40 -15l30 -19l10 -14l4 -20l-2 -11l-14 -21l28 -16l11 -22l13 -22
l9 -32l1 -52l-2 -24l-11 -16v-22l-4 -31l-5 -8l-25 -30l-9 -23l-18 -19l-5 -21l-1 -3l-61 -51l-17 -16l-13 4l-39 -37h-12l-11 -6l-39 -19l-26 -13l-25 -3l-16 -12h-25l-24 1l-10 -6h-12l-18 11l-23 7l-27 26l-40 34l-11 14l-24 40l-9 29v1l2 39v13l8 16l1 39l15 55l8 21
l-8 12l-14 -16l-16 -4l-7 -21l-8 -3l-10 6l-11 -22l-15 -15l-12 -3l-10 3l-3 3l-1 4v27zM274 783l4 18l19 11l38 36l18 9l29 29l25 17l62 64l31 17l23 27l18 11l23 5l27 -5l4 -3l15 -18l15 -13l11 -32l22 -32l7 -27l18 -29l8 -29l27 -49l-6 -19l-3 -3l-5 -1l-26 2l-21 -6h-1
l-16 4l-25 10l-14 18l-15 21l-24 21l-11 23l-20 22l-6 -18l-21 -8l-44 -32l-22 -11l-14 -18l-25 -14l-16 -14l-12 -3l-29 5l-21 8l-19 -8l-12 -2l-9 2l-6 5l-1 7v2z" />
    <glyph glyph-name="otilde" unicode="&#xf5;" horiz-adv-x="674" 
d="M181 259l14 -12l-6 -23l-5 -30l1 -6l12 -31l4 -23l2 -1l21 -1l35 -5l16 4l26 7l16 14l23 9l19 28h17l8 21l40 30l12 26l21 19l21 45l13 23l8 45l-3 18l-3 3l-23 24l-11 15l-3 16l5 19l21 28l23 20v6l-5 5l-23 -9l-14 -15l-4 -2l-28 -9l-31 -10l-14 10l-12 -1l-14 -24
l-19 -6l-20 -22l-16 -3l-8 -5l-4 -7l-9 -22l-53 -55l-6 -20l-15 -38l-6 -27l-20 -14l-4 -7zM-29 385v7l13 20l19 29l4 2l23 8l19 27l43 31l33 31l21 7l102 63l53 21l58 15l22 5l20 6l27 12l3 1l58 -19l40 -15l30 -19l10 -14l4 -20l-2 -11l-14 -21l28 -16l11 -22l13 -22
l9 -32l1 -52l-2 -24l-11 -16v-22l-4 -31l-5 -8l-25 -30l-9 -23l-18 -19l-5 -21l-1 -3l-61 -51l-17 -16l-13 4l-39 -37h-12l-11 -6l-39 -19l-26 -13l-25 -3l-16 -12h-25l-24 1l-10 -6h-12l-18 11l-23 7l-27 26l-40 34l-11 14l-24 40l-9 29v1l2 39v13l8 16l1 39l15 55l8 21
l-8 12l-14 -16l-16 -4l-7 -21l-8 -3l-10 6l-11 -22l-15 -15l-12 -3l-10 3l-3 3l-1 4v27zM395 970l28 17l9 11l12 7l19 12l13 3l20 -5l29 -27l15 -25l4 -23l16 -29l8 -19h8l11 17l23 19l7 12l49 34l25 27l25 14l17 15l24 -6l8 -11l-6 -26l5 -21l-8 -14l-8 -27l-13 -16
l-24 -27l-20 -11l-20 -26l-19 -8l-8 -5l-23 -27l-14 -20l-24 -3l-15 -16l-22 -2l-21 -2h-2l-9 2l-5 3l-4 4l-13 25l-13 8l-8 10l-9 37l-3 20l-6 7l-7 -2l-6 -13l-14 -8l-9 -5l-1 -1l-11 -18l-28 -18l-11 -18l-14 -11l-12 -22l-20 -11l-10 -7l-3 -1l-5 1l-3 2l-2 3l-8 29
l-15 37v6l1 10l3 4l21 19l8 18l27 20l22 36l26 18z" />
    <glyph glyph-name="odieresis" unicode="&#xf6;" horiz-adv-x="674" 
d="M181 259l14 -12l-6 -23l-5 -30l1 -6l12 -31l4 -23l2 -1l21 -1l35 -5l16 4l26 7l16 14l23 9l19 28h17l8 21l40 30l12 26l21 19l21 45l13 23l8 45l-3 18l-3 3l-23 24l-11 15l-3 16l5 19l21 28l23 20v6l-5 5l-23 -9l-14 -15l-4 -2l-28 -9l-31 -10l-14 10l-12 -1l-14 -24
l-19 -6l-20 -22l-16 -3l-8 -5l-4 -7l-9 -22l-53 -55l-6 -20l-15 -38l-6 -27l-20 -14l-4 -7zM-29 385v7l13 20l19 29l4 2l23 8l19 27l43 31l33 31l21 7l102 63l53 21l58 15l22 5l20 6l27 12l3 1l58 -19l40 -15l30 -19l10 -14l4 -20l-2 -11l-14 -21l28 -16l11 -22l13 -22
l9 -32l1 -52l-2 -24l-11 -16v-22l-4 -31l-5 -8l-25 -30l-9 -23l-18 -19l-5 -21l-1 -3l-61 -51l-17 -16l-13 4l-39 -37h-12l-11 -6l-39 -19l-26 -13l-25 -3l-16 -12h-25l-24 1l-10 -6h-12l-18 11l-23 7l-27 26l-40 34l-11 14l-24 40l-9 29v1l2 39v13l8 16l1 39l15 55l8 21
l-8 12l-14 -16l-16 -4l-7 -21l-8 -3l-10 6l-11 -22l-15 -15l-12 -3l-10 3l-3 3l-1 4v27zM474 914l15 25l43 25l10 10l20 -4l26 -18l36 -47l5 -21l-2 -11l-4 -4l-22 -19l-9 -15l-25 -5l-8 -16l-21 -13l-31 9l-23 35l-14 12l-8 12l-3 15l1 6zM425 879l-14 -16l-13 -32l-19 -13
l-16 -12h-5h-4l-15 10l-31 17l-15 16l-16 25l-3 21l7 24l25 29l30 25l14 3l21 -5l10 -10l22 -34l23 -26l2 -11z" />
    <glyph glyph-name="divide" unicode="&#xf7;" 
d="M82 1351v-1337h655v1337h-655zM68 0v1365h683v-1365h-683z" />
    <glyph glyph-name="oslash" unicode="&#xf8;" horiz-adv-x="724" 
d="M309 175l-13 -20l24 -1l14 5l22 15l36 19l28 22l47 21l40 31l37 25l21 2l10 5l4 4l19 27l40 33l11 25l45 73l6 13l2 12l-3 12l-7 15l-4 22l-52 33l-27 -22l-9 -20l-14 -11l-10 -32l-17 -5l-19 -36l-25 -9l-12 -16l-20 -16l-19 -32l-37 -34l-31 -47l-41 -51l-16 -28z
M96 152l21 -2l4 16l20 3l13 21l15 16l11 27l22 12l21 19l28 21l29 48l31 25l62 80l64 47l33 36l21 21l-21 -9l-20 -15l-22 5l-19 -9l-12 1l-11 -5l-10 -2l-12 3l-16 14l-9 23l-2 22l-17 4l-9 -2l-5 -6l-36 -51l-89 -74l-32 -47l-16 -15l-9 -12l-15 -9l-9 -23l-9 -13l-13 -45
l-13 -19l-1 -19l-8 -32l3 -15l7 -23l8 -9zM57 72l5 19l-27 12l-15 34l-20 15l-14 18l-8 63l4 49l13 60l16 30l6 15l10 12l16 36l20 26l23 17l11 17l57 43l24 35l43 11l22 22l19 14l20 -4l19 24h5l23 -3l22 -3l14 29l22 5l62 12l45 18h2l16 -4l29 -4l25 -17l39 -7l21 -2
l21 27l30 26l52 42l64 43l43 40l3 1h19l31 -2l6 -6l3 -12l-5 -18l-20 -19l-29 -22l-17 -29l-34 -7l-20 -35l-24 -6l-8 -18l-26 -20l-14 -25l29 -35l7 -18l24 -52l7 -28l-1 -9l-15 -69l-4 -34l-23 -53l-39 -48l-22 -33l-64 -66l-93 -59l-20 -4l-10 17h-5l-9 -20l1 -14l-14 -9
l-28 -12l-14 -17l-32 -13l-28 -18l-40 -10l-47 7l-35 10l-16 12l-20 -16l-35 -51l-20 -17l-22 -33l-12 -19l-1 -24v-15l-13 -71l-15 -33l-16 -16l-21 -5l-44 12l-40 43l-19 69l10 48l64 90z" />
    <glyph glyph-name="ugrave" unicode="&#xf9;" horiz-adv-x="1001" 
d="M32 358l-29 15l7 38l5 29l22 22l25 20l20 -3l12 28l26 7l27 32l23 -1l15 24l18 15l11 -2l16 19l20 2l15 7l20 2l20 1l4 -1l27 -29l16 -19l15 -24l7 -40l-1 -10l-4 -7l-19 -8l-3 -24l-13 -31l-8 -16l-16 -13l-8 -19l-17 -2l-4 -22l-9 -34l-6 -8l-15 -17l-3 -17l-10 -26
l-3 -14l2 -8l6 -5l4 -2l3 1l43 32l14 8l20 5l10 17l25 24l16 15l24 5l4 18l24 15l24 22l36 29l9 13h17l11 28l61 55l12 19l23 16l50 46l24 15l38 6l26 -3l7 -5l28 -28l33 -28l11 -20l1 -10l-46 -116l-28 -89l-6 -32l-12 -5l3 -33l20 9l28 16l27 7l13 22l32 28l16 20l14 8
l22 2l6 19l22 26l46 38l11 3l6 -1l8 -5l7 -11l5 -12l10 -9v-32l-10 -7l-17 -25l-20 -2l-10 -14h-9l-18 -19l-50 -56l-30 -20l-14 6l-14 -17l-35 -24l-22 -28l-31 -11l-42 -41l-19 -6l-8 2l-25 23l-16 12l-15 21l-40 52l-1 3v1l5 29l1 32l15 36v36l19 32l-3 16l4 23l-26 -14
l-21 -26l-23 -1l-12 -27l-16 -7l-14 -13l-21 1l-6 -26l-19 -13l-12 -17l-11 -3l-22 -24h-19l-7 -25l-17 -17l-16 -15l-19 2l-6 -22l-7 -10l-3 -2l-26 -7l-63 -56l-32 1l-21 3l-16 5l-15 13l-16 19l-19 18l-32 52l-13 21v21l6 42l37 76l8 22l11 2l2 15l14 17l1 15l-36 -17
l-20 -16l-19 -9l-5 5h-6l-6 -20l-12 -1l-9 -10l-14 -11l-8 -2h-2zM590 826l4 -10l19 -21l1 -8l-2 -11l-6 -5l-30 -6l-23 2h-28l-19 22l-24 23l-1 22l-18 27l-7 18l-7 9v27l-25 52v4l5 19l21 21l32 9l10 -1l23 -7l32 -1l10 -7l7 -18l13 -83l16 -55z" />
    <glyph glyph-name="uacute" unicode="&#xfa;" horiz-adv-x="1001" 
d="M32 358l-29 15l7 38l5 29l22 22l25 20l20 -3l12 28l26 7l27 32l23 -1l15 24l18 15l11 -2l16 19l20 2l15 7l20 2l20 1l4 -1l27 -29l16 -19l15 -24l7 -40l-1 -10l-4 -7l-19 -8l-3 -24l-13 -31l-8 -16l-16 -13l-8 -19l-17 -2l-4 -22l-9 -34l-6 -8l-15 -17l-3 -17l-10 -26
l-3 -14l2 -8l6 -5l4 -2l3 1l43 32l14 8l20 5l10 17l25 24l16 15l24 5l4 18l24 15l24 22l36 29l9 13h17l11 28l61 55l12 19l23 16l50 46l24 15l38 6l26 -3l7 -5l28 -28l33 -28l11 -20l1 -10l-46 -116l-28 -89l-6 -32l-12 -5l3 -33l20 9l28 16l27 7l13 22l32 28l16 20l14 8
l22 2l6 19l22 26l46 38l11 3l6 -1l8 -5l7 -11l5 -12l10 -9v-32l-10 -7l-17 -25l-20 -2l-10 -14h-9l-18 -19l-50 -56l-30 -20l-14 6l-14 -17l-35 -24l-22 -28l-31 -11l-42 -41l-19 -6l-8 2l-25 23l-16 12l-15 21l-40 52l-1 3v1l5 29l1 32l15 36v36l19 32l-3 16l4 23l-26 -14
l-21 -26l-23 -1l-12 -27l-16 -7l-14 -13l-21 1l-6 -26l-19 -13l-12 -17l-11 -3l-22 -24h-19l-7 -25l-17 -17l-16 -15l-19 2l-6 -22l-7 -10l-3 -2l-26 -7l-63 -56l-32 1l-21 3l-16 5l-15 13l-16 19l-19 18l-32 52l-13 21v21l6 42l37 76l8 22l11 2l2 15l14 17l1 15l-36 -17
l-20 -16l-19 -9l-5 5h-6l-6 -20l-12 -1l-9 -10l-14 -11l-8 -2h-2zM708 1023l25 -10l31 4l41 -5l14 -14l5 -16l-1 -8l-4 -6l-36 -49l-14 -27l-23 -18l-17 -27l-60 -37l-16 -18l-14 -3l-18 -17l-9 -7h-5l-19 1l-21 -2l-13 9l-18 -9l-7 6l-9 10l-1 9l2 10l5 6l25 19l21 29
l23 17l15 21l20 15l8 20l14 19l17 44l15 21l16 11z" />
    <glyph glyph-name="ucircumflex" unicode="&#xfb;" horiz-adv-x="1001" 
d="M32 358l-29 15l7 38l5 29l22 22l25 20l20 -3l12 28l26 7l27 32l23 -1l15 24l18 15l11 -2l16 19l20 2l15 7l20 2l20 1l4 -1l27 -29l16 -19l15 -24l7 -40l-1 -10l-4 -7l-19 -8l-3 -24l-13 -31l-8 -16l-16 -13l-8 -19l-17 -2l-4 -22l-9 -34l-6 -8l-15 -17l-3 -17l-10 -26
l-3 -14l2 -8l6 -5l4 -2l3 1l43 32l14 8l20 5l10 17l25 24l16 15l24 5l4 18l24 15l24 22l36 29l9 13h17l11 28l61 55l12 19l23 16l50 46l24 15l38 6l26 -3l7 -5l28 -28l33 -28l11 -20l1 -10l-46 -116l-28 -89l-6 -32l-12 -5l3 -33l20 9l28 16l27 7l13 22l32 28l16 20l14 8
l22 2l6 19l22 26l46 38l11 3l6 -1l8 -5l7 -11l5 -12l10 -9v-32l-10 -7l-17 -25l-20 -2l-10 -14h-9l-18 -19l-50 -56l-30 -20l-14 6l-14 -17l-35 -24l-22 -28l-31 -11l-42 -41l-19 -6l-8 2l-25 23l-16 12l-15 21l-40 52l-1 3v1l5 29l1 32l15 36v36l19 32l-3 16l4 23l-26 -14
l-21 -26l-23 -1l-12 -27l-16 -7l-14 -13l-21 1l-6 -26l-19 -13l-12 -17l-11 -3l-22 -24h-19l-7 -25l-17 -17l-16 -15l-19 2l-6 -22l-7 -10l-3 -2l-26 -7l-63 -56l-32 1l-21 3l-16 5l-15 13l-16 19l-19 18l-32 52l-13 21v21l6 42l37 76l8 22l11 2l2 15l14 17l1 15l-36 -17
l-20 -16l-19 -9l-5 5h-6l-6 -20l-12 -1l-9 -10l-14 -11l-8 -2h-2zM410 783l4 18l19 11l38 36l18 9l29 29l25 17l62 64l31 17l23 27l18 11l23 5l27 -5l4 -3l15 -18l15 -13l11 -32l22 -32l7 -27l18 -29l8 -29l27 -49l-6 -19l-3 -3l-5 -1l-26 2l-21 -6h-1l-16 4l-25 10l-14 18
l-15 21l-24 21l-11 23l-20 22l-6 -18l-21 -8l-44 -32l-22 -11l-14 -18l-25 -14l-16 -14l-12 -3l-29 5l-21 8l-19 -8l-12 -2l-9 2l-6 5l-1 7v2z" />
    <glyph glyph-name="udieresis" unicode="&#xfc;" horiz-adv-x="1001" 
d="M32 358l-29 15l7 38l5 29l22 22l25 20l20 -3l12 28l26 7l27 32l23 -1l15 24l18 15l11 -2l16 19l20 2l15 7l20 2l20 1l4 -1l27 -29l16 -19l15 -24l7 -40l-1 -10l-4 -7l-19 -8l-3 -24l-13 -31l-8 -16l-16 -13l-8 -19l-17 -2l-4 -22l-9 -34l-6 -8l-15 -17l-3 -17l-10 -26
l-3 -14l2 -8l6 -5l4 -2l3 1l43 32l14 8l20 5l10 17l25 24l16 15l24 5l4 18l24 15l24 22l36 29l9 13h17l11 28l61 55l12 19l23 16l50 46l24 15l38 6l26 -3l7 -5l28 -28l33 -28l11 -20l1 -10l-46 -116l-28 -89l-6 -32l-12 -5l3 -33l20 9l28 16l27 7l13 22l32 28l16 20l14 8
l22 2l6 19l22 26l46 38l11 3l6 -1l8 -5l7 -11l5 -12l10 -9v-32l-10 -7l-17 -25l-20 -2l-10 -14h-9l-18 -19l-50 -56l-30 -20l-14 6l-14 -17l-35 -24l-22 -28l-31 -11l-42 -41l-19 -6l-8 2l-25 23l-16 12l-15 21l-40 52l-1 3v1l5 29l1 32l15 36v36l19 32l-3 16l4 23l-26 -14
l-21 -26l-23 -1l-12 -27l-16 -7l-14 -13l-21 1l-6 -26l-19 -13l-12 -17l-11 -3l-22 -24h-19l-7 -25l-17 -17l-16 -15l-19 2l-6 -22l-7 -10l-3 -2l-26 -7l-63 -56l-32 1l-21 3l-16 5l-15 13l-16 19l-19 18l-32 52l-13 21v21l6 42l37 76l8 22l11 2l2 15l14 17l1 15l-36 -17
l-20 -16l-19 -9l-5 5h-6l-6 -20l-12 -1l-9 -10l-14 -11l-8 -2h-2zM610 914l15 25l43 25l10 10l20 -4l26 -18l36 -47l5 -21l-2 -11l-4 -4l-22 -19l-9 -15l-25 -5l-8 -16l-21 -13l-31 9l-23 35l-14 12l-8 12l-3 15l1 6zM561 879l-14 -16l-13 -32l-19 -13l-16 -12h-5h-4l-15 10
l-31 17l-15 16l-16 25l-3 21l7 24l25 29l30 25l14 3l21 -5l10 -10l22 -34l23 -26l2 -11z" />
    <glyph glyph-name="ydieresis" unicode="&#xff;" horiz-adv-x="778" 
d="M430 914l15 25l43 25l10 10l20 -4l26 -18l36 -47l5 -21l-2 -11l-4 -4l-22 -19l-9 -15l-25 -5l-8 -16l-21 -13l-31 9l-23 35l-14 12l-8 12l-3 15l1 6zM381 879l-14 -16l-13 -32l-19 -13l-16 -12h-5h-4l-15 10l-31 17l-15 16l-16 25l-3 21l7 24l25 29l30 25l14 3l21 -5
l10 -10l22 -34l23 -26l2 -11zM39 -689l-1 -27l37 15l23 21l17 12l6 20l10 16l16 10l8 21l20 7l8 29l24 38l7 17l32 44l15 37l13 13l13 39l14 18l3 21l17 20l15 27l17 28l23 41l7 24l30 50l-4 20l-18 -15l-38 -31l-27 -20l-30 -36l-54 -53l-21 -36l-2 -2h-22l-7 -10l7 -23
l-16 -14l-7 -23l-18 -13l-16 -29l-19 -10l-2 -25l-4 -26l-42 -69l-5 -19l-7 -12l-4 -28l-16 -10l-4 -11l13 -13zM21 460l22 12l9 20l71 54l69 58l17 10l20 4l29 -8l12 -11l5 -34l-9 -44l-20 -35l-10 -32l-42 -64l-21 -44l-21 -56l1 -8l4 -4l8 -2l8 1l8 4l31 18l44 21l16 17
l79 37l16 19l14 7l18 17l22 5l17 9l11 9l17 20l63 37l96 68l23 10l35 22l32 9l40 -13l30 -23l6 -36l-3 -44l-7 -38l-17 -36l-5 -33l-9 -20l1 -23l-23 -19l5 -24v-1l-1 -9l-4 -8l-13 -18l-5 -30l-13 -31l-16 -23l-23 -72l-13 -26l-15 -32l26 3l12 -2l29 14l21 4l49 11l41 -1
l19 2l27 -6l34 -8l31 -18l29 -22l9 -56l-7 -42l-10 -9l-8 -2h-4l-22 10l-22 15l-4 6l-21 44l-12 20l-21 1l-16 6l-23 -2l-19 5l-30 -8h-39l-24 -10l-43 -9l-25 -13l-7 -20l-10 -24l-18 -22l-11 -31l-18 -22l-8 -16l-11 -20l-7 -43l-13 -19l-15 -16l-2 -21l-15 -12l4 -22
l-35 -49l-10 -16l-12 -6l9 -21l-13 -19l-8 -21l-57 -81l-6 -25l-13 -12l-43 -60l-17 -13l4 -18l-13 -26l-19 -4l-8 -10l2 -21l-5 -7l-13 -7l-22 -2l1 -24l-19 -16l-26 -31l-20 -14l-35 -8l-15 2l-65 36l-36 27l-8 12l-9 35l-3 42l2 5l10 20l1 28l10 27l7 27l19 23l26 63
l25 32l53 85l23 32l3 14l17 1l11 20l8 22l25 22l32 47l26 13l11 19l54 41l14 16l16 1l15 26l26 9l3 19l5 8l35 7l22 14l16 22l9 25l19 -2l3 3l-5 23l6 23l10 20l21 18l-2 21l3 24l9 17l5 26l17 20l4 24l8 27l22 53l12 40l11 17l4 16l1 22l-35 -23l-28 4l-24 -19l-15 -4
l-10 -14l-37 -21l-12 12l-9 -2l-12 -25l-7 -5l-18 -4h-23l-9 -20l-10 -12l-7 -4l-45 -19l-43 -33l-47 -20l-21 -16l-42 -7l-13 -20l-35 1l-34 -8l-15 7l-37 27l-11 16l-2 6l-1 26l-5 19l13 31l1 32l16 56l9 20l-4 5l-20 -15l-10 -20l-24 -26l-17 -15l-20 10l-9 17l-15 9
l-2 5l-3 12l2 8l16 18l44 38z" />
    <glyph glyph-name="dotlessi" unicode="&#x131;" horiz-adv-x="630" 
d="M-2 426l14 15l13 1l26 20l23 29l45 27l29 27l31 2l12 17l21 13l21 20l35 24l31 16l11 1l28 -8l34 -28l20 -24l9 -33l-8 -46l-20 -56l-15 -47l-13 -13l-8 -20l-12 -13l5 -29l-12 -19l-1 -45l-12 -13l4 -7l16 5h29l13 16l21 10l14 12l49 22l153 118l17 -4l5 -6l2 -10
l-7 -27l-15 -30l-14 -32l-18 -19l-12 -17l-16 -10l-21 -20l-26 -18l-51 -46l-27 -15l-12 -16l-27 -7l-14 -13l-14 -11l-18 -6l-22 -2l-21 -19l-25 -1l-16 -4h-2l-24 10l-14 9l-20 18l-3 9l-3 42l-9 32l-4 29l3 20l14 48l5 32l9 9l13 45l15 22l6 25l17 35l-5 9l-9 2l-21 -13
l-15 3l-16 -14l-15 -4l-19 -14l-15 7l-10 -5l-8 -27l-4 -3l-27 -10l-23 -8l-11 -25l-19 -16l-12 -11l-11 -3l-13 4l-8 8l-3 11v3l6 40z" />
    <glyph glyph-name="OE" unicode="&#x152;" 
d="M82 1351v-1337h655v1337h-655zM68 0v1365h683v-1365h-683z" />
    <glyph glyph-name="oe" unicode="&#x153;" horiz-adv-x="1092" 
d="M635 426l-10 -21l12 -8l20 5l10 7l27 11l50 38l20 12l9 12l30 16l6 14l16 4l15 19l14 10l21 11l-6 16l-4 3l-6 1l-6 -2l-24 -9l-24 -3l-16 -9l-41 -15l-49 -39l-44 -21zM194 259l14 -12l-5 -23l-5 -30l1 -6l12 -31l4 -23l2 -1l21 -1l34 -5l17 4l26 7l15 14l24 9l19 28h17
l8 21l40 30l11 26l22 19l20 44l23 42l12 38l5 24l-6 10l5 16l-2 19l6 10l-9 18l8 33l-23 13h-2l-7 -2l-11 -7l-13 -15l-45 -16l-16 -3h-4l-20 10l-18 -27l-20 -6l-20 -22l-20 -5l-17 -32l-52 -55l-6 -20l-16 -38l-5 -27l-20 -14l-4 -7v-7zM-15 385v7l12 20l19 29l4 2l24 8
l18 27l44 31l33 31l20 7l103 63l53 21l58 15l21 5l21 6l27 12l3 1l58 -19l39 -15l31 -19l10 -14l4 -20l-2 -11l-15 -21l27 -14l8 -16l4 26l19 17l57 44l47 18l32 20l14 -3l52 13l36 1l26 2l26 -7l42 -9l19 -14l17 -22l3 -14v-5l-7 -21l-6 -18l-42 -41l-14 -15l-18 -2
l-14 -17l-19 -11l-19 -16h-23l-4 -2l-11 -11l-15 -22l-17 -1l-18 -12l-6 -16l-22 -9l-22 -19l-17 -13l-23 -1l-7 -12l-2 -20l-15 -3l-12 -11l-11 3l-19 -18l-26 -4l-7 -3l-8 -8l-7 -21l-2 -26l11 -14l18 -15l5 -2l1 1l51 4l32 1l47 20l23 2h21l17 22l23 10l23 6l9 17l9 9
l7 3l29 9l21 23l32 11l16 20l29 8l17 20l28 19l12 10l9 -1l7 -13l1 27l24 23l28 11l10 26l22 11l12 6l3 1l6 -2l4 -4l1 -4v-1l-5 -27l3 -31l-18 -26l-10 -39l-15 -8l-22 -20l-18 -7l-28 -36l-24 -23l-16 -14l-8 11l-12 -4l-4 -17l-4 -8l-5 -3l-25 -13l-19 -17l-24 -1l-9 -10
l-12 -21l-41 -11l-57 -34l-18 -4l-72 -27l-22 -4l-11 2l-18 13l-24 -6l-33 -4l-12 3l-16 10l-41 20l-10 15l-14 7l-15 14l-20 -18l-13 3l-39 -37h-13l-10 -6l-39 -19l-26 -13l-25 -3l-16 -12h-25l-25 1l-9 -6h-13l-17 11l-23 7l-27 26l-40 34l-11 14l-24 40l-9 29v1l1 39v13
l9 16v39l16 55l8 21l-8 12l-14 -16l-17 -4l-7 -21l-7 -3l-10 6l-12 -22l-15 -15l-12 -3l-9 3l-4 3l-1 4v27z" />
    <glyph glyph-name="Ydieresis" unicode="&#x178;" 
d="M82 1351v-1337h655v1337h-655zM68 0v1365h683v-1365h-683z" />
    <glyph glyph-name="florin" unicode="&#x192;" horiz-adv-x="958" 
d="M-198 -486l-6 -20l9 -21l14 17l45 65l23 21l6 35l18 18l22 54l8 10l18 19l2 24l18 43l21 28l13 22l16 2l2 6l-15 16l-1 3l1 5l4 6l16 12v14l10 17l3 18l13 19l11 35l12 10l4 19l16 31l11 41l12 26l-20 -18l-59 -59l-20 -22l-12 -18l-27 -32l-32 -45l-24 -33l-24 -46
l-51 -85l-11 -34l-11 -42l-25 -19l9 -14l2 -11l-1 -4l-2 -5l-10 -16l-3 -26l-11 -31zM-266 -259l9 21l12 1l8 21l19 13l1 26l16 17l14 21l7 14l14 9l8 23l11 13l10 13l23 5l7 4l-4 19l76 75l28 -5l6 2l-5 30l11 11l15 30l7 2l16 -10l9 3l2 6l-5 22l20 17l30 15l14 35l23 7
l31 27l18 17l14 37l12 25l21 10v6l-10 14l20 22l1 26l36 70l4 17l11 11l-2 15l22 14l3 24l5 25l20 29l13 18l-24 -2l-18 -3l-66 -29l-27 -1l-13 -6l-14 4l-2 13l8 33l34 5l26 12l142 51l33 59l18 26l10 19l-11 4l-26 -11l-25 -7l-72 -47l-23 -8l-26 -13l-31 -8l-32 -16h-5
l-27 8l-18 17l-8 32l4 28l3 6l30 19l25 14l9 1l34 -10l21 -12l33 11l38 10h16l19 27l36 2l7 12l20 15l33 15l15 15l39 37l66 107l38 49l6 19l22 44l57 85l44 72l23 14l29 28l26 33l17 6l16 24l29 10l35 15h3l15 -3l31 -25l16 -16l-4 -22l2 -49l-16 -18l-7 -25l-34 -53
l-13 -29l-22 -25l-9 -17l-15 -14l-18 -40l-27 -11l-37 -45l-106 -85l-31 -59l-38 -62l-14 -37l-7 -13l-26 -42l23 4l47 14l76 11l41 -4l13 -6l13 -16l-2 -28l-10 -37l-19 -17l-63 -15l-116 1l-25 -7l-17 -12l-13 1l-2 -2l-6 -8l-30 -64l-41 -52l-4 -28l-14 -12l-6 -22
l-8 -24h5l-17 -30l-78 -145l-23 -33l-10 -62l-2 -5l-8 -8l-18 -10l-2 -23l-8 -38l-39 -62l-3 -33l-22 -34l-21 -62l-12 -13l-47 -93l-12 -20l-29 -6l7 -25v-5l-2 -13l-5 -12l-18 -28l-22 -50l-22 -34l-15 -13l-11 -25l-33 -54l-26 -31l-29 -28l-33 -4l-15 -32l-24 4l-13 -18
l-15 -10l-37 -8l-6 2l-3 3l-27 46l-22 17l-7 20l-13 27l-2 56l-2 25l3 22l-4 21l6 17l7 21l15 19l-5 25v2z" />
    <glyph glyph-name="hungarumlaut" unicode="&#x2ba;" 
d="M82 1351v-1337h655v1337h-655zM68 0v1365h683v-1365h-683z" />
    <glyph glyph-name="circumflex" unicode="&#x2c6;" horiz-adv-x="717" 
d="M137 783l4 18l19 11l38 36l18 9l29 29l25 17l62 64l31 17l23 27l18 11l23 5l27 -5l4 -3l15 -18l15 -13l11 -32l22 -32l7 -27l18 -29l8 -29l27 -49l-6 -19l-3 -3l-5 -1l-26 2l-21 -6h-1l-16 4l-25 10l-14 18l-15 21l-24 21l-11 23l-20 22l-6 -18l-21 -8l-44 -32l-22 -11
l-14 -18l-25 -14l-16 -14l-12 -3l-29 5l-21 8l-19 -8l-12 -2l-9 2l-6 5l-1 7v2z" />
    <glyph glyph-name="caron" unicode="&#x2c7;" 
d="M82 1351v-1337h655v1337h-655zM68 0v1365h683v-1365h-683z" />
    <glyph glyph-name="breve" unicode="&#x2d8;" 
d="M82 1351v-1337h655v1337h-655zM68 0v1365h683v-1365h-683z" />
    <glyph glyph-name="dotaccent" unicode="&#x2d9;" 
d="M82 1351v-1337h655v1337h-655zM68 0v1365h683v-1365h-683z" />
    <glyph glyph-name="ring" unicode="&#x2da;" horiz-adv-x="521" 
d="M219 884l-9 -19l22 -28l6 -1l17 6l35 37l14 48l-5 17l-8 8l-14 4l-13 -4l-10 -9l-10 -17l-17 -24zM338 1009l20 -10l11 -22l15 -56v-7l-10 -28l-29 -64l-7 -11l-34 -30l-62 -22l-11 2l-34 16l-21 4l-23 13l-11 15l-5 40l1 45l29 69l14 21l17 11l19 12l11 6l27 4l44 5h3z
" />
    <glyph glyph-name="ogonek" unicode="&#x2db;" 
d="M82 1351v-1337h655v1337h-655zM68 0v1365h683v-1365h-683z" />
    <glyph glyph-name="tilde" unicode="&#x2dc;" horiz-adv-x="765" 
d="M258 970l28 17l9 11l12 7l19 12l13 3l20 -5l29 -27l15 -25l4 -23l16 -29l8 -19h8l11 17l23 19l7 12l49 34l25 27l25 14l17 15l24 -6l8 -11l-6 -26l5 -21l-8 -14l-8 -27l-13 -16l-24 -27l-20 -11l-20 -26l-19 -8l-8 -5l-23 -27l-14 -20l-24 -3l-15 -16l-22 -2l-21 -2h-2
l-9 2l-5 3l-4 4l-13 25l-13 8l-8 10l-9 37l-3 20l-6 7l-7 -2l-6 -13l-14 -8l-9 -5l-1 -1l-11 -18l-28 -18l-11 -18l-14 -11l-12 -22l-20 -11l-10 -7l-3 -1l-5 1l-3 2l-2 3l-8 29l-15 37v6l1 10l3 4l21 19l8 18l27 20l22 36l26 18z" />
    <glyph glyph-name="summation" unicode="&#x3a3;" 
d="M82 1351v-1337h655v1337h-655zM68 0v1365h683v-1365h-683z" />
    <glyph glyph-name="Omega" unicode="&#x3a9;" 
d="M82 1351v-1337h655v1337h-655zM68 0v1365h683v-1365h-683z" />
    <glyph glyph-name="pi" unicode="&#x3c0;" 
d="M82 1351v-1337h655v1337h-655zM68 0v1365h683v-1365h-683z" />
    <glyph glyph-name="endash" unicode="&#x2013;" horiz-adv-x="975" 
d="M170 436l23 8l21 -8h21l23 -5l81 2l31 -2h3l21 9l37 -1l20 2l35 -3l19 3l15 -2l34 5l25 -7l15 -2l49 11l53 12h1l63 -1l23 6l26 -14l32 -3l25 -38l-9 -29l-17 -33l-20 -14l-37 -12l-31 -5l-8 1l-28 6l-47 -7l-97 9l-23 -5l-20 -4l-34 15l-23 -8l-37 -10l-16 3l-39 13
l-36 -10l-38 1l-71 2l-23 5l-60 -1l-25 9l-11 14l-7 35l5 24l11 15z" />
    <glyph glyph-name="emdash" unicode="&#x2014;" horiz-adv-x="2266" 
d="M170 436l23 8l21 -8h21l23 -5l81 2l31 -2h3l21 9l37 -1l20 2l257 4l173 -2l105 5l62 -6l66 -2l254 -3l110 -11h70l50 8l105 -5l39 2l35 7l19 3l15 -2l35 5l24 -7l16 -2l48 11l53 12h1l63 -1l23 6l26 -14l32 -3l25 -38l-9 -29l-17 -33l-20 -14l-37 -12l-31 -5l-7 1l-29 6
l-47 -7l-96 9l-23 -5l-20 -4l-35 15l-30 -11l-10 -2l-90 -11l-62 -5l-52 7l-53 2h-11l-21 -1l-29 -1l-81 -1l-41 -3l-82 -5l-40 7l-78 -1l-60 5h-22l-37 1h-28l-43 1l-42 1l-137 2l-68 -5l-69 2l-86 -5l-59 10l-20 -5l-16 3l-39 13l-36 -10l-38 1l-71 2l-23 5l-60 -1l-25 9
l-11 14l-7 35l5 24l11 15z" />
    <glyph glyph-name="quoteleft" unicode="&#x2018;" horiz-adv-x="481" 
d="M624 1361l21 -11l-9 -27l-45 -57l-6 -23l17 -23l15 -21l3 -24l5 -35v-2l-1 -5l-34 -53l-40 -38l-34 -10l-24 7l-24 22l-39 54l-6 19l1 6l2 4l18 28l23 59l30 44l65 77l25 18l11 3z" />
    <glyph glyph-name="quoteright" unicode="&#x2019;" horiz-adv-x="482" 
d="M474 1129l11 32l-16 18l-16 22l-1 4l-3 25l-5 33l26 44l40 49l16 7l15 8l12 2l18 -5l49 -54l23 -33l3 -12l-2 -8l-19 -29l-23 -59l-67 -92l-38 -39l-10 -6l-13 -5l-5 1l-25 11l-20 13l-1 5l2 7l9 15z" />
    <glyph glyph-name="quotesinglbase" unicode="&#x201a;" 
d="M82 1351v-1337h655v1337h-655zM68 0v1365h683v-1365h-683z" />
    <glyph glyph-name="quotedblleft" unicode="&#x201c;" horiz-adv-x="724" 
d="M813 1359l30 14l24 -12l15 -5l5 -5l1 -7l-3 -15l-15 -22l-32 -35l-10 -29l15 -18l15 -21l2 -6l3 -19l6 -38l-11 -24l-24 -37l-40 -38l-34 -10l-25 7l-24 22l-38 54l-6 19l1 8l20 31l22 56l31 46l35 44zM624 1361l21 -11l-9 -27l-45 -57l-6 -23l17 -23l15 -21l3 -24l5 -35
v-2l-1 -5l-34 -53l-40 -38l-34 -10l-24 7l-24 22l-39 54l-6 19l1 6l2 4l18 28l23 59l30 44l65 77l25 18l11 3z" />
    <glyph glyph-name="quotedblright" unicode="&#x201d;" horiz-adv-x="725" 
d="M687 1043l-19 11l4 17l11 21l37 41l8 28l-18 25l-16 35l-6 42v3l2 3l23 37l11 20l21 25l12 7l13 5l15 8l8 2l28 -9l24 -22l17 -26l26 -36l1 -11l-2 -9l-19 -28l-23 -60l-68 -92l-35 -37l-11 -6l-15 -5l-7 1zM474 1129l11 32l-16 18l-16 22l-1 4l-3 25l-5 33l26 44l40 49
l16 7l15 8l12 2l18 -5l49 -54l23 -33l3 -12l-2 -8l-19 -29l-23 -59l-67 -92l-38 -39l-10 -6l-13 -5l-5 1l-25 11l-20 13l-1 5l2 7l9 15z" />
    <glyph glyph-name="quotedblbase" unicode="&#x201e;" horiz-adv-x="724" 
d="M250 -13l-20 11l4 17l11 21l36 40l9 29l-20 27l-15 35l-5 39v4l2 3l24 37l9 18l14 20l12 8l21 11l15 8l8 2l28 -9l24 -21l17 -27l26 -36l1 -10l-2 -10l-18 -28l-22 -58l-69 -93l-36 -38l-11 -6l-15 -5l-7 1zM8 -13l-22 11l10 29l44 54l7 24l-16 18l-15 21l-2 5l-2 20
l-6 38l26 44l10 19l34 33l21 10l14 2l30 -9l24 -21l17 -27l20 -25l6 -19l-3 -10l-18 -28l-23 -59l-67 -92l-38 -39l-8 -5l-16 -5l-7 1z" />
    <glyph glyph-name="dagger" unicode="&#x2020;" 
d="M82 1351v-1337h655v1337h-655zM68 0v1365h683v-1365h-683z" />
    <glyph glyph-name="daggerdbl" unicode="&#x2021;" 
d="M82 1351v-1337h655v1337h-655zM68 0v1365h683v-1365h-683z" />
    <glyph glyph-name="bullet" unicode="&#x2022;" horiz-adv-x="732" 
d="M315 801c0 55.333 19.333 102.332 58 140.999s85.667 58 141 58c37.333 0 71.333 -8.66699 102 -26c29.333 -17.333 53 -41.333 71 -72c17.333 -31.333 26 -65 26 -101c0 -34.667 -9 -67.667 -27 -99s-42 -56 -72 -74c-30.667 -18 -64 -27 -100 -27
c-54 0 -100.667 20 -140 60c-39.333 40.667 -59 87.334 -59 140.001z" />
    <glyph glyph-name="ellipsis" unicode="&#x2026;" horiz-adv-x="2048" 
d="M1554 182l-10 16l15 42l12 33l3 3l26 19l17 17l8 3l4 1l30 -16l25 -15l30 -47l27 -26l4 -10l1 -8l-12 -33l-40 -52l-19 -16l-23 -7l-18 5l-23 16l-20 18zM871 182l-9 16l14 42l12 33l3 3l27 19l17 17l8 3l3 1l30 -16l26 -15l29 -47l27 -26l4 -10l1 -8l-12 -33l-40 -52
l-19 -16l-22 -7l-19 5l-23 16l-20 18zM189 182l-10 16l14 42l12 33l3 3l27 19l17 17l8 3l4 1l29 -16l26 -15l30 -47l26 -26l4 -10l2 -8l-12 -33l-40 -52l-19 -16l-23 -7l-19 5l-23 16l-20 18z" />
    <glyph glyph-name="perthousand" unicode="&#x2030;" horiz-adv-x="1241" 
d="M805 258l3 -31l24 12l54 36l31 37l18 28l15 14l18 41l-2 3l-9 -2l-14 18l-7 16l-2 9l2 9l19 27l12 16l-21 -11l-49 -73l-25 -6l-11 -18l-17 -33l-8 -30l-6 -23l-20 -7l-3 -6l-2 -17v-9zM438 258l3 -31l24 12l54 36l31 37l18 28l15 14l18 41l-2 3l-9 -2l-14 18l-7 16l-2 9
l2 9l18 27l13 16l-21 -11l-49 -73l-26 -6l-10 -18l-17 -33l-8 -30l-6 -23l-20 -7l-4 -6l-2 -17zM256 952l-15 -17l21 6l35 15l77 51l17 14l22 11l17 21l64 41l18 21l34 7l1 22l-36 -4l-48 -14l-26 -24l-18 5l-14 -17l-16 -20l-19 -3l-14 -24l-73 -61zM724 272l-1 18l10 18
l47 67l13 26l92 87l13 17l20 9l56 47l25 6l12 8l9 -1l2 -20l-8 -17l-11 -22l56 20l28 -50l8 -18l7 -33l5 -24l-15 -16l-7 -22l-29 -26l-20 -45l-35 -38l-16 -6l-21 -25l-18 -14l-18 -18l-24 -6l-17 -14l-12 -10l-29 -12l-16 -10l-4 -1l-18 4l-24 6l-13 14l-23 36l-20 46z
M357 272l-1 18l10 18l47 67l13 26l91 87l14 17l20 9l56 47l25 6l11 8l10 -1l2 -20l-8 -17l-11 -22l56 20l28 -50l7 -18l8 -33l4 -24l-14 -16l-7 -22l-29 -26l-20 -45l-36 -38l-15 -6l-21 -25l-18 -14l-18 -18l-24 -6l-17 -14l-12 -10l-29 -12l-16 -10l-4 -1l-18 4l-24 6
l-13 14l-23 36l-21 46zM264 484l4 16l18 12l17 24l12 30l23 26l12 22l31 29l59 79l15 16l15 6l-2 24l19 17l29 39l42 46l8 17l2 1l16 1l25 36l8 21l34 44l42 39l20 13l8 30l50 49l68 69l24 17l14 16l13 20l-18 13l-6 2l-12 -24l-19 -2l-7 -15l-13 -9l-6 -13l-21 1l-19 -7
l-24 -23l-11 -22l-22 -10l-10 -14l-93 -73l-68 -63l-26 -7l-60 -59l-24 -3l-30 -30l-26 -11l-16 11l-23 -5l1 -28l-25 -7l-81 -42l-9 -2l-35 10l-7 4l-26 24l-6 20v1l1 35l1 36l4 10l1 2l52 53l13 22l37 35l52 31l9 16l9 12l20 13l31 14l59 36l21 5l39 23l42 4l42 11l8 -5
l5 -10l2 -22l21 9l11 13l15 12l24 16l26 7l53 25l25 3l10 11l22 -2l19 15l24 2l9 16h20l45 15l44 12l35 17l64 35l9 1l17 -4l14 -15l8 -31l-5 -34l-17 -51l-18 -30l-20 -44l-24 -6l-22 -12l-33 -19l-70 -72l-61 -57l-35 -43l-67 -52l-45 -57l-18 -15l-17 -30l-25 -12
l-16 -14l-16 -22l-12 -28l-8 -19h-20l-5 -32l-17 -11l-6 -31l-19 -4l-10 -6l-4 -6l-19 -33l-26 -27l-22 -34l-22 -21l-11 -18l-22 -12v-22l-5 -23l-7 -14l-29 -34l-54 -86l-15 -24l-16 -29l-13 -45l-9 -27l3 -28l-2 -25l22 -77v-26l-10 -48l-28 -23l-24 -7l-28 4l-41 10
l-19 13l-6 8l-11 30l-13 26l-5 28l-1 25l1 9l7 29l2 21l28 62l9 25l32 57l31 64l52 65l17 33z" />
    <glyph glyph-name="guilsinglleft" unicode="&#x2039;" horiz-adv-x="440" 
d="M285 491l14 10l16 -16l7 -13l2 -15l-6 -22l-27 -30l-39 -30l-13 -28l-11 -20l15 -16l49 -55l17 -28l5 -21l-4 -14l-8 -8l-11 -3l-15 3l-24 17l-66 63l-46 34l-8 14l-5 34l8 32l4 5l31 21l12 16l38 25l14 17l39 12z" />
    <glyph glyph-name="guilsinglright" unicode="&#x203a;" horiz-adv-x="443" 
d="M205 363l14 25l-21 22l-14 24l-15 21l-28 8l-14 15l-8 35l2 13l8 8l10 3l8 -2l62 -61l98 -69l12 -22l2 -11l-2 -11l-3 -5l-36 -32l-30 -36l-29 -16l-52 -78l-10 -4l-4 -1l-18 5l-16 18l-9 36l6 39l36 32l23 31z" />
    <glyph glyph-name="trademark" unicode="&#x2122;" 
d="M82 1351v-1337h655v1337h-655zM68 0v1365h683v-1365h-683z" />
    <glyph glyph-name="partialdiff" unicode="&#x2202;" 
d="M82 1351v-1337h655v1337h-655zM68 0v1365h683v-1365h-683z" />
    <glyph glyph-name="Delta" unicode="&#x2206;" 
d="M82 1351v-1337h655v1337h-655zM68 0v1365h683v-1365h-683z" />
    <glyph glyph-name="product" unicode="&#x220f;" 
d="M82 1351v-1337h655v1337h-655zM68 0v1365h683v-1365h-683z" />
    <glyph glyph-name="fraction" unicode="&#x2215;" 
d="M82 1351v-1337h655v1337h-655zM68 0v1365h683v-1365h-683z" />
    <glyph glyph-name="radical" unicode="&#x221a;" 
d="M82 1351v-1337h655v1337h-655zM68 0v1365h683v-1365h-683z" />
    <glyph glyph-name="infinity" unicode="&#x221e;" 
d="M82 1351v-1337h655v1337h-655zM68 0v1365h683v-1365h-683z" />
    <glyph glyph-name="integral" unicode="&#x222b;" 
d="M82 1351v-1337h655v1337h-655zM68 0v1365h683v-1365h-683z" />
    <glyph glyph-name="approxequal" unicode="&#x2248;" 
d="M82 1351v-1337h655v1337h-655zM68 0v1365h683v-1365h-683z" />
    <glyph glyph-name="notequal" unicode="&#x2260;" 
d="M82 1351v-1337h655v1337h-655zM68 0v1365h683v-1365h-683z" />
    <glyph glyph-name="lessequal" unicode="&#x2264;" 
d="M82 1351v-1337h655v1337h-655zM68 0v1365h683v-1365h-683z" />
    <glyph glyph-name="greaterequal" unicode="&#x2265;" 
d="M82 1351v-1337h655v1337h-655zM68 0v1365h683v-1365h-683z" />
    <glyph glyph-name="lozenge" unicode="&#x25ca;" 
d="M82 1351v-1337h655v1337h-655zM68 0v1365h683v-1365h-683z" />
    <glyph glyph-name="apple" unicode="&#xf000;" 
d="M82 1351v-1337h655v1337h-655zM68 0v1365h683v-1365h-683z" />
    <glyph glyph-name="fi" unicode="&#xf001;" 
d="M82 1351v-1337h655v1337h-655zM68 0v1365h683v-1365h-683z" />
    <glyph glyph-name="fl" unicode="&#xf002;" 
d="M82 1351v-1337h655v1337h-655zM68 0v1365h683v-1365h-683z" />
    <glyph glyph-name="HT" horiz-adv-x="548" 
 />
    <glyph glyph-name="nonmarkingreturn" horiz-adv-x="548" 
 />
    </font>
</defs>
</svg>
